<mxfile host="Electron" agent="Mozilla/5.0 (Windows NT 10.0; Win64; x64) AppleWebKit/537.36 (KHTML, like Gecko) draw.io/28.0.6 Chrome/138.0.7204.100 Electron/37.2.3 Safari/537.36" version="28.0.6">
  <diagram name="Page-1" id="5ZKjEhLT3XbjhhXR1Wiz">
    <mxGraphModel dx="3565" dy="2503" grid="0" gridSize="10" guides="1" tooltips="1" connect="1" arrows="1" fold="1" page="0" pageScale="1" pageWidth="1100" pageHeight="850" math="0" shadow="0">
      <root>
        <mxCell id="0" />
        <mxCell id="1" parent="0" />
        <mxCell id="yRi5o2NJnJKDBN_EiBJa-44" value="" style="rounded=0;whiteSpace=wrap;html=1;strokeColor=#6c8ebf;align=center;verticalAlign=top;fontFamily=Helvetica;fontSize=12;labelBackgroundColor=default;fillColor=none;" parent="1" vertex="1">
          <mxGeometry x="1172" y="-32" width="477" height="1253" as="geometry" />
        </mxCell>
        <mxCell id="yRi5o2NJnJKDBN_EiBJa-29" value="" style="group" parent="1" vertex="1" connectable="0">
          <mxGeometry x="13" y="14" width="585" height="820" as="geometry" />
        </mxCell>
        <mxCell id="yRi5o2NJnJKDBN_EiBJa-27" value="" style="rounded=0;whiteSpace=wrap;html=1;fillColor=#fff2cc;strokeColor=#d6b656;" parent="yRi5o2NJnJKDBN_EiBJa-29" vertex="1">
          <mxGeometry width="585" height="820" as="geometry" />
        </mxCell>
        <mxCell id="yRi5o2NJnJKDBN_EiBJa-3" value="" style="edgeStyle=orthogonalEdgeStyle;rounded=0;orthogonalLoop=1;jettySize=auto;html=1;" parent="yRi5o2NJnJKDBN_EiBJa-29" source="yRi5o2NJnJKDBN_EiBJa-1" target="yRi5o2NJnJKDBN_EiBJa-2" edge="1">
          <mxGeometry relative="1" as="geometry" />
        </mxCell>
        <mxCell id="yRi5o2NJnJKDBN_EiBJa-1" value="&lt;p&gt;Start: Incoming UDP Packet&lt;/p&gt;" style="rounded=0;whiteSpace=wrap;html=1;container=0;" parent="yRi5o2NJnJKDBN_EiBJa-29" vertex="1">
          <mxGeometry x="81" y="41" width="120.74999999999999" height="57.85166240409206" as="geometry" />
        </mxCell>
        <mxCell id="yRi5o2NJnJKDBN_EiBJa-5" value="" style="edgeStyle=orthogonalEdgeStyle;rounded=0;orthogonalLoop=1;jettySize=auto;html=1;" parent="yRi5o2NJnJKDBN_EiBJa-29" source="yRi5o2NJnJKDBN_EiBJa-2" target="yRi5o2NJnJKDBN_EiBJa-4" edge="1">
          <mxGeometry relative="1" as="geometry" />
        </mxCell>
        <mxCell id="yRi5o2NJnJKDBN_EiBJa-2" value="&lt;p&gt;Create Expected XGMII Packet&lt;/p&gt;" style="rounded=0;whiteSpace=wrap;html=1;container=0;" parent="yRi5o2NJnJKDBN_EiBJa-29" vertex="1">
          <mxGeometry x="81" y="175.98721227621482" width="120.74999999999999" height="57.85166240409206" as="geometry" />
        </mxCell>
        <mxCell id="yRi5o2NJnJKDBN_EiBJa-8" value="" style="edgeStyle=orthogonalEdgeStyle;rounded=0;orthogonalLoop=1;jettySize=auto;html=1;" parent="yRi5o2NJnJKDBN_EiBJa-29" source="yRi5o2NJnJKDBN_EiBJa-4" target="yRi5o2NJnJKDBN_EiBJa-7" edge="1">
          <mxGeometry relative="1" as="geometry" />
        </mxCell>
        <mxCell id="yRi5o2NJnJKDBN_EiBJa-9" value="Yes" style="edgeLabel;html=1;align=center;verticalAlign=middle;resizable=0;points=[];container=0;" parent="yRi5o2NJnJKDBN_EiBJa-8" vertex="1" connectable="0">
          <mxGeometry x="-0.2333" y="1" relative="1" as="geometry">
            <mxPoint as="offset" />
          </mxGeometry>
        </mxCell>
        <mxCell id="yRi5o2NJnJKDBN_EiBJa-15" value="" style="edgeStyle=orthogonalEdgeStyle;rounded=0;orthogonalLoop=1;jettySize=auto;html=1;" parent="yRi5o2NJnJKDBN_EiBJa-29" source="yRi5o2NJnJKDBN_EiBJa-4" target="yRi5o2NJnJKDBN_EiBJa-14" edge="1">
          <mxGeometry relative="1" as="geometry" />
        </mxCell>
        <mxCell id="yRi5o2NJnJKDBN_EiBJa-26" value="No" style="edgeLabel;html=1;align=center;verticalAlign=middle;resizable=0;points=[];" parent="yRi5o2NJnJKDBN_EiBJa-15" vertex="1" connectable="0">
          <mxGeometry x="-0.3899" y="3" relative="1" as="geometry">
            <mxPoint y="-1" as="offset" />
          </mxGeometry>
        </mxCell>
        <mxCell id="yRi5o2NJnJKDBN_EiBJa-4" value="Valid ARP Mapping?" style="rhombus;whiteSpace=wrap;html=1;rounded=0;container=0;" parent="yRi5o2NJnJKDBN_EiBJa-29" vertex="1">
          <mxGeometry x="101.125" y="301.3324808184143" width="80.50000000000001" height="77.13554987212277" as="geometry" />
        </mxCell>
        <mxCell id="yRi5o2NJnJKDBN_EiBJa-11" value="" style="edgeStyle=orthogonalEdgeStyle;rounded=0;orthogonalLoop=1;jettySize=auto;html=1;" parent="yRi5o2NJnJKDBN_EiBJa-29" source="yRi5o2NJnJKDBN_EiBJa-7" target="yRi5o2NJnJKDBN_EiBJa-10" edge="1">
          <mxGeometry relative="1" as="geometry" />
        </mxCell>
        <mxCell id="yRi5o2NJnJKDBN_EiBJa-7" value="&lt;p&gt;Build Ethernet Frame&lt;br&gt;eth_type = 0x0800&lt;/p&gt;" style="whiteSpace=wrap;html=1;rounded=0;container=0;" parent="yRi5o2NJnJKDBN_EiBJa-29" vertex="1">
          <mxGeometry x="242.00000000000003" y="310.97442455242964" width="120.74999999999999" height="57.85166240409206" as="geometry" />
        </mxCell>
        <mxCell id="yRi5o2NJnJKDBN_EiBJa-13" value="" style="edgeStyle=orthogonalEdgeStyle;rounded=0;orthogonalLoop=1;jettySize=auto;html=1;" parent="yRi5o2NJnJKDBN_EiBJa-29" source="yRi5o2NJnJKDBN_EiBJa-10" target="yRi5o2NJnJKDBN_EiBJa-12" edge="1">
          <mxGeometry relative="1" as="geometry" />
        </mxCell>
        <mxCell id="yRi5o2NJnJKDBN_EiBJa-10" value="&lt;p&gt;Flatten Payload and Push to xgmii_exp&lt;/p&gt;" style="whiteSpace=wrap;html=1;rounded=0;container=0;" parent="yRi5o2NJnJKDBN_EiBJa-29" vertex="1">
          <mxGeometry x="242.00000000000003" y="445.9616368286445" width="120.74999999999999" height="57.85166240409206" as="geometry" />
        </mxCell>
        <mxCell id="yRi5o2NJnJKDBN_EiBJa-24" value="" style="edgeStyle=orthogonalEdgeStyle;rounded=0;orthogonalLoop=1;jettySize=auto;html=1;" parent="yRi5o2NJnJKDBN_EiBJa-29" source="yRi5o2NJnJKDBN_EiBJa-12" target="yRi5o2NJnJKDBN_EiBJa-23" edge="1">
          <mxGeometry relative="1" as="geometry" />
        </mxCell>
        <mxCell id="yRi5o2NJnJKDBN_EiBJa-12" value="&lt;p&gt;Log Expected Packet Info&lt;/p&gt;" style="whiteSpace=wrap;html=1;rounded=0;container=0;" parent="yRi5o2NJnJKDBN_EiBJa-29" vertex="1">
          <mxGeometry x="242.00000000000003" y="580.9488491048593" width="120.74999999999999" height="57.85166240409206" as="geometry" />
        </mxCell>
        <mxCell id="yRi5o2NJnJKDBN_EiBJa-17" value="" style="edgeStyle=orthogonalEdgeStyle;rounded=0;orthogonalLoop=1;jettySize=auto;html=1;" parent="yRi5o2NJnJKDBN_EiBJa-29" source="yRi5o2NJnJKDBN_EiBJa-14" target="yRi5o2NJnJKDBN_EiBJa-16" edge="1">
          <mxGeometry relative="1" as="geometry" />
        </mxCell>
        <mxCell id="yRi5o2NJnJKDBN_EiBJa-14" value="&lt;p&gt;Send ARP Request&lt;br&gt;eth_type = 0x0806&lt;/p&gt;" style="whiteSpace=wrap;html=1;rounded=0;container=0;" parent="yRi5o2NJnJKDBN_EiBJa-29" vertex="1">
          <mxGeometry x="81" y="465.2455242966752" width="120.74999999999999" height="57.85166240409206" as="geometry" />
        </mxCell>
        <mxCell id="yRi5o2NJnJKDBN_EiBJa-19" value="" style="edgeStyle=orthogonalEdgeStyle;rounded=0;orthogonalLoop=1;jettySize=auto;html=1;" parent="yRi5o2NJnJKDBN_EiBJa-29" source="yRi5o2NJnJKDBN_EiBJa-16" target="yRi5o2NJnJKDBN_EiBJa-18" edge="1">
          <mxGeometry relative="1" as="geometry" />
        </mxCell>
        <mxCell id="yRi5o2NJnJKDBN_EiBJa-16" value="&lt;p&gt;Add ARP Entry&lt;br&gt;invalid, req=1&lt;/p&gt;" style="whiteSpace=wrap;html=1;rounded=0;container=0;" parent="yRi5o2NJnJKDBN_EiBJa-29" vertex="1">
          <mxGeometry x="81" y="600.23273657289" width="120.74999999999999" height="57.85166240409206" as="geometry" />
        </mxCell>
        <mxCell id="yRi5o2NJnJKDBN_EiBJa-21" value="" style="edgeStyle=orthogonalEdgeStyle;rounded=0;orthogonalLoop=1;jettySize=auto;html=1;" parent="yRi5o2NJnJKDBN_EiBJa-29" source="yRi5o2NJnJKDBN_EiBJa-18" target="yRi5o2NJnJKDBN_EiBJa-20" edge="1">
          <mxGeometry relative="1" as="geometry" />
        </mxCell>
        <mxCell id="yRi5o2NJnJKDBN_EiBJa-18" value="&lt;p&gt;Create Pending XGMII Packet for Later UDP Send&lt;/p&gt;" style="whiteSpace=wrap;html=1;rounded=0;container=0;" parent="yRi5o2NJnJKDBN_EiBJa-29" vertex="1">
          <mxGeometry x="81" y="735.2199488491048" width="120.74999999999999" height="57.85166240409206" as="geometry" />
        </mxCell>
        <mxCell id="yRi5o2NJnJKDBN_EiBJa-22" style="edgeStyle=orthogonalEdgeStyle;rounded=0;orthogonalLoop=1;jettySize=auto;html=1;entryX=0.5;entryY=1;entryDx=0;entryDy=0;" parent="yRi5o2NJnJKDBN_EiBJa-29" source="yRi5o2NJnJKDBN_EiBJa-20" target="yRi5o2NJnJKDBN_EiBJa-12" edge="1">
          <mxGeometry relative="1" as="geometry" />
        </mxCell>
        <mxCell id="yRi5o2NJnJKDBN_EiBJa-20" value="&lt;p&gt;Flatten Payload and Push ARP + Pending to xgmii_exp&lt;/p&gt;" style="whiteSpace=wrap;html=1;rounded=0;container=0;" parent="yRi5o2NJnJKDBN_EiBJa-29" vertex="1">
          <mxGeometry x="242.00000000000003" y="737.1483375959078" width="120.74999999999999" height="57.85166240409206" as="geometry" />
        </mxCell>
        <mxCell id="yRi5o2NJnJKDBN_EiBJa-23" value="END" style="whiteSpace=wrap;html=1;rounded=0;container=0;" parent="yRi5o2NJnJKDBN_EiBJa-29" vertex="1">
          <mxGeometry x="443.25000000000006" y="580.9488491048593" width="120.74999999999999" height="57.85166240409206" as="geometry" />
        </mxCell>
        <mxCell id="yRi5o2NJnJKDBN_EiBJa-28" value="&lt;h1 style=&quot;margin-top: 0px;&quot;&gt;Expected XGMII&lt;/h1&gt;" style="text;html=1;whiteSpace=wrap;overflow=hidden;rounded=0;" parent="yRi5o2NJnJKDBN_EiBJa-29" vertex="1">
          <mxGeometry x="187" y="3" width="249" height="45" as="geometry" />
        </mxCell>
        <mxCell id="yRi5o2NJnJKDBN_EiBJa-41" value="" style="group" parent="1" vertex="1" connectable="0">
          <mxGeometry x="649" y="15" width="354" height="818" as="geometry" />
        </mxCell>
        <mxCell id="yRi5o2NJnJKDBN_EiBJa-40" value="" style="rounded=0;whiteSpace=wrap;html=1;align=center;verticalAlign=top;fontFamily=Helvetica;fontSize=12;labelBackgroundColor=default;" parent="yRi5o2NJnJKDBN_EiBJa-41" vertex="1">
          <mxGeometry width="354" height="818" as="geometry" />
        </mxCell>
        <mxCell id="yRi5o2NJnJKDBN_EiBJa-39" value="" style="shape=image;verticalLabelPosition=bottom;labelBackgroundColor=default;verticalAlign=top;aspect=fixed;imageAspect=0;editableCssRules=.*;image=data:image/svg+xml,PHN2ZyB4bWxucz0iaHR0cDovL3d3dy53My5vcmcvMjAwMC9zdmciIHhtbG5zOnhsaW5rPSJodHRwOi8vd3d3LnczLm9yZy8xOTk5L3hsaW5rIiBoZWlnaHQ9IjE2MDguNDc0OTc1NTg1OTM3NSIgYXJpYS1yb2xlZGVzY3JpcHRpb249ImZsb3djaGFydC12MiIgcm9sZT0iZ3JhcGhpY3MtZG9jdW1lbnQgZG9jdW1lbnQiIHZpZXdCb3g9IjggOCA3MjEuMTA2MjYyMjA3MDMxMiAxNjA4LjQ3NDk3NTU4NTkzNzUiIHN0eWxlPSJtYXgtd2lkdGg6IDEwMCU7IiBjbGFzcz0iZmxvd2NoYXJ0IiB3aWR0aD0iNzIxLjEwNjI2MjIwNzAzMTIiIGlkPSJtZXJtYWlkLXN2Zy02MiI+PHN0eWxlPiNtZXJtYWlkLXN2Zy02Mntmb250LWZhbWlseToidHJlYnVjaGV0IG1zIix2ZXJkYW5hLGFyaWFsLHNhbnMtc2VyaWY7Zm9udC1zaXplOjE2cHg7ZmlsbDojY2NjO31Aa2V5ZnJhbWVzIGVkZ2UtYW5pbWF0aW9uLWZyYW1le2Zyb217c3Ryb2tlLWRhc2hvZmZzZXQ6MDt9fUBrZXlmcmFtZXMgZGFzaHt0b3tzdHJva2UtZGFzaG9mZnNldDowO319I21lcm1haWQtc3ZnLTYyIC5lZGdlLWFuaW1hdGlvbi1zbG93e3N0cm9rZS1kYXNoYXJyYXk6OSw1IWltcG9ydGFudDtzdHJva2UtZGFzaG9mZnNldDo5MDA7YW5pbWF0aW9uOmRhc2ggNTBzIGxpbmVhciBpbmZpbml0ZTtzdHJva2UtbGluZWNhcDpyb3VuZDt9I21lcm1haWQtc3ZnLTYyIC5lZGdlLWFuaW1hdGlvbi1mYXN0e3N0cm9rZS1kYXNoYXJyYXk6OSw1IWltcG9ydGFudDtzdHJva2UtZGFzaG9mZnNldDo5MDA7YW5pbWF0aW9uOmRhc2ggMjBzIGxpbmVhciBpbmZpbml0ZTtzdHJva2UtbGluZWNhcDpyb3VuZDt9I21lcm1haWQtc3ZnLTYyIC5lcnJvci1pY29ue2ZpbGw6I2E0NDE0MTt9I21lcm1haWQtc3ZnLTYyIC5lcnJvci10ZXh0e2ZpbGw6I2RkZDtzdHJva2U6I2RkZDt9I21lcm1haWQtc3ZnLTYyIC5lZGdlLXRoaWNrbmVzcy1ub3JtYWx7c3Ryb2tlLXdpZHRoOjFweDt9I21lcm1haWQtc3ZnLTYyIC5lZGdlLXRoaWNrbmVzcy10aGlja3tzdHJva2Utd2lkdGg6My41cHg7fSNtZXJtYWlkLXN2Zy02MiAuZWRnZS1wYXR0ZXJuLXNvbGlke3N0cm9rZS1kYXNoYXJyYXk6MDt9I21lcm1haWQtc3ZnLTYyIC5lZGdlLXRoaWNrbmVzcy1pbnZpc2libGV7c3Ryb2tlLXdpZHRoOjA7ZmlsbDpub25lO30jbWVybWFpZC1zdmctNjIgLmVkZ2UtcGF0dGVybi1kYXNoZWR7c3Ryb2tlLWRhc2hhcnJheTozO30jbWVybWFpZC1zdmctNjIgLmVkZ2UtcGF0dGVybi1kb3R0ZWR7c3Ryb2tlLWRhc2hhcnJheToyO30jbWVybWFpZC1zdmctNjIgLm1hcmtlcntmaWxsOmxpZ2h0Z3JleTtzdHJva2U6bGlnaHRncmV5O30jbWVybWFpZC1zdmctNjIgLm1hcmtlci5jcm9zc3tzdHJva2U6bGlnaHRncmV5O30jbWVybWFpZC1zdmctNjIgc3Zne2ZvbnQtZmFtaWx5OiJ0cmVidWNoZXQgbXMiLHZlcmRhbmEsYXJpYWwsc2Fucy1zZXJpZjtmb250LXNpemU6MTZweDt9I21lcm1haWQtc3ZnLTYyIHB7bWFyZ2luOjA7fSNtZXJtYWlkLXN2Zy02MiAubGFiZWx7Zm9udC1mYW1pbHk6InRyZWJ1Y2hldCBtcyIsdmVyZGFuYSxhcmlhbCxzYW5zLXNlcmlmO2NvbG9yOiNjY2M7fSNtZXJtYWlkLXN2Zy02MiAuY2x1c3Rlci1sYWJlbCB0ZXh0e2ZpbGw6I0Y5RkZGRTt9I21lcm1haWQtc3ZnLTYyIC5jbHVzdGVyLWxhYmVsIHNwYW57Y29sb3I6I0Y5RkZGRTt9I21lcm1haWQtc3ZnLTYyIC5jbHVzdGVyLWxhYmVsIHNwYW4gcHtiYWNrZ3JvdW5kLWNvbG9yOnRyYW5zcGFyZW50O30jbWVybWFpZC1zdmctNjIgLmxhYmVsIHRleHQsI21lcm1haWQtc3ZnLTYyIHNwYW57ZmlsbDojY2NjO2NvbG9yOiNjY2M7fSNtZXJtYWlkLXN2Zy02MiAubm9kZSByZWN0LCNtZXJtYWlkLXN2Zy02MiAubm9kZSBjaXJjbGUsI21lcm1haWQtc3ZnLTYyIC5ub2RlIGVsbGlwc2UsI21lcm1haWQtc3ZnLTYyIC5ub2RlIHBvbHlnb24sI21lcm1haWQtc3ZnLTYyIC5ub2RlIHBhdGh7ZmlsbDojMWYyMDIwO3N0cm9rZTojY2NjO3N0cm9rZS13aWR0aDoxcHg7fSNtZXJtYWlkLXN2Zy02MiAucm91Z2gtbm9kZSAubGFiZWwgdGV4dCwjbWVybWFpZC1zdmctNjIgLm5vZGUgLmxhYmVsIHRleHQsI21lcm1haWQtc3ZnLTYyIC5pbWFnZS1zaGFwZSAubGFiZWwsI21lcm1haWQtc3ZnLTYyIC5pY29uLXNoYXBlIC5sYWJlbHt0ZXh0LWFuY2hvcjptaWRkbGU7fSNtZXJtYWlkLXN2Zy02MiAubm9kZSAua2F0ZXggcGF0aHtmaWxsOiMwMDA7c3Ryb2tlOiMwMDA7c3Ryb2tlLXdpZHRoOjFweDt9I21lcm1haWQtc3ZnLTYyIC5yb3VnaC1ub2RlIC5sYWJlbCwjbWVybWFpZC1zdmctNjIgLm5vZGUgLmxhYmVsLCNtZXJtYWlkLXN2Zy02MiAuaW1hZ2Utc2hhcGUgLmxhYmVsLCNtZXJtYWlkLXN2Zy02MiAuaWNvbi1zaGFwZSAubGFiZWx7dGV4dC1hbGlnbjpjZW50ZXI7fSNtZXJtYWlkLXN2Zy02MiAubm9kZS5jbGlja2FibGV7Y3Vyc29yOnBvaW50ZXI7fSNtZXJtYWlkLXN2Zy02MiAucm9vdCAuYW5jaG9yIHBhdGh7ZmlsbDpsaWdodGdyZXkhaW1wb3J0YW50O3N0cm9rZS13aWR0aDowO3N0cm9rZTpsaWdodGdyZXk7fSNtZXJtYWlkLXN2Zy02MiAuYXJyb3doZWFkUGF0aHtmaWxsOmxpZ2h0Z3JleTt9I21lcm1haWQtc3ZnLTYyIC5lZGdlUGF0aCAucGF0aHtzdHJva2U6bGlnaHRncmV5O3N0cm9rZS13aWR0aDoyLjBweDt9I21lcm1haWQtc3ZnLTYyIC5mbG93Y2hhcnQtbGlua3tzdHJva2U6bGlnaHRncmV5O2ZpbGw6bm9uZTt9I21lcm1haWQtc3ZnLTYyIC5lZGdlTGFiZWx7YmFja2dyb3VuZC1jb2xvcjpoc2woMCwgMCUsIDM0LjQxMTc2NDcwNTklKTt0ZXh0LWFsaWduOmNlbnRlcjt9I21lcm1haWQtc3ZnLTYyIC5lZGdlTGFiZWwgcHtiYWNrZ3JvdW5kLWNvbG9yOmhzbCgwLCAwJSwgMzQuNDExNzY0NzA1OSUpO30jbWVybWFpZC1zdmctNjIgLmVkZ2VMYWJlbCByZWN0e29wYWNpdHk6MC41O2JhY2tncm91bmQtY29sb3I6aHNsKDAsIDAlLCAzNC40MTE3NjQ3MDU5JSk7ZmlsbDpoc2woMCwgMCUsIDM0LjQxMTc2NDcwNTklKTt9I21lcm1haWQtc3ZnLTYyIC5sYWJlbEJrZ3tiYWNrZ3JvdW5kLWNvbG9yOnJnYmEoODcuNzUsIDg3Ljc1LCA4Ny43NSwgMC41KTt9I21lcm1haWQtc3ZnLTYyIC5jbHVzdGVyIHJlY3R7ZmlsbDpoc2woMTgwLCAxLjU4NzMwMTU4NzMlLCAyOC4zNTI5NDExNzY1JSk7c3Ryb2tlOnJnYmEoMjU1LCAyNTUsIDI1NSwgMC4yNSk7c3Ryb2tlLXdpZHRoOjFweDt9I21lcm1haWQtc3ZnLTYyIC5jbHVzdGVyIHRleHR7ZmlsbDojRjlGRkZFO30jbWVybWFpZC1zdmctNjIgLmNsdXN0ZXIgc3Bhbntjb2xvcjojRjlGRkZFO30jbWVybWFpZC1zdmctNjIgZGl2Lm1lcm1haWRUb29sdGlwe3Bvc2l0aW9uOmFic29sdXRlO3RleHQtYWxpZ246Y2VudGVyO21heC13aWR0aDoyMDBweDtwYWRkaW5nOjJweDtmb250LWZhbWlseToidHJlYnVjaGV0IG1zIix2ZXJkYW5hLGFyaWFsLHNhbnMtc2VyaWY7Zm9udC1zaXplOjEycHg7YmFja2dyb3VuZDpoc2woMjAsIDEuNTg3MzAxNTg3MyUsIDEyLjM1Mjk0MTE3NjUlKTtib3JkZXI6MXB4IHNvbGlkIHJnYmEoMjU1LCAyNTUsIDI1NSwgMC4yNSk7Ym9yZGVyLXJhZGl1czoycHg7cG9pbnRlci1ldmVudHM6bm9uZTt6LWluZGV4OjEwMDt9I21lcm1haWQtc3ZnLTYyIC5mbG93Y2hhcnRUaXRsZVRleHR7dGV4dC1hbmNob3I6bWlkZGxlO2ZvbnQtc2l6ZToxOHB4O2ZpbGw6I2NjYzt9I21lcm1haWQtc3ZnLTYyIHJlY3QudGV4dHtmaWxsOm5vbmU7c3Ryb2tlLXdpZHRoOjA7fSNtZXJtYWlkLXN2Zy02MiAuaWNvbi1zaGFwZSwjbWVybWFpZC1zdmctNjIgLmltYWdlLXNoYXBle2JhY2tncm91bmQtY29sb3I6aHNsKDAsIDAlLCAzNC40MTE3NjQ3MDU5JSk7dGV4dC1hbGlnbjpjZW50ZXI7fSNtZXJtYWlkLXN2Zy02MiAuaWNvbi1zaGFwZSBwLCNtZXJtYWlkLXN2Zy02MiAuaW1hZ2Utc2hhcGUgcHtiYWNrZ3JvdW5kLWNvbG9yOmhzbCgwLCAwJSwgMzQuNDExNzY0NzA1OSUpO3BhZGRpbmc6MnB4O30jbWVybWFpZC1zdmctNjIgLmljb24tc2hhcGUgcmVjdCwjbWVybWFpZC1zdmctNjIgLmltYWdlLXNoYXBlIHJlY3R7b3BhY2l0eTowLjU7YmFja2dyb3VuZC1jb2xvcjpoc2woMCwgMCUsIDM0LjQxMTc2NDcwNTklKTtmaWxsOmhzbCgwLCAwJSwgMzQuNDExNzY0NzA1OSUpO30jbWVybWFpZC1zdmctNjIgLmxhYmVsLWljb257ZGlzcGxheTppbmxpbmUtYmxvY2s7aGVpZ2h0OjFlbTtvdmVyZmxvdzp2aXNpYmxlO3ZlcnRpY2FsLWFsaWduOi0wLjEyNWVtO30jbWVybWFpZC1zdmctNjIgLm5vZGUgLmxhYmVsLWljb24gcGF0aHtmaWxsOmN1cnJlbnRDb2xvcjtzdHJva2U6cmV2ZXJ0O3N0cm9rZS13aWR0aDpyZXZlcnQ7fSNtZXJtYWlkLXN2Zy02MiA6cm9vdHstLW1lcm1haWQtZm9udC1mYW1pbHk6InRyZWJ1Y2hldCBtcyIsdmVyZGFuYSxhcmlhbCxzYW5zLXNlcmlmO308L3N0eWxlPjxnPjxtYXJrZXIgb3JpZW50PSJhdXRvIiBtYXJrZXJIZWlnaHQ9IjgiIG1hcmtlcldpZHRoPSI4IiBtYXJrZXJVbml0cz0idXNlclNwYWNlT25Vc2UiIHJlZlk9IjUiIHJlZlg9IjUiIHZpZXdCb3g9IjAgMCAxMCAxMCIgY2xhc3M9Im1hcmtlciBmbG93Y2hhcnQtdjIiIGlkPSJtZXJtYWlkLXN2Zy02Ml9mbG93Y2hhcnQtdjItcG9pbnRFbmQiPjxwYXRoIHN0eWxlPSJzdHJva2Utd2lkdGg6IDE7IHN0cm9rZS1kYXNoYXJyYXk6IDEsIDA7IiBjbGFzcz0iYXJyb3dNYXJrZXJQYXRoIiBkPSJNIDAgMCBMIDEwIDUgTCAwIDEwIHoiLz48L21hcmtlcj48bWFya2VyIG9yaWVudD0iYXV0byIgbWFya2VySGVpZ2h0PSI4IiBtYXJrZXJXaWR0aD0iOCIgbWFya2VyVW5pdHM9InVzZXJTcGFjZU9uVXNlIiByZWZZPSI1IiByZWZYPSI0LjUiIHZpZXdCb3g9IjAgMCAxMCAxMCIgY2xhc3M9Im1hcmtlciBmbG93Y2hhcnQtdjIiIGlkPSJtZXJtYWlkLXN2Zy02Ml9mbG93Y2hhcnQtdjItcG9pbnRTdGFydCI+PHBhdGggc3R5bGU9InN0cm9rZS13aWR0aDogMTsgc3Ryb2tlLWRhc2hhcnJheTogMSwgMDsiIGNsYXNzPSJhcnJvd01hcmtlclBhdGgiIGQ9Ik0gMCA1IEwgMTAgMTAgTCAxMCAwIHoiLz48L21hcmtlcj48bWFya2VyIG9yaWVudD0iYXV0byIgbWFya2VySGVpZ2h0PSIxMSIgbWFya2VyV2lkdGg9IjExIiBtYXJrZXJVbml0cz0idXNlclNwYWNlT25Vc2UiIHJlZlk9IjUiIHJlZlg9IjExIiB2aWV3Qm94PSIwIDAgMTAgMTAiIGNsYXNzPSJtYXJrZXIgZmxvd2NoYXJ0LXYyIiBpZD0ibWVybWFpZC1zdmctNjJfZmxvd2NoYXJ0LXYyLWNpcmNsZUVuZCI+PGNpcmNsZSBzdHlsZT0ic3Ryb2tlLXdpZHRoOiAxOyBzdHJva2UtZGFzaGFycmF5OiAxLCAwOyIgY2xhc3M9ImFycm93TWFya2VyUGF0aCIgcj0iNSIgY3k9IjUiIGN4PSI1Ii8+PC9tYXJrZXI+PG1hcmtlciBvcmllbnQ9ImF1dG8iIG1hcmtlckhlaWdodD0iMTEiIG1hcmtlcldpZHRoPSIxMSIgbWFya2VyVW5pdHM9InVzZXJTcGFjZU9uVXNlIiByZWZZPSI1IiByZWZYPSItMSIgdmlld0JveD0iMCAwIDEwIDEwIiBjbGFzcz0ibWFya2VyIGZsb3djaGFydC12MiIgaWQ9Im1lcm1haWQtc3ZnLTYyX2Zsb3djaGFydC12Mi1jaXJjbGVTdGFydCI+PGNpcmNsZSBzdHlsZT0ic3Ryb2tlLXdpZHRoOiAxOyBzdHJva2UtZGFzaGFycmF5OiAxLCAwOyIgY2xhc3M9ImFycm93TWFya2VyUGF0aCIgcj0iNSIgY3k9IjUiIGN4PSI1Ii8+PC9tYXJrZXI+PG1hcmtlciBvcmllbnQ9ImF1dG8iIG1hcmtlckhlaWdodD0iMTEiIG1hcmtlcldpZHRoPSIxMSIgbWFya2VyVW5pdHM9InVzZXJTcGFjZU9uVXNlIiByZWZZPSI1LjIiIHJlZlg9IjEyIiB2aWV3Qm94PSIwIDAgMTEgMTEiIGNsYXNzPSJtYXJrZXIgY3Jvc3MgZmxvd2NoYXJ0LXYyIiBpZD0ibWVybWFpZC1zdmctNjJfZmxvd2NoYXJ0LXYyLWNyb3NzRW5kIj48cGF0aCBzdHlsZT0ic3Ryb2tlLXdpZHRoOiAyOyBzdHJva2UtZGFzaGFycmF5OiAxLCAwOyIgY2xhc3M9ImFycm93TWFya2VyUGF0aCIgZD0iTSAxLDEgbCA5LDkgTSAxMCwxIGwgLTksOSIvPjwvbWFya2VyPjxtYXJrZXIgb3JpZW50PSJhdXRvIiBtYXJrZXJIZWlnaHQ9IjExIiBtYXJrZXJXaWR0aD0iMTEiIG1hcmtlclVuaXRzPSJ1c2VyU3BhY2VPblVzZSIgcmVmWT0iNS4yIiByZWZYPSItMSIgdmlld0JveD0iMCAwIDExIDExIiBjbGFzcz0ibWFya2VyIGNyb3NzIGZsb3djaGFydC12MiIgaWQ9Im1lcm1haWQtc3ZnLTYyX2Zsb3djaGFydC12Mi1jcm9zc1N0YXJ0Ij48cGF0aCBzdHlsZT0ic3Ryb2tlLXdpZHRoOiAyOyBzdHJva2UtZGFzaGFycmF5OiAxLCAwOyIgY2xhc3M9ImFycm93TWFya2VyUGF0aCIgZD0iTSAxLDEgbCA5LDkgTSAxMCwxIGwgLTksOSIvPjwvbWFya2VyPjxnIGNsYXNzPSJyb290Ij48ZyBjbGFzcz0iY2x1c3RlcnMiLz48ZyBjbGFzcz0iZWRnZVBhdGhzIj48cGF0aCBtYXJrZXItZW5kPSJ1cmwoI21lcm1haWQtc3ZnLTYyX2Zsb3djaGFydC12Mi1wb2ludEVuZCkiIHN0eWxlPSIiIGNsYXNzPSJlZGdlLXRoaWNrbmVzcy1ub3JtYWwgZWRnZS1wYXR0ZXJuLXNvbGlkIGVkZ2UtdGhpY2tuZXNzLW5vcm1hbCBlZGdlLXBhdHRlcm4tc29saWQgZmxvd2NoYXJ0LWxpbmsiIGlkPSJMX0FfQl8wIiBkPSJNMjkzLDg2TDI5Myw5MC4xNjdDMjkzLDk0LjMzMywyOTMsMTAyLjY2NywyOTMsMTEwLjMzM0MyOTMsMTE4LDI5MywxMjUsMjkzLDEyOC41TDI5MywxMzIiLz48cGF0aCBtYXJrZXItZW5kPSJ1cmwoI21lcm1haWQtc3ZnLTYyX2Zsb3djaGFydC12Mi1wb2ludEVuZCkiIHN0eWxlPSIiIGNsYXNzPSJlZGdlLXRoaWNrbmVzcy1ub3JtYWwgZWRnZS1wYXR0ZXJuLXNvbGlkIGVkZ2UtdGhpY2tuZXNzLW5vcm1hbCBlZGdlLXBhdHRlcm4tc29saWQgZmxvd2NoYXJ0LWxpbmsiIGlkPSJMX0JfQ18wIiBkPSJNMjkzLDE5MEwyOTMsMTk0LjE2N0MyOTMsMTk4LjMzMywyOTMsMjA2LjY2NywyOTMsMjE0LjMzM0MyOTMsMjIyLDI5MywyMjksMjkzLDIzMi41TDI5MywyMzYiLz48cGF0aCBtYXJrZXItZW5kPSJ1cmwoI21lcm1haWQtc3ZnLTYyX2Zsb3djaGFydC12Mi1wb2ludEVuZCkiIHN0eWxlPSIiIGNsYXNzPSJlZGdlLXRoaWNrbmVzcy1ub3JtYWwgZWRnZS1wYXR0ZXJuLXNvbGlkIGVkZ2UtdGhpY2tuZXNzLW5vcm1hbCBlZGdlLXBhdHRlcm4tc29saWQgZmxvd2NoYXJ0LWxpbmsiIGlkPSJMX0NfRF8wIiBkPSJNMjkzLDM0MkwyOTMsMzQ2LjE2N0MyOTMsMzUwLjMzMywyOTMsMzU4LjY2NywyOTMuMDcsMzY2LjQxN0MyOTMuMTQxLDM3NC4xNjcsMjkzLjI4MSwzODEuMzM0LDI5My4zNTEsMzg0LjkxN0wyOTMuNDIyLDM4OC41MDEiLz48cGF0aCBtYXJrZXItZW5kPSJ1cmwoI21lcm1haWQtc3ZnLTYyX2Zsb3djaGFydC12Mi1wb2ludEVuZCkiIHN0eWxlPSIiIGNsYXNzPSJlZGdlLXRoaWNrbmVzcy1ub3JtYWwgZWRnZS1wYXR0ZXJuLXNvbGlkIGVkZ2UtdGhpY2tuZXNzLW5vcm1hbCBlZGdlLXBhdHRlcm4tc29saWQgZmxvd2NoYXJ0LWxpbmsiIGlkPSJMX0RfRV8wIiBkPSJNMjM2Ljg5OCw1NTYuNzg2TDIyMC40MTUsNTcyLjMwM0MyMDMuOTMyLDU4Ny44MiwxNzAuOTY2LDYxOC44NTQsMTU0LjQ4Myw2MzkuODcxQzEzOCw2NjAuODg3LDEzOCw2NzEuODg3LDEzOCw2NzcuMzg3TDEzOCw2ODIuODg3Ii8+PHBhdGggbWFya2VyLWVuZD0idXJsKCNtZXJtYWlkLXN2Zy02Ml9mbG93Y2hhcnQtdjItcG9pbnRFbmQpIiBzdHlsZT0iIiBjbGFzcz0iZWRnZS10aGlja25lc3Mtbm9ybWFsIGVkZ2UtcGF0dGVybi1zb2xpZCBlZGdlLXRoaWNrbmVzcy1ub3JtYWwgZWRnZS1wYXR0ZXJuLXNvbGlkIGZsb3djaGFydC1saW5rIiBpZD0iTF9FX0ZfMCIgZD0iTTEzOCw3NjQuODg3TDEzOCw3NjkuMDU0QzEzOCw3NzMuMjIxLDEzOCw3ODEuNTU0LDEzOCw3ODkuMjIxQzEzOCw3OTYuODg3LDEzOCw4MDMuODg3LDEzOCw4MDcuMzg3TDEzOCw4MTAuODg3Ii8+PHBhdGggbWFya2VyLWVuZD0idXJsKCNtZXJtYWlkLXN2Zy02Ml9mbG93Y2hhcnQtdjItcG9pbnRFbmQpIiBzdHlsZT0iIiBjbGFzcz0iZWRnZS10aGlja25lc3Mtbm9ybWFsIGVkZ2UtcGF0dGVybi1zb2xpZCBlZGdlLXRoaWNrbmVzcy1ub3JtYWwgZWRnZS1wYXR0ZXJuLXNvbGlkIGZsb3djaGFydC1saW5rIiBpZD0iTF9GX0dfMCIgZD0iTTEzOCw4OTIuODg3TDEzOCw4OTcuMDU0QzEzOCw5MDEuMjIxLDEzOCw5MDkuNTU0LDEzOCw5MTkuMjIxQzEzOCw5MjguODg3LDEzOCw5MzkuODg3LDEzOCw5NDUuMzg3TDEzOCw5NTAuODg3Ii8+PHBhdGggbWFya2VyLWVuZD0idXJsKCNtZXJtYWlkLXN2Zy02Ml9mbG93Y2hhcnQtdjItcG9pbnRFbmQpIiBzdHlsZT0iIiBjbGFzcz0iZWRnZS10aGlja25lc3Mtbm9ybWFsIGVkZ2UtcGF0dGVybi1zb2xpZCBlZGdlLXRoaWNrbmVzcy1ub3JtYWwgZWRnZS1wYXR0ZXJuLXNvbGlkIGZsb3djaGFydC1saW5rIiBpZD0iTF9EX0hfMCIgZD0iTTM1MC4xMDIsNTU2Ljc4NkwzNjYuNDE4LDU3Mi4zMDNDMzgyLjczNCw1ODcuODIsNDE1LjM2Nyw2MTguODU0LDQzMS42ODQsNjM5Ljg3MUM0NDgsNjYwLjg4Nyw0NDgsNjcxLjg4Nyw0NDgsNjc3LjM4N0w0NDgsNjgyLjg4NyIvPjxwYXRoIG1hcmtlci1lbmQ9InVybCgjbWVybWFpZC1zdmctNjJfZmxvd2NoYXJ0LXYyLXBvaW50RW5kKSIgc3R5bGU9IiIgY2xhc3M9ImVkZ2UtdGhpY2tuZXNzLW5vcm1hbCBlZGdlLXBhdHRlcm4tc29saWQgZWRnZS10aGlja25lc3Mtbm9ybWFsIGVkZ2UtcGF0dGVybi1zb2xpZCBmbG93Y2hhcnQtbGluayIgaWQ9IkxfSF9JXzAiIGQ9Ik00NDgsNzY0Ljg4N0w0NDgsNzY5LjA1NEM0NDgsNzczLjIyMSw0NDgsNzgxLjU1NCw0NDgsNzg5LjIyMUM0NDgsNzk2Ljg4Nyw0NDgsODAzLjg4Nyw0NDgsODA3LjM4N0w0NDgsODEwLjg4NyIvPjxwYXRoIG1hcmtlci1lbmQ9InVybCgjbWVybWFpZC1zdmctNjJfZmxvd2NoYXJ0LXYyLXBvaW50RW5kKSIgc3R5bGU9IiIgY2xhc3M9ImVkZ2UtdGhpY2tuZXNzLW5vcm1hbCBlZGdlLXBhdHRlcm4tc29saWQgZWRnZS10aGlja25lc3Mtbm9ybWFsIGVkZ2UtcGF0dGVybi1zb2xpZCBmbG93Y2hhcnQtbGluayIgaWQ9IkxfSV9KXzAiIGQ9Ik00NDgsODkyLjg4N0w0NDgsODk3LjA1NEM0NDgsOTAxLjIyMSw0NDgsOTA5LjU1NCw0NDgsOTE3LjIyMUM0NDgsOTI0Ljg4Nyw0NDgsOTMxLjg4Nyw0NDgsOTM1LjM4N0w0NDgsOTM4Ljg4NyIvPjxwYXRoIG1hcmtlci1lbmQ9InVybCgjbWVybWFpZC1zdmctNjJfZmxvd2NoYXJ0LXYyLXBvaW50RW5kKSIgc3R5bGU9IiIgY2xhc3M9ImVkZ2UtdGhpY2tuZXNzLW5vcm1hbCBlZGdlLXBhdHRlcm4tc29saWQgZWRnZS10aGlja25lc3Mtbm9ybWFsIGVkZ2UtcGF0dGVybi1zb2xpZCBmbG93Y2hhcnQtbGluayIgaWQ9IkxfSl9LXzAiIGQ9Ik00NDgsMTAyMC44ODdMNDQ4LDEwMjUuMDU0QzQ0OCwxMDI5LjIyMSw0NDgsMTAzNy41NTQsNDQ4LjA3LDEwNDUuMzA0QzQ0OC4xNDEsMTA1My4wNTQsNDQ4LjI4MSwxMDYwLjIyMSw0NDguMzUxLDEwNjMuODA1TDQ0OC40MjIsMTA2Ny4zODgiLz48cGF0aCBtYXJrZXItZW5kPSJ1cmwoI21lcm1haWQtc3ZnLTYyX2Zsb3djaGFydC12Mi1wb2ludEVuZCkiIHN0eWxlPSIiIGNsYXNzPSJlZGdlLXRoaWNrbmVzcy1ub3JtYWwgZWRnZS1wYXR0ZXJuLXNvbGlkIGVkZ2UtdGhpY2tuZXNzLW5vcm1hbCBlZGdlLXBhdHRlcm4tc29saWQgZmxvd2NoYXJ0LWxpbmsiIGlkPSJMX0tfTF8wIiBkPSJNNDAzLjA5OSwxMTg3LjU3NEwzODUuMzk4LDEyMDEuMjI0QzM2Ny42OTcsMTIxNC44NzQsMzMyLjI5NSwxMjQyLjE3NSwzMTQuNTk1LDEyNjMuMzI1QzI5Ni44OTQsMTI4NC40NzUsMjk2Ljg5NCwxMjk5LjQ3NSwyOTYuODk0LDEzMDYuOTc1TDI5Ni44OTQsMTMxNC40NzUiLz48cGF0aCBtYXJrZXItZW5kPSJ1cmwoI21lcm1haWQtc3ZnLTYyX2Zsb3djaGFydC12Mi1wb2ludEVuZCkiIHN0eWxlPSIiIGNsYXNzPSJlZGdlLXRoaWNrbmVzcy1ub3JtYWwgZWRnZS1wYXR0ZXJuLXNvbGlkIGVkZ2UtdGhpY2tuZXNzLW5vcm1hbCBlZGdlLXBhdHRlcm4tc29saWQgZmxvd2NoYXJ0LWxpbmsiIGlkPSJMX0xfTV8wIiBkPSJNMjk2Ljg5NCwxMzcyLjQ3NUwyOTYuODk0LDEzNzguNjQyQzI5Ni44OTQsMTM4NC44MDgsMjk2Ljg5NCwxMzk3LjE0MiwyOTYuODk0LDE0MDguODA4QzI5Ni44OTQsMTQyMC40NzUsMjk2Ljg5NCwxNDMxLjQ3NSwyOTYuODk0LDE0MzYuOTc1TDI5Ni44OTQsMTQ0Mi40NzUiLz48cGF0aCBtYXJrZXItZW5kPSJ1cmwoI21lcm1haWQtc3ZnLTYyX2Zsb3djaGFydC12Mi1wb2ludEVuZCkiIHN0eWxlPSIiIGNsYXNzPSJlZGdlLXRoaWNrbmVzcy1ub3JtYWwgZWRnZS1wYXR0ZXJuLXNvbGlkIGVkZ2UtdGhpY2tuZXNzLW5vcm1hbCBlZGdlLXBhdHRlcm4tc29saWQgZmxvd2NoYXJ0LWxpbmsiIGlkPSJMX0tfTl8wIiBkPSJNNDkzLjkwMSwxMTg3LjU3NEw1MTEuNDM2LDEyMDEuMjI0QzUyOC45NywxMjE0Ljg3NCw1NjQuMDM4LDEyNDIuMTc1LDU4MS41NzIsMTI2MS4zMjVDNTk5LjEwNiwxMjgwLjQ3NSw1OTkuMTA2LDEyOTEuNDc1LDU5OS4xMDYsMTI5Ni45NzVMNTk5LjEwNiwxMzAyLjQ3NSIvPjxwYXRoIG1hcmtlci1lbmQ9InVybCgjbWVybWFpZC1zdmctNjJfZmxvd2NoYXJ0LXYyLXBvaW50RW5kKSIgc3R5bGU9IiIgY2xhc3M9ImVkZ2UtdGhpY2tuZXNzLW5vcm1hbCBlZGdlLXBhdHRlcm4tc29saWQgZWRnZS10aGlja25lc3Mtbm9ybWFsIGVkZ2UtcGF0dGVybi1zb2xpZCBmbG93Y2hhcnQtbGluayIgaWQ9IkxfTl9PXzAiIGQ9Ik01OTkuMTA2LDEzODQuNDc1TDU5OS4xMDYsMTM4OC42NDJDNTk5LjEwNiwxMzkyLjgwOCw1OTkuMTA2LDE0MDEuMTQyLDU5OS4xMDYsMTQwOC44MDhDNTk5LjEwNiwxNDE2LjQ3NSw1OTkuMTA2LDE0MjMuNDc1LDU5OS4xMDYsMTQyNi45NzVMNTk5LjEwNiwxNDMwLjQ3NSIvPjxwYXRoIG1hcmtlci1lbmQ9InVybCgjbWVybWFpZC1zdmctNjJfZmxvd2NoYXJ0LXYyLXBvaW50RW5kKSIgc3R5bGU9IiIgY2xhc3M9ImVkZ2UtdGhpY2tuZXNzLW5vcm1hbCBlZGdlLXBhdHRlcm4tc29saWQgZWRnZS10aGlja25lc3Mtbm9ybWFsIGVkZ2UtcGF0dGVybi1zb2xpZCBmbG93Y2hhcnQtbGluayIgaWQ9IkxfTV9QXzAiIGQ9Ik0yOTYuODk0LDE1MDAuNDc1TDI5Ni44OTQsMTUwNi42NDJDMjk2Ljg5NCwxNTEyLjgwOCwyOTYuODk0LDE1MjUuMTQyLDMxNC4yNjEsMTUzNy4yODVDMzMxLjYyOSwxNTQ5LjQyOCwzNjYuMzY0LDE1NjEuMzgyLDM4My43MzEsMTU2Ny4zNThMNDAxLjA5OSwxNTczLjMzNSIvPjxwYXRoIG1hcmtlci1lbmQ9InVybCgjbWVybWFpZC1zdmctNjJfZmxvd2NoYXJ0LXYyLXBvaW50RW5kKSIgc3R5bGU9IiIgY2xhc3M9ImVkZ2UtdGhpY2tuZXNzLW5vcm1hbCBlZGdlLXBhdHRlcm4tc29saWQgZWRnZS10aGlja25lc3Mtbm9ybWFsIGVkZ2UtcGF0dGVybi1zb2xpZCBmbG93Y2hhcnQtbGluayIgaWQ9IkxfT19QXzAiIGQ9Ik01OTkuMTA2LDE1MTIuNDc1TDU5OS4xMDYsMTUxNi42NDJDNTk5LjEwNiwxNTIwLjgwOCw1OTkuMTA2LDE1MjkuMTQyLDU4MS43MzksMTUzOS4yODVDNTY0LjM3MSwxNTQ5LjQyOCw1MjkuNjM2LDE1NjEuMzgyLDUxMi4yNjksMTU2Ny4zNThMNDk0LjkwMSwxNTczLjMzNSIvPjwvZz48ZyBjbGFzcz0iZWRnZUxhYmVscyI+PGcgY2xhc3M9ImVkZ2VMYWJlbCI+PGcgdHJhbnNmb3JtPSJ0cmFuc2xhdGUoMCwgMCkiIGNsYXNzPSJsYWJlbCI+PGZvcmVpZ25PYmplY3QgaGVpZ2h0PSIwIiB3aWR0aD0iMCI+PGRpdiB4bWxucz0iaHR0cDovL3d3dy53My5vcmcvMTk5OS94aHRtbCIgc3R5bGU9ImRpc3BsYXk6IHRhYmxlLWNlbGw7IHdoaXRlLXNwYWNlOiBub3dyYXA7IGxpbmUtaGVpZ2h0OiAxLjU7IG1heC13aWR0aDogMjAwcHg7IHRleHQtYWxpZ246IGNlbnRlcjsiIGNsYXNzPSJsYWJlbEJrZyI+PHNwYW4gY2xhc3M9ImVkZ2VMYWJlbCI+PC9zcGFuPjwvZGl2PjwvZm9yZWlnbk9iamVjdD48L2c+PC9nPjxnIGNsYXNzPSJlZGdlTGFiZWwiPjxnIHRyYW5zZm9ybT0idHJhbnNsYXRlKDAsIDApIiBjbGFzcz0ibGFiZWwiPjxmb3JlaWduT2JqZWN0IGhlaWdodD0iMCIgd2lkdGg9IjAiPjxkaXYgeG1sbnM9Imh0dHA6Ly93d3cudzMub3JnLzE5OTkveGh0bWwiIHN0eWxlPSJkaXNwbGF5OiB0YWJsZS1jZWxsOyB3aGl0ZS1zcGFjZTogbm93cmFwOyBsaW5lLWhlaWdodDogMS41OyBtYXgtd2lkdGg6IDIwMHB4OyB0ZXh0LWFsaWduOiBjZW50ZXI7IiBjbGFzcz0ibGFiZWxCa2ciPjxzcGFuIGNsYXNzPSJlZGdlTGFiZWwiPjwvc3Bhbj48L2Rpdj48L2ZvcmVpZ25PYmplY3Q+PC9nPjwvZz48ZyBjbGFzcz0iZWRnZUxhYmVsIj48ZyB0cmFuc2Zvcm09InRyYW5zbGF0ZSgwLCAwKSIgY2xhc3M9ImxhYmVsIj48Zm9yZWlnbk9iamVjdCBoZWlnaHQ9IjAiIHdpZHRoPSIwIj48ZGl2IHhtbG5zPSJodHRwOi8vd3d3LnczLm9yZy8xOTk5L3hodG1sIiBzdHlsZT0iZGlzcGxheTogdGFibGUtY2VsbDsgd2hpdGUtc3BhY2U6IG5vd3JhcDsgbGluZS1oZWlnaHQ6IDEuNTsgbWF4LXdpZHRoOiAyMDBweDsgdGV4dC1hbGlnbjogY2VudGVyOyIgY2xhc3M9ImxhYmVsQmtnIj48c3BhbiBjbGFzcz0iZWRnZUxhYmVsIj48L3NwYW4+PC9kaXY+PC9mb3JlaWduT2JqZWN0PjwvZz48L2c+PGcgdHJhbnNmb3JtPSJ0cmFuc2xhdGUoMTM4LCA2NDkuODg3NDk2OTQ4MjQyMikiIGNsYXNzPSJlZGdlTGFiZWwiPjxnIHRyYW5zZm9ybT0idHJhbnNsYXRlKC0xMS4zMjQ5OTk4MDkyNjUxMzcsIC0xMikiIGNsYXNzPSJsYWJlbCI+PGZvcmVpZ25PYmplY3QgaGVpZ2h0PSIyNCIgd2lkdGg9IjIyLjY0OTk5OTYxODUzMDI3MyI+PGRpdiB4bWxucz0iaHR0cDovL3d3dy53My5vcmcvMTk5OS94aHRtbCIgc3R5bGU9ImRpc3BsYXk6IHRhYmxlLWNlbGw7IHdoaXRlLXNwYWNlOiBub3dyYXA7IGxpbmUtaGVpZ2h0OiAxLjU7IG1heC13aWR0aDogMjAwcHg7IHRleHQtYWxpZ246IGNlbnRlcjsiIGNsYXNzPSJsYWJlbEJrZyI+PHNwYW4gY2xhc3M9ImVkZ2VMYWJlbCI+PHA+WWVzPC9wPjwvc3Bhbj48L2Rpdj48L2ZvcmVpZ25PYmplY3Q+PC9nPjwvZz48ZyBjbGFzcz0iZWRnZUxhYmVsIj48ZyB0cmFuc2Zvcm09InRyYW5zbGF0ZSgwLCAwKSIgY2xhc3M9ImxhYmVsIj48Zm9yZWlnbk9iamVjdCBoZWlnaHQ9IjAiIHdpZHRoPSIwIj48ZGl2IHhtbG5zPSJodHRwOi8vd3d3LnczLm9yZy8xOTk5L3hodG1sIiBzdHlsZT0iZGlzcGxheTogdGFibGUtY2VsbDsgd2hpdGUtc3BhY2U6IG5vd3JhcDsgbGluZS1oZWlnaHQ6IDEuNTsgbWF4LXdpZHRoOiAyMDBweDsgdGV4dC1hbGlnbjogY2VudGVyOyIgY2xhc3M9ImxhYmVsQmtnIj48c3BhbiBjbGFzcz0iZWRnZUxhYmVsIj48L3NwYW4+PC9kaXY+PC9mb3JlaWduT2JqZWN0PjwvZz48L2c+PGcgY2xhc3M9ImVkZ2VMYWJlbCI+PGcgdHJhbnNmb3JtPSJ0cmFuc2xhdGUoMCwgMCkiIGNsYXNzPSJsYWJlbCI+PGZvcmVpZ25PYmplY3QgaGVpZ2h0PSIwIiB3aWR0aD0iMCI+PGRpdiB4bWxucz0iaHR0cDovL3d3dy53My5vcmcvMTk5OS94aHRtbCIgc3R5bGU9ImRpc3BsYXk6IHRhYmxlLWNlbGw7IHdoaXRlLXNwYWNlOiBub3dyYXA7IGxpbmUtaGVpZ2h0OiAxLjU7IG1heC13aWR0aDogMjAwcHg7IHRleHQtYWxpZ246IGNlbnRlcjsiIGNsYXNzPSJsYWJlbEJrZyI+PHNwYW4gY2xhc3M9ImVkZ2VMYWJlbCI+PC9zcGFuPjwvZGl2PjwvZm9yZWlnbk9iamVjdD48L2c+PC9nPjxnIHRyYW5zZm9ybT0idHJhbnNsYXRlKDQ0OCwgNjQ5Ljg4NzQ5Njk0ODI0MjIpIiBjbGFzcz0iZWRnZUxhYmVsIj48ZyB0cmFuc2Zvcm09InRyYW5zbGF0ZSgtOS40MDAwMDA1NzIyMDQ1OSwgLTEyKSIgY2xhc3M9ImxhYmVsIj48Zm9yZWlnbk9iamVjdCBoZWlnaHQ9IjI0IiB3aWR0aD0iMTguODAwMDAxMTQ0NDA5MTgiPjxkaXYgeG1sbnM9Imh0dHA6Ly93d3cudzMub3JnLzE5OTkveGh0bWwiIHN0eWxlPSJkaXNwbGF5OiB0YWJsZS1jZWxsOyB3aGl0ZS1zcGFjZTogbm93cmFwOyBsaW5lLWhlaWdodDogMS41OyBtYXgtd2lkdGg6IDIwMHB4OyB0ZXh0LWFsaWduOiBjZW50ZXI7IiBjbGFzcz0ibGFiZWxCa2ciPjxzcGFuIGNsYXNzPSJlZGdlTGFiZWwiPjxwPk5vPC9wPjwvc3Bhbj48L2Rpdj48L2ZvcmVpZ25PYmplY3Q+PC9nPjwvZz48ZyBjbGFzcz0iZWRnZUxhYmVsIj48ZyB0cmFuc2Zvcm09InRyYW5zbGF0ZSgwLCAwKSIgY2xhc3M9ImxhYmVsIj48Zm9yZWlnbk9iamVjdCBoZWlnaHQ9IjAiIHdpZHRoPSIwIj48ZGl2IHhtbG5zPSJodHRwOi8vd3d3LnczLm9yZy8xOTk5L3hodG1sIiBzdHlsZT0iZGlzcGxheTogdGFibGUtY2VsbDsgd2hpdGUtc3BhY2U6IG5vd3JhcDsgbGluZS1oZWlnaHQ6IDEuNTsgbWF4LXdpZHRoOiAyMDBweDsgdGV4dC1hbGlnbjogY2VudGVyOyIgY2xhc3M9ImxhYmVsQmtnIj48c3BhbiBjbGFzcz0iZWRnZUxhYmVsIj48L3NwYW4+PC9kaXY+PC9mb3JlaWduT2JqZWN0PjwvZz48L2c+PGcgY2xhc3M9ImVkZ2VMYWJlbCI+PGcgdHJhbnNmb3JtPSJ0cmFuc2xhdGUoMCwgMCkiIGNsYXNzPSJsYWJlbCI+PGZvcmVpZ25PYmplY3QgaGVpZ2h0PSIwIiB3aWR0aD0iMCI+PGRpdiB4bWxucz0iaHR0cDovL3d3dy53My5vcmcvMTk5OS94aHRtbCIgc3R5bGU9ImRpc3BsYXk6IHRhYmxlLWNlbGw7IHdoaXRlLXNwYWNlOiBub3dyYXA7IGxpbmUtaGVpZ2h0OiAxLjU7IG1heC13aWR0aDogMjAwcHg7IHRleHQtYWxpZ246IGNlbnRlcjsiIGNsYXNzPSJsYWJlbEJrZyI+PHNwYW4gY2xhc3M9ImVkZ2VMYWJlbCI+PC9zcGFuPjwvZGl2PjwvZm9yZWlnbk9iamVjdD48L2c+PC9nPjxnIGNsYXNzPSJlZGdlTGFiZWwiPjxnIHRyYW5zZm9ybT0idHJhbnNsYXRlKDAsIDApIiBjbGFzcz0ibGFiZWwiPjxmb3JlaWduT2JqZWN0IGhlaWdodD0iMCIgd2lkdGg9IjAiPjxkaXYgeG1sbnM9Imh0dHA6Ly93d3cudzMub3JnLzE5OTkveGh0bWwiIHN0eWxlPSJkaXNwbGF5OiB0YWJsZS1jZWxsOyB3aGl0ZS1zcGFjZTogbm93cmFwOyBsaW5lLWhlaWdodDogMS41OyBtYXgtd2lkdGg6IDIwMHB4OyB0ZXh0LWFsaWduOiBjZW50ZXI7IiBjbGFzcz0ibGFiZWxCa2ciPjxzcGFuIGNsYXNzPSJlZGdlTGFiZWwiPjwvc3Bhbj48L2Rpdj48L2ZvcmVpZ25PYmplY3Q+PC9nPjwvZz48ZyB0cmFuc2Zvcm09InRyYW5zbGF0ZSgyOTYuODkzNzQ5MjM3MDYwNTUsIDEyNjkuNDc0OTkwODQ0NzI2NikiIGNsYXNzPSJlZGdlTGFiZWwiPjxnIHRyYW5zZm9ybT0idHJhbnNsYXRlKC0xMS4zMjQ5OTk4MDkyNjUxMzcsIC0xMikiIGNsYXNzPSJsYWJlbCI+PGZvcmVpZ25PYmplY3QgaGVpZ2h0PSIyNCIgd2lkdGg9IjIyLjY0OTk5OTYxODUzMDI3MyI+PGRpdiB4bWxucz0iaHR0cDovL3d3dy53My5vcmcvMTk5OS94aHRtbCIgc3R5bGU9ImRpc3BsYXk6IHRhYmxlLWNlbGw7IHdoaXRlLXNwYWNlOiBub3dyYXA7IGxpbmUtaGVpZ2h0OiAxLjU7IG1heC13aWR0aDogMjAwcHg7IHRleHQtYWxpZ246IGNlbnRlcjsiIGNsYXNzPSJsYWJlbEJrZyI+PHNwYW4gY2xhc3M9ImVkZ2VMYWJlbCI+PHA+WWVzPC9wPjwvc3Bhbj48L2Rpdj48L2ZvcmVpZ25PYmplY3Q+PC9nPjwvZz48ZyBjbGFzcz0iZWRnZUxhYmVsIj48ZyB0cmFuc2Zvcm09InRyYW5zbGF0ZSgwLCAwKSIgY2xhc3M9ImxhYmVsIj48Zm9yZWlnbk9iamVjdCBoZWlnaHQ9IjAiIHdpZHRoPSIwIj48ZGl2IHhtbG5zPSJodHRwOi8vd3d3LnczLm9yZy8xOTk5L3hodG1sIiBzdHlsZT0iZGlzcGxheTogdGFibGUtY2VsbDsgd2hpdGUtc3BhY2U6IG5vd3JhcDsgbGluZS1oZWlnaHQ6IDEuNTsgbWF4LXdpZHRoOiAyMDBweDsgdGV4dC1hbGlnbjogY2VudGVyOyIgY2xhc3M9ImxhYmVsQmtnIj48c3BhbiBjbGFzcz0iZWRnZUxhYmVsIj48L3NwYW4+PC9kaXY+PC9mb3JlaWduT2JqZWN0PjwvZz48L2c+PGcgdHJhbnNmb3JtPSJ0cmFuc2xhdGUoNTk5LjEwNjI1MDc2MjkzOTUsIDEyNjkuNDc0OTkwODQ0NzI2NikiIGNsYXNzPSJlZGdlTGFiZWwiPjxnIHRyYW5zZm9ybT0idHJhbnNsYXRlKC05LjQwMDAwMDU3MjIwNDU5LCAtMTIpIiBjbGFzcz0ibGFiZWwiPjxmb3JlaWduT2JqZWN0IGhlaWdodD0iMjQiIHdpZHRoPSIxOC44MDAwMDExNDQ0MDkxOCI+PGRpdiB4bWxucz0iaHR0cDovL3d3dy53My5vcmcvMTk5OS94aHRtbCIgc3R5bGU9ImRpc3BsYXk6IHRhYmxlLWNlbGw7IHdoaXRlLXNwYWNlOiBub3dyYXA7IGxpbmUtaGVpZ2h0OiAxLjU7IG1heC13aWR0aDogMjAwcHg7IHRleHQtYWxpZ246IGNlbnRlcjsiIGNsYXNzPSJsYWJlbEJrZyI+PHNwYW4gY2xhc3M9ImVkZ2VMYWJlbCI+PHA+Tm88L3A+PC9zcGFuPjwvZGl2PjwvZm9yZWlnbk9iamVjdD48L2c+PC9nPjxnIGNsYXNzPSJlZGdlTGFiZWwiPjxnIHRyYW5zZm9ybT0idHJhbnNsYXRlKDAsIDApIiBjbGFzcz0ibGFiZWwiPjxmb3JlaWduT2JqZWN0IGhlaWdodD0iMCIgd2lkdGg9IjAiPjxkaXYgeG1sbnM9Imh0dHA6Ly93d3cudzMub3JnLzE5OTkveGh0bWwiIHN0eWxlPSJkaXNwbGF5OiB0YWJsZS1jZWxsOyB3aGl0ZS1zcGFjZTogbm93cmFwOyBsaW5lLWhlaWdodDogMS41OyBtYXgtd2lkdGg6IDIwMHB4OyB0ZXh0LWFsaWduOiBjZW50ZXI7IiBjbGFzcz0ibGFiZWxCa2ciPjxzcGFuIGNsYXNzPSJlZGdlTGFiZWwiPjwvc3Bhbj48L2Rpdj48L2ZvcmVpZ25PYmplY3Q+PC9nPjwvZz48ZyBjbGFzcz0iZWRnZUxhYmVsIj48ZyB0cmFuc2Zvcm09InRyYW5zbGF0ZSgwLCAwKSIgY2xhc3M9ImxhYmVsIj48Zm9yZWlnbk9iamVjdCBoZWlnaHQ9IjAiIHdpZHRoPSIwIj48ZGl2IHhtbG5zPSJodHRwOi8vd3d3LnczLm9yZy8xOTk5L3hodG1sIiBzdHlsZT0iZGlzcGxheTogdGFibGUtY2VsbDsgd2hpdGUtc3BhY2U6IG5vd3JhcDsgbGluZS1oZWlnaHQ6IDEuNTsgbWF4LXdpZHRoOiAyMDBweDsgdGV4dC1hbGlnbjogY2VudGVyOyIgY2xhc3M9ImxhYmVsQmtnIj48c3BhbiBjbGFzcz0iZWRnZUxhYmVsIj48L3NwYW4+PC9kaXY+PC9mb3JlaWduT2JqZWN0PjwvZz48L2c+PGcgY2xhc3M9ImVkZ2VMYWJlbCI+PGcgdHJhbnNmb3JtPSJ0cmFuc2xhdGUoMCwgMCkiIGNsYXNzPSJsYWJlbCI+PGZvcmVpZ25PYmplY3QgaGVpZ2h0PSIwIiB3aWR0aD0iMCI+PGRpdiB4bWxucz0iaHR0cDovL3d3dy53My5vcmcvMTk5OS94aHRtbCIgc3R5bGU9ImRpc3BsYXk6IHRhYmxlLWNlbGw7IHdoaXRlLXNwYWNlOiBub3dyYXA7IGxpbmUtaGVpZ2h0OiAxLjU7IG1heC13aWR0aDogMjAwcHg7IHRleHQtYWxpZ246IGNlbnRlcjsiIGNsYXNzPSJsYWJlbEJrZyI+PHNwYW4gY2xhc3M9ImVkZ2VMYWJlbCI+PC9zcGFuPjwvZGl2PjwvZm9yZWlnbk9iamVjdD48L2c+PC9nPjwvZz48ZyBjbGFzcz0ibm9kZXMiPjxnIHRyYW5zZm9ybT0idHJhbnNsYXRlKDI5MywgNDcpIiBpZD0iZmxvd2NoYXJ0LUEtMCIgY2xhc3M9Im5vZGUgZGVmYXVsdCI+PHJlY3QgaGVpZ2h0PSI3OCIgd2lkdGg9IjI2MCIgeT0iLTM5IiB4PSItMTMwIiBzdHlsZT0iIiBjbGFzcz0iYmFzaWMgbGFiZWwtY29udGFpbmVyIi8+PGcgdHJhbnNmb3JtPSJ0cmFuc2xhdGUoLTEwMCwgLTI0KSIgc3R5bGU9IiIgY2xhc3M9ImxhYmVsIj48cmVjdC8+PGZvcmVpZ25PYmplY3QgaGVpZ2h0PSI0OCIgd2lkdGg9IjIwMCI+PGRpdiB4bWxucz0iaHR0cDovL3d3dy53My5vcmcvMTk5OS94aHRtbCIgc3R5bGU9ImRpc3BsYXk6IHRhYmxlOyB3aGl0ZS1zcGFjZTogYnJlYWstc3BhY2VzOyBsaW5lLWhlaWdodDogMS41OyBtYXgtd2lkdGg6IDIwMHB4OyB0ZXh0LWFsaWduOiBjZW50ZXI7IHdpZHRoOiAyMDBweDsiPjxzcGFuIGNsYXNzPSJub2RlTGFiZWwiPjxwPlN0YXJ0OiBBY3R1YWwgVURQIFRyYW5zYWN0aW9uIFJlY2VpdmVkPC9wPjwvc3Bhbj48L2Rpdj48L2ZvcmVpZ25PYmplY3Q+PC9nPjwvZz48ZyB0cmFuc2Zvcm09InRyYW5zbGF0ZSgyOTMsIDE2MykiIGlkPSJmbG93Y2hhcnQtQi0xIiBjbGFzcz0ibm9kZSBkZWZhdWx0Ij48cmVjdCBoZWlnaHQ9IjU0IiB3aWR0aD0iMTk1LjUzNzUwNjEwMzUxNTYyIiB5PSItMjciIHg9Ii05Ny43Njg3NTMwNTE3NTc4MSIgc3R5bGU9IiIgY2xhc3M9ImJhc2ljIGxhYmVsLWNvbnRhaW5lciIvPjxnIHRyYW5zZm9ybT0idHJhbnNsYXRlKC02Ny43Njg3NTMwNTE3NTc4MSwgLTEyKSIgc3R5bGU9IiIgY2xhc3M9ImxhYmVsIj48cmVjdC8+PGZvcmVpZ25PYmplY3QgaGVpZ2h0PSIyNCIgd2lkdGg9IjEzNS41Mzc1MDYxMDM1MTU2MiI+PGRpdiB4bWxucz0iaHR0cDovL3d3dy53My5vcmcvMTk5OS94aHRtbCIgc3R5bGU9ImRpc3BsYXk6IHRhYmxlLWNlbGw7IHdoaXRlLXNwYWNlOiBub3dyYXA7IGxpbmUtaGVpZ2h0OiAxLjU7IG1heC13aWR0aDogMjAwcHg7IHRleHQtYWxpZ246IGNlbnRlcjsiPjxzcGFuIGNsYXNzPSJub2RlTGFiZWwiPjxwPlN0b3JlIHRyIGluIHVkcF9hY3Q8L3A+PC9zcGFuPjwvZGl2PjwvZm9yZWlnbk9iamVjdD48L2c+PC9nPjxnIHRyYW5zZm9ybT0idHJhbnNsYXRlKDI5MywgMjkxKSIgaWQ9ImZsb3djaGFydC1DLTMiIGNsYXNzPSJub2RlIGRlZmF1bHQiPjxyZWN0IGhlaWdodD0iMTAyIiB3aWR0aD0iMjYwIiB5PSItNTEiIHg9Ii0xMzAiIHN0eWxlPSIiIGNsYXNzPSJiYXNpYyBsYWJlbC1jb250YWluZXIiLz48ZyB0cmFuc2Zvcm09InRyYW5zbGF0ZSgtMTAwLCAtMzYpIiBzdHlsZT0iIiBjbGFzcz0ibGFiZWwiPjxyZWN0Lz48Zm9yZWlnbk9iamVjdCBoZWlnaHQ9IjcyIiB3aWR0aD0iMjAwIj48ZGl2IHhtbG5zPSJodHRwOi8vd3d3LnczLm9yZy8xOTk5L3hodG1sIiBzdHlsZT0iZGlzcGxheTogdGFibGU7IHdoaXRlLXNwYWNlOiBicmVhay1zcGFjZXM7IGxpbmUtaGVpZ2h0OiAxLjU7IG1heC13aWR0aDogMjAwcHg7IHRleHQtYWxpZ246IGNlbnRlcjsgd2lkdGg6IDIwMHB4OyI+PHNwYW4gY2xhc3M9Im5vZGVMYWJlbCI+PHA+TG9nIEFjdHVhbCBVRFAgUGFja2V0IERldGFpbHM8YnIgLz5jb252ZXJ0MnN0cmluZ19tX3VkcDwvcD48L3NwYW4+PC9kaXY+PC9mb3JlaWduT2JqZWN0PjwvZz48L2c+PGcgdHJhbnNmb3JtPSJ0cmFuc2xhdGUoMjkzLCA1MDIuNDQzNzQ4NDc0MTIxMSkiIGlkPSJmbG93Y2hhcnQtRC01IiBjbGFzcz0ibm9kZSBkZWZhdWx0Ij48cG9seWdvbiB0cmFuc2Zvcm09InRyYW5zbGF0ZSgtMTA5Ljk0Mzc0ODQ3NDEyMTEsIDExMC40NDM3NDg0NzQxMjExKSIgY2xhc3M9ImxhYmVsLWNvbnRhaW5lciIgcG9pbnRzPSIxMTAuNDQzNzQ4NDc0MTIxMSwwIDIyMC44ODc0OTY5NDgyNDIyLC0xMTAuNDQzNzQ4NDc0MTIxMSAxMTAuNDQzNzQ4NDc0MTIxMSwtMjIwLjg4NzQ5Njk0ODI0MjIgMCwtMTEwLjQ0Mzc0ODQ3NDEyMTEiLz48ZyB0cmFuc2Zvcm09InRyYW5zbGF0ZSgtODMuNDQzNzQ4NDc0MTIxMSwgLTEyKSIgc3R5bGU9IiIgY2xhc3M9ImxhYmVsIj48cmVjdC8+PGZvcmVpZ25PYmplY3QgaGVpZ2h0PSIyNCIgd2lkdGg9IjE2Ni44ODc0OTY5NDgyNDIyIj48ZGl2IHhtbG5zPSJodHRwOi8vd3d3LnczLm9yZy8xOTk5L3hodG1sIiBzdHlsZT0iZGlzcGxheTogdGFibGUtY2VsbDsgd2hpdGUtc3BhY2U6IG5vd3JhcDsgbGluZS1oZWlnaHQ6IDEuNTsgbWF4LXdpZHRoOiAyMDBweDsgdGV4dC1hbGlnbjogY2VudGVyOyI+PHNwYW4gY2xhc3M9Im5vZGVMYWJlbCI+PHA+dWRwX2V4cCBRdWV1ZSBFbXB0eT88L3A+PC9zcGFuPjwvZGl2PjwvZm9yZWlnbk9iamVjdD48L2c+PC9nPjxnIHRyYW5zZm9ybT0idHJhbnNsYXRlKDEzOCwgNzI1Ljg4NzQ5Njk0ODI0MjIpIiBpZD0iZmxvd2NoYXJ0LUUtNyIgY2xhc3M9Im5vZGUgZGVmYXVsdCI+PHJlY3QgaGVpZ2h0PSI3OCIgd2lkdGg9IjI2MCIgeT0iLTM5IiB4PSItMTMwIiBzdHlsZT0iIiBjbGFzcz0iYmFzaWMgbGFiZWwtY29udGFpbmVyIi8+PGcgdHJhbnNmb3JtPSJ0cmFuc2xhdGUoLTEwMCwgLTI0KSIgc3R5bGU9IiIgY2xhc3M9ImxhYmVsIj48cmVjdC8+PGZvcmVpZ25PYmplY3QgaGVpZ2h0PSI0OCIgd2lkdGg9IjIwMCI+PGRpdiB4bWxucz0iaHR0cDovL3d3dy53My5vcmcvMTk5OS94aHRtbCIgc3R5bGU9ImRpc3BsYXk6IHRhYmxlOyB3aGl0ZS1zcGFjZTogYnJlYWstc3BhY2VzOyBsaW5lLWhlaWdodDogMS41OyBtYXgtd2lkdGg6IDIwMHB4OyB0ZXh0LWFsaWduOiBjZW50ZXI7IHdpZHRoOiAyMDBweDsiPjxzcGFuIGNsYXNzPSJub2RlTGFiZWwiPjxwPkxvZyBFcnJvcjogTm8gRXhwZWN0ZWQgVURQIFRyYW5zYWN0aW9uIEF2YWlsYWJsZTwvcD48L3NwYW4+PC9kaXY+PC9mb3JlaWduT2JqZWN0PjwvZz48L2c+PGcgdHJhbnNmb3JtPSJ0cmFuc2xhdGUoMTM4LCA4NTMuODg3NDk2OTQ4MjQyMikiIGlkPSJmbG93Y2hhcnQtRi05IiBjbGFzcz0ibm9kZSBkZWZhdWx0Ij48cmVjdCBoZWlnaHQ9Ijc4IiB3aWR0aD0iMjYwIiB5PSItMzkiIHg9Ii0xMzAiIHN0eWxlPSIiIGNsYXNzPSJiYXNpYyBsYWJlbC1jb250YWluZXIiLz48ZyB0cmFuc2Zvcm09InRyYW5zbGF0ZSgtMTAwLCAtMjQpIiBzdHlsZT0iIiBjbGFzcz0ibGFiZWwiPjxyZWN0Lz48Zm9yZWlnbk9iamVjdCBoZWlnaHQ9IjQ4IiB3aWR0aD0iMjAwIj48ZGl2IHhtbG5zPSJodHRwOi8vd3d3LnczLm9yZy8xOTk5L3hodG1sIiBzdHlsZT0iZGlzcGxheTogdGFibGU7IHdoaXRlLXNwYWNlOiBicmVhay1zcGFjZXM7IGxpbmUtaGVpZ2h0OiAxLjU7IG1heC13aWR0aDogMjAwcHg7IHRleHQtYWxpZ246IGNlbnRlcjsgd2lkdGg6IDIwMHB4OyI+PHNwYW4gY2xhc3M9Im5vZGVMYWJlbCI+PHA+SW5jcmVtZW50IG1pc19tYXRjaCBDb3VudGVyPC9wPjwvc3Bhbj48L2Rpdj48L2ZvcmVpZ25PYmplY3Q+PC9nPjwvZz48ZyB0cmFuc2Zvcm09InRyYW5zbGF0ZSgxMzgsIDk4MS44ODc0OTY5NDgyNDIyKSIgaWQ9ImZsb3djaGFydC1HLTExIiBjbGFzcz0ibm9kZSBkZWZhdWx0Ij48cmVjdCBoZWlnaHQ9IjU0IiB3aWR0aD0iMTA3LjQzNzUiIHk9Ii0yNyIgeD0iLTUzLjcxODc1IiBzdHlsZT0iIiBjbGFzcz0iYmFzaWMgbGFiZWwtY29udGFpbmVyIi8+PGcgdHJhbnNmb3JtPSJ0cmFuc2xhdGUoLTIzLjcxODc1LCAtMTIpIiBzdHlsZT0iIiBjbGFzcz0ibGFiZWwiPjxyZWN0Lz48Zm9yZWlnbk9iamVjdCBoZWlnaHQ9IjI0IiB3aWR0aD0iNDcuNDM3NSI+PGRpdiB4bWxucz0iaHR0cDovL3d3dy53My5vcmcvMTk5OS94aHRtbCIgc3R5bGU9ImRpc3BsYXk6IHRhYmxlLWNlbGw7IHdoaXRlLXNwYWNlOiBub3dyYXA7IGxpbmUtaGVpZ2h0OiAxLjU7IG1heC13aWR0aDogMjAwcHg7IHRleHQtYWxpZ246IGNlbnRlcjsiPjxzcGFuIGNsYXNzPSJub2RlTGFiZWwiPjxwPlJldHVybjwvcD48L3NwYW4+PC9kaXY+PC9mb3JlaWduT2JqZWN0PjwvZz48L2c+PGcgdHJhbnNmb3JtPSJ0cmFuc2xhdGUoNDQ4LCA3MjUuODg3NDk2OTQ4MjQyMikiIGlkPSJmbG93Y2hhcnQtSC0xMyIgY2xhc3M9Im5vZGUgZGVmYXVsdCI+PHJlY3QgaGVpZ2h0PSI3OCIgd2lkdGg9IjI2MCIgeT0iLTM5IiB4PSItMTMwIiBzdHlsZT0iIiBjbGFzcz0iYmFzaWMgbGFiZWwtY29udGFpbmVyIi8+PGcgdHJhbnNmb3JtPSJ0cmFuc2xhdGUoLTEwMCwgLTI0KSIgc3R5bGU9IiIgY2xhc3M9ImxhYmVsIj48cmVjdC8+PGZvcmVpZ25PYmplY3QgaGVpZ2h0PSI0OCIgd2lkdGg9IjIwMCI+PGRpdiB4bWxucz0iaHR0cDovL3d3dy53My5vcmcvMTk5OS94aHRtbCIgc3R5bGU9ImRpc3BsYXk6IHRhYmxlOyB3aGl0ZS1zcGFjZTogYnJlYWstc3BhY2VzOyBsaW5lLWhlaWdodDogMS41OyBtYXgtd2lkdGg6IDIwMHB4OyB0ZXh0LWFsaWduOiBjZW50ZXI7IHdpZHRoOiAyMDBweDsiPjxzcGFuIGNsYXNzPSJub2RlTGFiZWwiPjxwPlBvcCBleHBfdHIgZnJvbSB1ZHBfZXhwIFF1ZXVlPC9wPjwvc3Bhbj48L2Rpdj48L2ZvcmVpZ25PYmplY3Q+PC9nPjwvZz48ZyB0cmFuc2Zvcm09InRyYW5zbGF0ZSg0NDgsIDg1My44ODc0OTY5NDgyNDIyKSIgaWQ9ImZsb3djaGFydC1JLTE1IiBjbGFzcz0ibm9kZSBkZWZhdWx0Ij48cmVjdCBoZWlnaHQ9Ijc4IiB3aWR0aD0iMjYwIiB5PSItMzkiIHg9Ii0xMzAiIHN0eWxlPSIiIGNsYXNzPSJiYXNpYyBsYWJlbC1jb250YWluZXIiLz48ZyB0cmFuc2Zvcm09InRyYW5zbGF0ZSgtMTAwLCAtMjQpIiBzdHlsZT0iIiBjbGFzcz0ibGFiZWwiPjxyZWN0Lz48Zm9yZWlnbk9iamVjdCBoZWlnaHQ9IjQ4IiB3aWR0aD0iMjAwIj48ZGl2IHhtbG5zPSJodHRwOi8vd3d3LnczLm9yZy8xOTk5L3hodG1sIiBzdHlsZT0iZGlzcGxheTogdGFibGU7IHdoaXRlLXNwYWNlOiBicmVhay1zcGFjZXM7IGxpbmUtaGVpZ2h0OiAxLjU7IG1heC13aWR0aDogMjAwcHg7IHRleHQtYWxpZ246IGNlbnRlcjsgd2lkdGg6IDIwMHB4OyI+PHNwYW4gY2xhc3M9Im5vZGVMYWJlbCI+PHA+TG9nIEV4cGVjdGVkIFVEUCBQYWNrZXQgRGV0YWlsczwvcD48L3NwYW4+PC9kaXY+PC9mb3JlaWduT2JqZWN0PjwvZz48L2c+PGcgdHJhbnNmb3JtPSJ0cmFuc2xhdGUoNDQ4LCA5ODEuODg3NDk2OTQ4MjQyMikiIGlkPSJmbG93Y2hhcnQtSi0xNyIgY2xhc3M9Im5vZGUgZGVmYXVsdCI+PHJlY3QgaGVpZ2h0PSI3OCIgd2lkdGg9IjI2MCIgeT0iLTM5IiB4PSItMTMwIiBzdHlsZT0iIiBjbGFzcz0iYmFzaWMgbGFiZWwtY29udGFpbmVyIi8+PGcgdHJhbnNmb3JtPSJ0cmFuc2xhdGUoLTEwMCwgLTI0KSIgc3R5bGU9IiIgY2xhc3M9ImxhYmVsIj48cmVjdC8+PGZvcmVpZ25PYmplY3QgaGVpZ2h0PSI0OCIgd2lkdGg9IjIwMCI+PGRpdiB4bWxucz0iaHR0cDovL3d3dy53My5vcmcvMTk5OS94aHRtbCIgc3R5bGU9ImRpc3BsYXk6IHRhYmxlOyB3aGl0ZS1zcGFjZTogYnJlYWstc3BhY2VzOyBsaW5lLWhlaWdodDogMS41OyBtYXgtd2lkdGg6IDIwMHB4OyB0ZXh0LWFsaWduOiBjZW50ZXI7IHdpZHRoOiAyMDBweDsiPjxzcGFuIGNsYXNzPSJub2RlTGFiZWwiPjxwPkNhbGwgdWRwX3BrdF9jb21wYXJlIHRyLCBleHBfdHI8L3A+PC9zcGFuPjwvZGl2PjwvZm9yZWlnbk9iamVjdD48L2c+PC9nPjxnIHRyYW5zZm9ybT0idHJhbnNsYXRlKDQ0OCwgMTE1MS42ODEyNDM4OTY0ODQ0KSIgaWQ9ImZsb3djaGFydC1LLTE5IiBjbGFzcz0ibm9kZSBkZWZhdWx0Ij48cG9seWdvbiB0cmFuc2Zvcm09InRyYW5zbGF0ZSgtODAuMjkzNzUwNzYyOTM5NDUsIDgwLjc5Mzc1MDc2MjkzOTQ1KSIgY2xhc3M9ImxhYmVsLWNvbnRhaW5lciIgcG9pbnRzPSI4MC43OTM3NTA3NjI5Mzk0NSwwIDE2MS41ODc1MDE1MjU4Nzg5LC04MC43OTM3NTA3NjI5Mzk0NSA4MC43OTM3NTA3NjI5Mzk0NSwtMTYxLjU4NzUwMTUyNTg3ODkgMCwtODAuNzkzNzUwNzYyOTM5NDUiLz48ZyB0cmFuc2Zvcm09InRyYW5zbGF0ZSgtNTMuNzkzNzUwNzYyOTM5NDUsIC0xMikiIHN0eWxlPSIiIGNsYXNzPSJsYWJlbCI+PHJlY3QvPjxmb3JlaWduT2JqZWN0IGhlaWdodD0iMjQiIHdpZHRoPSIxMDcuNTg3NTAxNTI1ODc4OSI+PGRpdiB4bWxucz0iaHR0cDovL3d3dy53My5vcmcvMTk5OS94aHRtbCIgc3R5bGU9ImRpc3BsYXk6IHRhYmxlLWNlbGw7IHdoaXRlLXNwYWNlOiBub3dyYXA7IGxpbmUtaGVpZ2h0OiAxLjU7IG1heC13aWR0aDogMjAwcHg7IHRleHQtYWxpZ246IGNlbnRlcjsiPjxzcGFuIGNsYXNzPSJub2RlTGFiZWwiPjxwPlBhY2tldHMgTWF0Y2g/PC9wPjwvc3Bhbj48L2Rpdj48L2ZvcmVpZ25PYmplY3Q+PC9nPjwvZz48ZyB0cmFuc2Zvcm09InRyYW5zbGF0ZSgyOTYuODkzNzQ5MjM3MDYwNTUsIDEzNDUuNDc0OTkwODQ0NzI2NikiIGlkPSJmbG93Y2hhcnQtTC0yMSIgY2xhc3M9Im5vZGUgZGVmYXVsdCI+PHJlY3QgaGVpZ2h0PSI1NCIgd2lkdGg9IjIwMS4xMjUiIHk9Ii0yNyIgeD0iLTEwMC41NjI1IiBzdHlsZT0iIiBjbGFzcz0iYmFzaWMgbGFiZWwtY29udGFpbmVyIi8+PGcgdHJhbnNmb3JtPSJ0cmFuc2xhdGUoLTcwLjU2MjUsIC0xMikiIHN0eWxlPSIiIGNsYXNzPSJsYWJlbCI+PHJlY3QvPjxmb3JlaWduT2JqZWN0IGhlaWdodD0iMjQiIHdpZHRoPSIxNDEuMTI1Ij48ZGl2IHhtbG5zPSJodHRwOi8vd3d3LnczLm9yZy8xOTk5L3hodG1sIiBzdHlsZT0iZGlzcGxheTogdGFibGUtY2VsbDsgd2hpdGUtc3BhY2U6IG5vd3JhcDsgbGluZS1oZWlnaHQ6IDEuNTsgbWF4LXdpZHRoOiAyMDBweDsgdGV4dC1hbGlnbjogY2VudGVyOyI+PHNwYW4gY2xhc3M9Im5vZGVMYWJlbCI+PHA+TG9nIE1BVENIIE1lc3NhZ2U8L3A+PC9zcGFuPjwvZGl2PjwvZm9yZWlnbk9iamVjdD48L2c+PC9nPjxnIHRyYW5zZm9ybT0idHJhbnNsYXRlKDI5Ni44OTM3NDkyMzcwNjA1NSwgMTQ3My40NzQ5OTA4NDQ3MjY2KSIgaWQ9ImZsb3djaGFydC1NLTIzIiBjbGFzcz0ibm9kZSBkZWZhdWx0Ij48cmVjdCBoZWlnaHQ9IjU0IiB3aWR0aD0iMjQ0LjQyNTAwMzA1MTc1NzgiIHk9Ii0yNyIgeD0iLTEyMi4yMTI1MDE1MjU4Nzg5IiBzdHlsZT0iIiBjbGFzcz0iYmFzaWMgbGFiZWwtY29udGFpbmVyIi8+PGcgdHJhbnNmb3JtPSJ0cmFuc2xhdGUoLTkyLjIxMjUwMTUyNTg3ODksIC0xMikiIHN0eWxlPSIiIGNsYXNzPSJsYWJlbCI+PHJlY3QvPjxmb3JlaWduT2JqZWN0IGhlaWdodD0iMjQiIHdpZHRoPSIxODQuNDI1MDAzMDUxNzU3OCI+PGRpdiB4bWxucz0iaHR0cDovL3d3dy53My5vcmcvMTk5OS94aHRtbCIgc3R5bGU9ImRpc3BsYXk6IHRhYmxlLWNlbGw7IHdoaXRlLXNwYWNlOiBub3dyYXA7IGxpbmUtaGVpZ2h0OiAxLjU7IG1heC13aWR0aDogMjAwcHg7IHRleHQtYWxpZ246IGNlbnRlcjsiPjxzcGFuIGNsYXNzPSJub2RlTGFiZWwiPjxwPkluY3JlbWVudCBtYXRjaCBDb3VudGVyPC9wPjwvc3Bhbj48L2Rpdj48L2ZvcmVpZ25PYmplY3Q+PC9nPjwvZz48ZyB0cmFuc2Zvcm09InRyYW5zbGF0ZSg1OTkuMTA2MjUwNzYyOTM5NSwgMTM0NS40NzQ5OTA4NDQ3MjY2KSIgaWQ9ImZsb3djaGFydC1OLTI1IiBjbGFzcz0ibm9kZSBkZWZhdWx0Ij48cmVjdCBoZWlnaHQ9Ijc4IiB3aWR0aD0iMjYwIiB5PSItMzkiIHg9Ii0xMzAiIHN0eWxlPSIiIGNsYXNzPSJiYXNpYyBsYWJlbC1jb250YWluZXIiLz48ZyB0cmFuc2Zvcm09InRyYW5zbGF0ZSgtMTAwLCAtMjQpIiBzdHlsZT0iIiBjbGFzcz0ibGFiZWwiPjxyZWN0Lz48Zm9yZWlnbk9iamVjdCBoZWlnaHQ9IjQ4IiB3aWR0aD0iMjAwIj48ZGl2IHhtbG5zPSJodHRwOi8vd3d3LnczLm9yZy8xOTk5L3hodG1sIiBzdHlsZT0iZGlzcGxheTogdGFibGU7IHdoaXRlLXNwYWNlOiBicmVhay1zcGFjZXM7IGxpbmUtaGVpZ2h0OiAxLjU7IG1heC13aWR0aDogMjAwcHg7IHRleHQtYWxpZ246IGNlbnRlcjsgd2lkdGg6IDIwMHB4OyI+PHNwYW4gY2xhc3M9Im5vZGVMYWJlbCI+PHA+TG9nIE1JU01BVENIIEVycm9yIGFuZCBEZXRhaWxzPC9wPjwvc3Bhbj48L2Rpdj48L2ZvcmVpZ25PYmplY3Q+PC9nPjwvZz48ZyB0cmFuc2Zvcm09InRyYW5zbGF0ZSg1OTkuMTA2MjUwNzYyOTM5NSwgMTQ3My40NzQ5OTA4NDQ3MjY2KSIgaWQ9ImZsb3djaGFydC1PLTI3IiBjbGFzcz0ibm9kZSBkZWZhdWx0Ij48cmVjdCBoZWlnaHQ9Ijc4IiB3aWR0aD0iMjYwIiB5PSItMzkiIHg9Ii0xMzAiIHN0eWxlPSIiIGNsYXNzPSJiYXNpYyBsYWJlbC1jb250YWluZXIiLz48ZyB0cmFuc2Zvcm09InRyYW5zbGF0ZSgtMTAwLCAtMjQpIiBzdHlsZT0iIiBjbGFzcz0ibGFiZWwiPjxyZWN0Lz48Zm9yZWlnbk9iamVjdCBoZWlnaHQ9IjQ4IiB3aWR0aD0iMjAwIj48ZGl2IHhtbG5zPSJodHRwOi8vd3d3LnczLm9yZy8xOTk5L3hodG1sIiBzdHlsZT0iZGlzcGxheTogdGFibGU7IHdoaXRlLXNwYWNlOiBicmVhay1zcGFjZXM7IGxpbmUtaGVpZ2h0OiAxLjU7IG1heC13aWR0aDogMjAwcHg7IHRleHQtYWxpZ246IGNlbnRlcjsgd2lkdGg6IDIwMHB4OyI+PHNwYW4gY2xhc3M9Im5vZGVMYWJlbCI+PHA+SW5jcmVtZW50IG1pc19tYXRjaCBDb3VudGVyPC9wPjwvc3Bhbj48L2Rpdj48L2ZvcmVpZ25PYmplY3Q+PC9nPjwvZz48ZyB0cmFuc2Zvcm09InRyYW5zbGF0ZSg0NDgsIDE1ODkuNDc0OTkwODQ0NzI2NikiIGlkPSJmbG93Y2hhcnQtUC0yOSIgY2xhc3M9Im5vZGUgZGVmYXVsdCI+PHJlY3QgaGVpZ2h0PSI1NCIgd2lkdGg9Ijg2LjIzNzUwMTE0NDQwOTE4IiB5PSItMjciIHg9Ii00My4xMTg3NTA1NzIyMDQ1OSIgc3R5bGU9IiIgY2xhc3M9ImJhc2ljIGxhYmVsLWNvbnRhaW5lciIvPjxnIHRyYW5zZm9ybT0idHJhbnNsYXRlKC0xMy4xMTg3NTA1NzIyMDQ1OSwgLTEyKSIgc3R5bGU9IiIgY2xhc3M9ImxhYmVsIj48cmVjdC8+PGZvcmVpZ25PYmplY3QgaGVpZ2h0PSIyNCIgd2lkdGg9IjI2LjIzNzUwMTE0NDQwOTE4Ij48ZGl2IHhtbG5zPSJodHRwOi8vd3d3LnczLm9yZy8xOTk5L3hodG1sIiBzdHlsZT0iZGlzcGxheTogdGFibGUtY2VsbDsgd2hpdGUtc3BhY2U6IG5vd3JhcDsgbGluZS1oZWlnaHQ6IDEuNTsgbWF4LXdpZHRoOiAyMDBweDsgdGV4dC1hbGlnbjogY2VudGVyOyI+PHNwYW4gY2xhc3M9Im5vZGVMYWJlbCI+PHA+RW5kPC9wPjwvc3Bhbj48L2Rpdj48L2ZvcmVpZ25PYmplY3Q+PC9nPjwvZz48L2c+PC9nPjwvZz48L3N2Zz4=;fillColor=#f8cecc;strokeColor=#b85450;" parent="yRi5o2NJnJKDBN_EiBJa-41" vertex="1">
          <mxGeometry x="15" y="43" width="319.31" height="712.2" as="geometry" />
        </mxCell>
        <mxCell id="yRi5o2NJnJKDBN_EiBJa-42" value="&lt;h1 style=&quot;margin-top: 0px;&quot;&gt;Actual UDP&lt;/h1&gt;" style="text;html=1;whiteSpace=wrap;overflow=hidden;rounded=0;fontFamily=Helvetica;fontSize=12;fontColor=default;labelBackgroundColor=default;" parent="yRi5o2NJnJKDBN_EiBJa-41" vertex="1">
          <mxGeometry x="81" width="141" height="37" as="geometry" />
        </mxCell>
        <mxCell id="yRi5o2NJnJKDBN_EiBJa-43" value="" style="shape=image;verticalLabelPosition=bottom;labelBackgroundColor=default;verticalAlign=top;aspect=fixed;imageAspect=0;editableCssRules=.*;image=data:image/svg+xml,PHN2ZyB4bWxucz0iaHR0cDovL3d3dy53My5vcmcvMjAwMC9zdmciIHhtbG5zOnhsaW5rPSJodHRwOi8vd3d3LnczLm9yZy8xOTk5L3hsaW5rIiBoZWlnaHQ9IjIxMzkuODUwMDk3NjU2MjUiIGFyaWEtcm9sZWRlc2NyaXB0aW9uPSJmbG93Y2hhcnQtdjIiIHJvbGU9ImdyYXBoaWNzLWRvY3VtZW50IGRvY3VtZW50IiB2aWV3Qm94PSI4IDggNzIxLjEwNjI2MjIwNzAzMTIgMjEzOS44NTAwOTc2NTYyNSIgc3R5bGU9Im1heC13aWR0aDogMTAwJTsiIGNsYXNzPSJmbG93Y2hhcnQiIHdpZHRoPSI3MjEuMTA2MjYyMjA3MDMxMiIgaWQ9Im1lcm1haWQtc3ZnLTM1Ij48c3R5bGU+I21lcm1haWQtc3ZnLTM1e2ZvbnQtZmFtaWx5OiJ0cmVidWNoZXQgbXMiLHZlcmRhbmEsYXJpYWwsc2Fucy1zZXJpZjtmb250LXNpemU6MTZweDtmaWxsOiNjY2M7fUBrZXlmcmFtZXMgZWRnZS1hbmltYXRpb24tZnJhbWV7ZnJvbXtzdHJva2UtZGFzaG9mZnNldDowO319QGtleWZyYW1lcyBkYXNoe3Rve3N0cm9rZS1kYXNob2Zmc2V0OjA7fX0jbWVybWFpZC1zdmctMzUgLmVkZ2UtYW5pbWF0aW9uLXNsb3d7c3Ryb2tlLWRhc2hhcnJheTo5LDUhaW1wb3J0YW50O3N0cm9rZS1kYXNob2Zmc2V0OjkwMDthbmltYXRpb246ZGFzaCA1MHMgbGluZWFyIGluZmluaXRlO3N0cm9rZS1saW5lY2FwOnJvdW5kO30jbWVybWFpZC1zdmctMzUgLmVkZ2UtYW5pbWF0aW9uLWZhc3R7c3Ryb2tlLWRhc2hhcnJheTo5LDUhaW1wb3J0YW50O3N0cm9rZS1kYXNob2Zmc2V0OjkwMDthbmltYXRpb246ZGFzaCAyMHMgbGluZWFyIGluZmluaXRlO3N0cm9rZS1saW5lY2FwOnJvdW5kO30jbWVybWFpZC1zdmctMzUgLmVycm9yLWljb257ZmlsbDojYTQ0MTQxO30jbWVybWFpZC1zdmctMzUgLmVycm9yLXRleHR7ZmlsbDojZGRkO3N0cm9rZTojZGRkO30jbWVybWFpZC1zdmctMzUgLmVkZ2UtdGhpY2tuZXNzLW5vcm1hbHtzdHJva2Utd2lkdGg6MXB4O30jbWVybWFpZC1zdmctMzUgLmVkZ2UtdGhpY2tuZXNzLXRoaWNre3N0cm9rZS13aWR0aDozLjVweDt9I21lcm1haWQtc3ZnLTM1IC5lZGdlLXBhdHRlcm4tc29saWR7c3Ryb2tlLWRhc2hhcnJheTowO30jbWVybWFpZC1zdmctMzUgLmVkZ2UtdGhpY2tuZXNzLWludmlzaWJsZXtzdHJva2Utd2lkdGg6MDtmaWxsOm5vbmU7fSNtZXJtYWlkLXN2Zy0zNSAuZWRnZS1wYXR0ZXJuLWRhc2hlZHtzdHJva2UtZGFzaGFycmF5OjM7fSNtZXJtYWlkLXN2Zy0zNSAuZWRnZS1wYXR0ZXJuLWRvdHRlZHtzdHJva2UtZGFzaGFycmF5OjI7fSNtZXJtYWlkLXN2Zy0zNSAubWFya2Vye2ZpbGw6bGlnaHRncmV5O3N0cm9rZTpsaWdodGdyZXk7fSNtZXJtYWlkLXN2Zy0zNSAubWFya2VyLmNyb3Nze3N0cm9rZTpsaWdodGdyZXk7fSNtZXJtYWlkLXN2Zy0zNSBzdmd7Zm9udC1mYW1pbHk6InRyZWJ1Y2hldCBtcyIsdmVyZGFuYSxhcmlhbCxzYW5zLXNlcmlmO2ZvbnQtc2l6ZToxNnB4O30jbWVybWFpZC1zdmctMzUgcHttYXJnaW46MDt9I21lcm1haWQtc3ZnLTM1IC5sYWJlbHtmb250LWZhbWlseToidHJlYnVjaGV0IG1zIix2ZXJkYW5hLGFyaWFsLHNhbnMtc2VyaWY7Y29sb3I6I2NjYzt9I21lcm1haWQtc3ZnLTM1IC5jbHVzdGVyLWxhYmVsIHRleHR7ZmlsbDojRjlGRkZFO30jbWVybWFpZC1zdmctMzUgLmNsdXN0ZXItbGFiZWwgc3Bhbntjb2xvcjojRjlGRkZFO30jbWVybWFpZC1zdmctMzUgLmNsdXN0ZXItbGFiZWwgc3BhbiBwe2JhY2tncm91bmQtY29sb3I6dHJhbnNwYXJlbnQ7fSNtZXJtYWlkLXN2Zy0zNSAubGFiZWwgdGV4dCwjbWVybWFpZC1zdmctMzUgc3BhbntmaWxsOiNjY2M7Y29sb3I6I2NjYzt9I21lcm1haWQtc3ZnLTM1IC5ub2RlIHJlY3QsI21lcm1haWQtc3ZnLTM1IC5ub2RlIGNpcmNsZSwjbWVybWFpZC1zdmctMzUgLm5vZGUgZWxsaXBzZSwjbWVybWFpZC1zdmctMzUgLm5vZGUgcG9seWdvbiwjbWVybWFpZC1zdmctMzUgLm5vZGUgcGF0aHtmaWxsOiMxZjIwMjA7c3Ryb2tlOiNjY2M7c3Ryb2tlLXdpZHRoOjFweDt9I21lcm1haWQtc3ZnLTM1IC5yb3VnaC1ub2RlIC5sYWJlbCB0ZXh0LCNtZXJtYWlkLXN2Zy0zNSAubm9kZSAubGFiZWwgdGV4dCwjbWVybWFpZC1zdmctMzUgLmltYWdlLXNoYXBlIC5sYWJlbCwjbWVybWFpZC1zdmctMzUgLmljb24tc2hhcGUgLmxhYmVse3RleHQtYW5jaG9yOm1pZGRsZTt9I21lcm1haWQtc3ZnLTM1IC5ub2RlIC5rYXRleCBwYXRoe2ZpbGw6IzAwMDtzdHJva2U6IzAwMDtzdHJva2Utd2lkdGg6MXB4O30jbWVybWFpZC1zdmctMzUgLnJvdWdoLW5vZGUgLmxhYmVsLCNtZXJtYWlkLXN2Zy0zNSAubm9kZSAubGFiZWwsI21lcm1haWQtc3ZnLTM1IC5pbWFnZS1zaGFwZSAubGFiZWwsI21lcm1haWQtc3ZnLTM1IC5pY29uLXNoYXBlIC5sYWJlbHt0ZXh0LWFsaWduOmNlbnRlcjt9I21lcm1haWQtc3ZnLTM1IC5ub2RlLmNsaWNrYWJsZXtjdXJzb3I6cG9pbnRlcjt9I21lcm1haWQtc3ZnLTM1IC5yb290IC5hbmNob3IgcGF0aHtmaWxsOmxpZ2h0Z3JleSFpbXBvcnRhbnQ7c3Ryb2tlLXdpZHRoOjA7c3Ryb2tlOmxpZ2h0Z3JleTt9I21lcm1haWQtc3ZnLTM1IC5hcnJvd2hlYWRQYXRoe2ZpbGw6bGlnaHRncmV5O30jbWVybWFpZC1zdmctMzUgLmVkZ2VQYXRoIC5wYXRoe3N0cm9rZTpsaWdodGdyZXk7c3Ryb2tlLXdpZHRoOjIuMHB4O30jbWVybWFpZC1zdmctMzUgLmZsb3djaGFydC1saW5re3N0cm9rZTpsaWdodGdyZXk7ZmlsbDpub25lO30jbWVybWFpZC1zdmctMzUgLmVkZ2VMYWJlbHtiYWNrZ3JvdW5kLWNvbG9yOmhzbCgwLCAwJSwgMzQuNDExNzY0NzA1OSUpO3RleHQtYWxpZ246Y2VudGVyO30jbWVybWFpZC1zdmctMzUgLmVkZ2VMYWJlbCBwe2JhY2tncm91bmQtY29sb3I6aHNsKDAsIDAlLCAzNC40MTE3NjQ3MDU5JSk7fSNtZXJtYWlkLXN2Zy0zNSAuZWRnZUxhYmVsIHJlY3R7b3BhY2l0eTowLjU7YmFja2dyb3VuZC1jb2xvcjpoc2woMCwgMCUsIDM0LjQxMTc2NDcwNTklKTtmaWxsOmhzbCgwLCAwJSwgMzQuNDExNzY0NzA1OSUpO30jbWVybWFpZC1zdmctMzUgLmxhYmVsQmtne2JhY2tncm91bmQtY29sb3I6cmdiYSg4Ny43NSwgODcuNzUsIDg3Ljc1LCAwLjUpO30jbWVybWFpZC1zdmctMzUgLmNsdXN0ZXIgcmVjdHtmaWxsOmhzbCgxODAsIDEuNTg3MzAxNTg3MyUsIDI4LjM1Mjk0MTE3NjUlKTtzdHJva2U6cmdiYSgyNTUsIDI1NSwgMjU1LCAwLjI1KTtzdHJva2Utd2lkdGg6MXB4O30jbWVybWFpZC1zdmctMzUgLmNsdXN0ZXIgdGV4dHtmaWxsOiNGOUZGRkU7fSNtZXJtYWlkLXN2Zy0zNSAuY2x1c3RlciBzcGFue2NvbG9yOiNGOUZGRkU7fSNtZXJtYWlkLXN2Zy0zNSBkaXYubWVybWFpZFRvb2x0aXB7cG9zaXRpb246YWJzb2x1dGU7dGV4dC1hbGlnbjpjZW50ZXI7bWF4LXdpZHRoOjIwMHB4O3BhZGRpbmc6MnB4O2ZvbnQtZmFtaWx5OiJ0cmVidWNoZXQgbXMiLHZlcmRhbmEsYXJpYWwsc2Fucy1zZXJpZjtmb250LXNpemU6MTJweDtiYWNrZ3JvdW5kOmhzbCgyMCwgMS41ODczMDE1ODczJSwgMTIuMzUyOTQxMTc2NSUpO2JvcmRlcjoxcHggc29saWQgcmdiYSgyNTUsIDI1NSwgMjU1LCAwLjI1KTtib3JkZXItcmFkaXVzOjJweDtwb2ludGVyLWV2ZW50czpub25lO3otaW5kZXg6MTAwO30jbWVybWFpZC1zdmctMzUgLmZsb3djaGFydFRpdGxlVGV4dHt0ZXh0LWFuY2hvcjptaWRkbGU7Zm9udC1zaXplOjE4cHg7ZmlsbDojY2NjO30jbWVybWFpZC1zdmctMzUgcmVjdC50ZXh0e2ZpbGw6bm9uZTtzdHJva2Utd2lkdGg6MDt9I21lcm1haWQtc3ZnLTM1IC5pY29uLXNoYXBlLCNtZXJtYWlkLXN2Zy0zNSAuaW1hZ2Utc2hhcGV7YmFja2dyb3VuZC1jb2xvcjpoc2woMCwgMCUsIDM0LjQxMTc2NDcwNTklKTt0ZXh0LWFsaWduOmNlbnRlcjt9I21lcm1haWQtc3ZnLTM1IC5pY29uLXNoYXBlIHAsI21lcm1haWQtc3ZnLTM1IC5pbWFnZS1zaGFwZSBwe2JhY2tncm91bmQtY29sb3I6aHNsKDAsIDAlLCAzNC40MTE3NjQ3MDU5JSk7cGFkZGluZzoycHg7fSNtZXJtYWlkLXN2Zy0zNSAuaWNvbi1zaGFwZSByZWN0LCNtZXJtYWlkLXN2Zy0zNSAuaW1hZ2Utc2hhcGUgcmVjdHtvcGFjaXR5OjAuNTtiYWNrZ3JvdW5kLWNvbG9yOmhzbCgwLCAwJSwgMzQuNDExNzY0NzA1OSUpO2ZpbGw6aHNsKDAsIDAlLCAzNC40MTE3NjQ3MDU5JSk7fSNtZXJtYWlkLXN2Zy0zNSAubGFiZWwtaWNvbntkaXNwbGF5OmlubGluZS1ibG9jaztoZWlnaHQ6MWVtO292ZXJmbG93OnZpc2libGU7dmVydGljYWwtYWxpZ246LTAuMTI1ZW07fSNtZXJtYWlkLXN2Zy0zNSAubm9kZSAubGFiZWwtaWNvbiBwYXRoe2ZpbGw6Y3VycmVudENvbG9yO3N0cm9rZTpyZXZlcnQ7c3Ryb2tlLXdpZHRoOnJldmVydDt9I21lcm1haWQtc3ZnLTM1IDpyb290ey0tbWVybWFpZC1mb250LWZhbWlseToidHJlYnVjaGV0IG1zIix2ZXJkYW5hLGFyaWFsLHNhbnMtc2VyaWY7fTwvc3R5bGU+PGc+PG1hcmtlciBvcmllbnQ9ImF1dG8iIG1hcmtlckhlaWdodD0iOCIgbWFya2VyV2lkdGg9IjgiIG1hcmtlclVuaXRzPSJ1c2VyU3BhY2VPblVzZSIgcmVmWT0iNSIgcmVmWD0iNSIgdmlld0JveD0iMCAwIDEwIDEwIiBjbGFzcz0ibWFya2VyIGZsb3djaGFydC12MiIgaWQ9Im1lcm1haWQtc3ZnLTM1X2Zsb3djaGFydC12Mi1wb2ludEVuZCI+PHBhdGggc3R5bGU9InN0cm9rZS13aWR0aDogMTsgc3Ryb2tlLWRhc2hhcnJheTogMSwgMDsiIGNsYXNzPSJhcnJvd01hcmtlclBhdGgiIGQ9Ik0gMCAwIEwgMTAgNSBMIDAgMTAgeiIvPjwvbWFya2VyPjxtYXJrZXIgb3JpZW50PSJhdXRvIiBtYXJrZXJIZWlnaHQ9IjgiIG1hcmtlcldpZHRoPSI4IiBtYXJrZXJVbml0cz0idXNlclNwYWNlT25Vc2UiIHJlZlk9IjUiIHJlZlg9IjQuNSIgdmlld0JveD0iMCAwIDEwIDEwIiBjbGFzcz0ibWFya2VyIGZsb3djaGFydC12MiIgaWQ9Im1lcm1haWQtc3ZnLTM1X2Zsb3djaGFydC12Mi1wb2ludFN0YXJ0Ij48cGF0aCBzdHlsZT0ic3Ryb2tlLXdpZHRoOiAxOyBzdHJva2UtZGFzaGFycmF5OiAxLCAwOyIgY2xhc3M9ImFycm93TWFya2VyUGF0aCIgZD0iTSAwIDUgTCAxMCAxMCBMIDEwIDAgeiIvPjwvbWFya2VyPjxtYXJrZXIgb3JpZW50PSJhdXRvIiBtYXJrZXJIZWlnaHQ9IjExIiBtYXJrZXJXaWR0aD0iMTEiIG1hcmtlclVuaXRzPSJ1c2VyU3BhY2VPblVzZSIgcmVmWT0iNSIgcmVmWD0iMTEiIHZpZXdCb3g9IjAgMCAxMCAxMCIgY2xhc3M9Im1hcmtlciBmbG93Y2hhcnQtdjIiIGlkPSJtZXJtYWlkLXN2Zy0zNV9mbG93Y2hhcnQtdjItY2lyY2xlRW5kIj48Y2lyY2xlIHN0eWxlPSJzdHJva2Utd2lkdGg6IDE7IHN0cm9rZS1kYXNoYXJyYXk6IDEsIDA7IiBjbGFzcz0iYXJyb3dNYXJrZXJQYXRoIiByPSI1IiBjeT0iNSIgY3g9IjUiLz48L21hcmtlcj48bWFya2VyIG9yaWVudD0iYXV0byIgbWFya2VySGVpZ2h0PSIxMSIgbWFya2VyV2lkdGg9IjExIiBtYXJrZXJVbml0cz0idXNlclNwYWNlT25Vc2UiIHJlZlk9IjUiIHJlZlg9Ii0xIiB2aWV3Qm94PSIwIDAgMTAgMTAiIGNsYXNzPSJtYXJrZXIgZmxvd2NoYXJ0LXYyIiBpZD0ibWVybWFpZC1zdmctMzVfZmxvd2NoYXJ0LXYyLWNpcmNsZVN0YXJ0Ij48Y2lyY2xlIHN0eWxlPSJzdHJva2Utd2lkdGg6IDE7IHN0cm9rZS1kYXNoYXJyYXk6IDEsIDA7IiBjbGFzcz0iYXJyb3dNYXJrZXJQYXRoIiByPSI1IiBjeT0iNSIgY3g9IjUiLz48L21hcmtlcj48bWFya2VyIG9yaWVudD0iYXV0byIgbWFya2VySGVpZ2h0PSIxMSIgbWFya2VyV2lkdGg9IjExIiBtYXJrZXJVbml0cz0idXNlclNwYWNlT25Vc2UiIHJlZlk9IjUuMiIgcmVmWD0iMTIiIHZpZXdCb3g9IjAgMCAxMSAxMSIgY2xhc3M9Im1hcmtlciBjcm9zcyBmbG93Y2hhcnQtdjIiIGlkPSJtZXJtYWlkLXN2Zy0zNV9mbG93Y2hhcnQtdjItY3Jvc3NFbmQiPjxwYXRoIHN0eWxlPSJzdHJva2Utd2lkdGg6IDI7IHN0cm9rZS1kYXNoYXJyYXk6IDEsIDA7IiBjbGFzcz0iYXJyb3dNYXJrZXJQYXRoIiBkPSJNIDEsMSBsIDksOSBNIDEwLDEgbCAtOSw5Ii8+PC9tYXJrZXI+PG1hcmtlciBvcmllbnQ9ImF1dG8iIG1hcmtlckhlaWdodD0iMTEiIG1hcmtlcldpZHRoPSIxMSIgbWFya2VyVW5pdHM9InVzZXJTcGFjZU9uVXNlIiByZWZZPSI1LjIiIHJlZlg9Ii0xIiB2aWV3Qm94PSIwIDAgMTEgMTEiIGNsYXNzPSJtYXJrZXIgY3Jvc3MgZmxvd2NoYXJ0LXYyIiBpZD0ibWVybWFpZC1zdmctMzVfZmxvd2NoYXJ0LXYyLWNyb3NzU3RhcnQiPjxwYXRoIHN0eWxlPSJzdHJva2Utd2lkdGg6IDI7IHN0cm9rZS1kYXNoYXJyYXk6IDEsIDA7IiBjbGFzcz0iYXJyb3dNYXJrZXJQYXRoIiBkPSJNIDEsMSBsIDksOSBNIDEwLDEgbCAtOSw5Ii8+PC9tYXJrZXI+PGcgY2xhc3M9InJvb3QiPjxnIGNsYXNzPSJjbHVzdGVycyIvPjxnIGNsYXNzPSJlZGdlUGF0aHMiPjxwYXRoIG1hcmtlci1lbmQ9InVybCgjbWVybWFpZC1zdmctMzVfZmxvd2NoYXJ0LXYyLXBvaW50RW5kKSIgc3R5bGU9IiIgY2xhc3M9ImVkZ2UtdGhpY2tuZXNzLW5vcm1hbCBlZGdlLXBhdHRlcm4tc29saWQgZWRnZS10aGlja25lc3Mtbm9ybWFsIGVkZ2UtcGF0dGVybi1zb2xpZCBmbG93Y2hhcnQtbGluayIgaWQ9IkxfQV9CXzAiIGQ9Ik0yOTMsODZMMjkzLDkwLjE2N0MyOTMsOTQuMzMzLDI5MywxMDIuNjY3LDI5My4wNywxMTAuNDE3QzI5My4xNDEsMTE4LjE2NywyOTMuMjgxLDEyNS4zMzQsMjkzLjM1MSwxMjguOTE3TDI5My40MjIsMTMyLjUwMSIvPjxwYXRoIG1hcmtlci1lbmQ9InVybCgjbWVybWFpZC1zdmctMzVfZmxvd2NoYXJ0LXYyLXBvaW50RW5kKSIgc3R5bGU9IiIgY2xhc3M9ImVkZ2UtdGhpY2tuZXNzLW5vcm1hbCBlZGdlLXBhdHRlcm4tc29saWQgZWRnZS10aGlja25lc3Mtbm9ybWFsIGVkZ2UtcGF0dGVybi1zb2xpZCBmbG93Y2hhcnQtbGluayIgaWQ9IkxfQl9DXzAiIGQ9Ik0yMzYuMDEsMzA1LjQxTDIxOS42NzUsMzIxLjA3NUMyMDMuMzQsMzM2Ljc0LDE3MC42NywzNjguMDcsMTU0LjMzNSwzODkuMjM1QzEzOCw0MTAuNCwxMzgsNDIxLjQsMTM4LDQyNi45TDEzOCw0MzIuNCIvPjxwYXRoIG1hcmtlci1lbmQ9InVybCgjbWVybWFpZC1zdmctMzVfZmxvd2NoYXJ0LXYyLXBvaW50RW5kKSIgc3R5bGU9IiIgY2xhc3M9ImVkZ2UtdGhpY2tuZXNzLW5vcm1hbCBlZGdlLXBhdHRlcm4tc29saWQgZWRnZS10aGlja25lc3Mtbm9ybWFsIGVkZ2UtcGF0dGVybi1zb2xpZCBmbG93Y2hhcnQtbGluayIgaWQ9IkxfQ19EXzAiIGQ9Ik0xMzgsNTE0LjRMMTM4LDUxOC41NjdDMTM4LDUyMi43MzMsMTM4LDUzMS4wNjcsMTM4LDUzOC43MzNDMTM4LDU0Ni40LDEzOCw1NTMuNCwxMzgsNTU2LjlMMTM4LDU2MC40Ii8+PHBhdGggbWFya2VyLWVuZD0idXJsKCNtZXJtYWlkLXN2Zy0zNV9mbG93Y2hhcnQtdjItcG9pbnRFbmQpIiBzdHlsZT0iIiBjbGFzcz0iZWRnZS10aGlja25lc3Mtbm9ybWFsIGVkZ2UtcGF0dGVybi1zb2xpZCBlZGdlLXRoaWNrbmVzcy1ub3JtYWwgZWRnZS1wYXR0ZXJuLXNvbGlkIGZsb3djaGFydC1saW5rIiBpZD0iTF9EX0VfMCIgZD0iTTEzOCw2NDIuNEwxMzgsNjQ2LjU2N0MxMzgsNjUwLjczMywxMzgsNjU5LjA2NywxMzgsNjY2LjczM0MxMzgsNjc0LjQsMTM4LDY4MS40LDEzOCw2ODQuOUwxMzgsNjg4LjQiLz48cGF0aCBtYXJrZXItZW5kPSJ1cmwoI21lcm1haWQtc3ZnLTM1X2Zsb3djaGFydC12Mi1wb2ludEVuZCkiIHN0eWxlPSIiIGNsYXNzPSJlZGdlLXRoaWNrbmVzcy1ub3JtYWwgZWRnZS1wYXR0ZXJuLXNvbGlkIGVkZ2UtdGhpY2tuZXNzLW5vcm1hbCBlZGdlLXBhdHRlcm4tc29saWQgZmxvd2NoYXJ0LWxpbmsiIGlkPSJMX0JfRl8wIiBkPSJNMzUwLjk5LDMwNS40MUwzNjcuMTU4LDMyMS4wNzVDMzgzLjMyNywzMzYuNzQsNDE1LjY2MywzNjguMDcsNDMxLjgzMiwzOTEuMjM1QzQ0OCw0MTQuNCw0NDgsNDI5LjQsNDQ4LDQzNi45TDQ0OCw0NDQuNCIvPjxwYXRoIG1hcmtlci1lbmQ9InVybCgjbWVybWFpZC1zdmctMzVfZmxvd2NoYXJ0LXYyLXBvaW50RW5kKSIgc3R5bGU9IiIgY2xhc3M9ImVkZ2UtdGhpY2tuZXNzLW5vcm1hbCBlZGdlLXBhdHRlcm4tc29saWQgZWRnZS10aGlja25lc3Mtbm9ybWFsIGVkZ2UtcGF0dGVybi1zb2xpZCBmbG93Y2hhcnQtbGluayIgaWQ9IkxfRl9HXzAiIGQ9Ik00NDgsNTAyLjRMNDQ4LDUwOC41NjdDNDQ4LDUxNC43MzMsNDQ4LDUyNy4wNjcsNDQ4LDUzNi43MzNDNDQ4LDU0Ni40LDQ0OCw1NTMuNCw0NDgsNTU2LjlMNDQ4LDU2MC40Ii8+PHBhdGggbWFya2VyLWVuZD0idXJsKCNtZXJtYWlkLXN2Zy0zNV9mbG93Y2hhcnQtdjItcG9pbnRFbmQpIiBzdHlsZT0iIiBjbGFzcz0iZWRnZS10aGlja25lc3Mtbm9ybWFsIGVkZ2UtcGF0dGVybi1zb2xpZCBlZGdlLXRoaWNrbmVzcy1ub3JtYWwgZWRnZS1wYXR0ZXJuLXNvbGlkIGZsb3djaGFydC1saW5rIiBpZD0iTF9HX0hfMCIgZD0iTTQ0OCw2NDIuNEw0NDgsNjQ2LjU2N0M0NDgsNjUwLjczMyw0NDgsNjU5LjA2Nyw0NDgsNjY2LjczM0M0NDgsNjc0LjQsNDQ4LDY4MS40LDQ0OCw2ODQuOUw0NDgsNjg4LjQiLz48cGF0aCBtYXJrZXItZW5kPSJ1cmwoI21lcm1haWQtc3ZnLTM1X2Zsb3djaGFydC12Mi1wb2ludEVuZCkiIHN0eWxlPSIiIGNsYXNzPSJlZGdlLXRoaWNrbmVzcy1ub3JtYWwgZWRnZS1wYXR0ZXJuLXNvbGlkIGVkZ2UtdGhpY2tuZXNzLW5vcm1hbCBlZGdlLXBhdHRlcm4tc29saWQgZmxvd2NoYXJ0LWxpbmsiIGlkPSJMX0hfSV8wIiBkPSJNMzU4LjAzMyw3NDYuNEwzMzcuNDg0LDc1Mi41NjdDMzE2LjkzNiw3NTguNzMzLDI3NS44NCw3NzEuMDY3LDI1NS4yOTIsNzg5LjlDMjM0Ljc0NCw4MDguNzMzLDIzNC43NDQsODM0LjA2NywyMzQuNzQ0LDg1OS40QzIzNC43NDQsODg0LjczMywyMzQuNzQ0LDkxMC4wNjcsMjM0Ljc0NCw5MjguMjMzQzIzNC43NDQsOTQ2LjQsMjM0Ljc0NCw5NTcuNCwyMzQuNzQ0LDk2Mi45TDIzNC43NDQsOTY4LjQiLz48cGF0aCBtYXJrZXItZW5kPSJ1cmwoI21lcm1haWQtc3ZnLTM1X2Zsb3djaGFydC12Mi1wb2ludEVuZCkiIHN0eWxlPSIiIGNsYXNzPSJlZGdlLXRoaWNrbmVzcy1ub3JtYWwgZWRnZS1wYXR0ZXJuLXNvbGlkIGVkZ2UtdGhpY2tuZXNzLW5vcm1hbCBlZGdlLXBhdHRlcm4tc29saWQgZmxvd2NoYXJ0LWxpbmsiIGlkPSJMX0hfSl8wIiBkPSJNNTAzLjA2OSw3NDYuNEw1MTUuNjQ3LDc1Mi41NjdDNTI4LjIyNCw3NTguNzMzLDU1My4zNzksNzcxLjA2Nyw1NjUuOTU3LDc4Mi43MzNDNTc4LjUzNCw3OTQuNCw1NzguNTM0LDgwNS40LDU3OC41MzQsODEwLjlMNTc4LjUzNCw4MTYuNCIvPjxwYXRoIG1hcmtlci1lbmQ9InVybCgjbWVybWFpZC1zdmctMzVfZmxvd2NoYXJ0LXYyLXBvaW50RW5kKSIgc3R5bGU9IiIgY2xhc3M9ImVkZ2UtdGhpY2tuZXNzLW5vcm1hbCBlZGdlLXBhdHRlcm4tc29saWQgZWRnZS10aGlja25lc3Mtbm9ybWFsIGVkZ2UtcGF0dGVybi1zb2xpZCBmbG93Y2hhcnQtbGluayIgaWQ9IkxfSl9LXzAiIGQ9Ik01MzYuMDg1LDg5OC40TDUyOS4zNzMsOTA0LjU2N0M1MjIuNjYxLDkxMC43MzMsNTA5LjIzNyw5MjMuMDY3LDUwMi41MjUsOTM0LjczM0M0OTUuODEyLDk0Ni40LDQ5NS44MTIsOTU3LjQsNDk1LjgxMiw5NjIuOUw0OTUuODEyLDk2OC40Ii8+PHBhdGggbWFya2VyLWVuZD0idXJsKCNtZXJtYWlkLXN2Zy0zNV9mbG93Y2hhcnQtdjItcG9pbnRFbmQpIiBzdHlsZT0iIiBjbGFzcz0iZWRnZS10aGlja25lc3Mtbm9ybWFsIGVkZ2UtcGF0dGVybi1zb2xpZCBlZGdlLXRoaWNrbmVzcy1ub3JtYWwgZWRnZS1wYXR0ZXJuLXNvbGlkIGZsb3djaGFydC1saW5rIiBpZD0iTF9KX0xfMCIgZD0iTTYyMC45ODQsODk4LjRMNjI3LjY5Niw5MDQuNTY3QzYzNC40MDgsOTEwLjczMyw2NDcuODMyLDkyMy4wNjcsNjU0LjU0NCw5NDEuOUM2NjEuMjU2LDk2MC43MzMsNjYxLjI1Niw5ODYuMDY3LDY2MS4yNTYsMTAwOS40QzY2MS4yNTYsMTAzMi43MzMsNjYxLjI1NiwxMDU0LjA2Nyw2MzYuNjk3LDEwNzAuNzIyQzYxMi4xMzcsMTA4Ny4zNzcsNTYzLjAxOCwxMDk5LjM1NCw1MzguNDU4LDExMDUuMzQzTDUxMy44OTksMTExMS4zMzEiLz48cGF0aCBtYXJrZXItZW5kPSJ1cmwoI21lcm1haWQtc3ZnLTM1X2Zsb3djaGFydC12Mi1wb2ludEVuZCkiIHN0eWxlPSIiIGNsYXNzPSJlZGdlLXRoaWNrbmVzcy1ub3JtYWwgZWRnZS1wYXR0ZXJuLXNvbGlkIGVkZ2UtdGhpY2tuZXNzLW5vcm1hbCBlZGdlLXBhdHRlcm4tc29saWQgZmxvd2NoYXJ0LWxpbmsiIGlkPSJMX0lfTF8wIiBkPSJNMjM0Ljc0NCwxMDUwLjRMMjM0Ljc0NCwxMDU0LjU2N0MyMzQuNzQ0LDEwNTguNzMzLDIzNC43NDQsMTA2Ny4wNjcsMjU5LjMwMywxMDc3LjIyMkMyODMuODYzLDEwODcuMzc3LDMzMi45ODIsMTA5OS4zNTQsMzU3LjU0MiwxMTA1LjM0M0wzODIuMTAxLDExMTEuMzMxIi8+PHBhdGggbWFya2VyLWVuZD0idXJsKCNtZXJtYWlkLXN2Zy0zNV9mbG93Y2hhcnQtdjItcG9pbnRFbmQpIiBzdHlsZT0iIiBjbGFzcz0iZWRnZS10aGlja25lc3Mtbm9ybWFsIGVkZ2UtcGF0dGVybi1zb2xpZCBlZGdlLXRoaWNrbmVzcy1ub3JtYWwgZWRnZS1wYXR0ZXJuLXNvbGlkIGZsb3djaGFydC1saW5rIiBpZD0iTF9LX0xfMCIgZD0iTTQ5NS44MTIsMTA1MC40TDQ5NS44MTIsMTA1NC41NjdDNDk1LjgxMiwxMDU4LjczMyw0OTUuODEyLDEwNjcuMDY3LDQ5Mi40MzMsMTA3NC45MDlDNDg5LjA1MywxMDgyLjc1Miw0ODIuMjkzLDEwOTAuMTA0LDQ3OC45MTMsMTA5My43OEw0NzUuNTMzLDEwOTcuNDU2Ii8+PHBhdGggbWFya2VyLWVuZD0idXJsKCNtZXJtYWlkLXN2Zy0zNV9mbG93Y2hhcnQtdjItcG9pbnRFbmQpIiBzdHlsZT0iIiBjbGFzcz0iZWRnZS10aGlja25lc3Mtbm9ybWFsIGVkZ2UtcGF0dGVybi1zb2xpZCBlZGdlLXRoaWNrbmVzcy1ub3JtYWwgZWRnZS1wYXR0ZXJuLXNvbGlkIGZsb3djaGFydC1saW5rIiBpZD0iTF9MX01fMCIgZD0iTTQ0OCwxMTU0LjRMNDQ4LDExNTguNTY3QzQ0OCwxMTYyLjczMyw0NDgsMTE3MS4wNjcsNDQ4LDExNzguNzMzQzQ0OCwxMTg2LjQsNDQ4LDExOTMuNCw0NDgsMTE5Ni45TDQ0OCwxMjAwLjQiLz48cGF0aCBtYXJrZXItZW5kPSJ1cmwoI21lcm1haWQtc3ZnLTM1X2Zsb3djaGFydC12Mi1wb2ludEVuZCkiIHN0eWxlPSIiIGNsYXNzPSJlZGdlLXRoaWNrbmVzcy1ub3JtYWwgZWRnZS1wYXR0ZXJuLXNvbGlkIGVkZ2UtdGhpY2tuZXNzLW5vcm1hbCBlZGdlLXBhdHRlcm4tc29saWQgZmxvd2NoYXJ0LWxpbmsiIGlkPSJMX01fTl8wIiBkPSJNMzYwLjA1LDEyNTguNEwzMzkuOTYyLDEyNjQuNTY3QzMxOS44NzUsMTI3MC43MzMsMjc5LjcsMTI4My4wNjcsMjU5LjYxMiwxMzAxLjlDMjM5LjUyNSwxMzIwLjczMywyMzkuNTI1LDEzNDYuMDY3LDIzOS41MjUsMTM3MS40QzIzOS41MjUsMTM5Ni43MzMsMjM5LjUyNSwxNDIyLjA2NywyMzkuNTI1LDE0NDAuMjMzQzIzOS41MjUsMTQ1OC40LDIzOS41MjUsMTQ2OS40LDIzOS41MjUsMTQ3NC45TDIzOS41MjUsMTQ4MC40Ii8+PHBhdGggbWFya2VyLWVuZD0idXJsKCNtZXJtYWlkLXN2Zy0zNV9mbG93Y2hhcnQtdjItcG9pbnRFbmQpIiBzdHlsZT0iIiBjbGFzcz0iZWRnZS10aGlja25lc3Mtbm9ybWFsIGVkZ2UtcGF0dGVybi1zb2xpZCBlZGdlLXRoaWNrbmVzcy1ub3JtYWwgZWRnZS1wYXR0ZXJuLXNvbGlkIGZsb3djaGFydC1saW5rIiBpZD0iTF9NX09fMCIgZD0iTTUwMS42OTgsMTI1OC40TDUxMy45NjIsMTI2NC41NjdDNTI2LjIyNywxMjcwLjczMyw1NTAuNzU2LDEyODMuMDY3LDU2My4wMiwxMjk0LjczM0M1NzUuMjg0LDEzMDYuNCw1NzUuMjg0LDEzMTcuNCw1NzUuMjg0LDEzMjIuOUw1NzUuMjg0LDEzMjguNCIvPjxwYXRoIG1hcmtlci1lbmQ9InVybCgjbWVybWFpZC1zdmctMzVfZmxvd2NoYXJ0LXYyLXBvaW50RW5kKSIgc3R5bGU9IiIgY2xhc3M9ImVkZ2UtdGhpY2tuZXNzLW5vcm1hbCBlZGdlLXBhdHRlcm4tc29saWQgZWRnZS10aGlja25lc3Mtbm9ybWFsIGVkZ2UtcGF0dGVybi1zb2xpZCBmbG93Y2hhcnQtbGluayIgaWQ9IkxfT19QXzAiIGQ9Ik01MzMuNjIxLDE0MTAuNEw1MjcuMDMzLDE0MTYuNTY3QzUyMC40NDUsMTQyMi43MzMsNTA3LjI2OSwxNDM1LjA2Nyw1MDAuNjgyLDE0NDYuNzMzQzQ5NC4wOTQsMTQ1OC40LDQ5NC4wOTQsMTQ2OS40LDQ5NC4wOTQsMTQ3NC45TDQ5NC4wOTQsMTQ4MC40Ii8+PHBhdGggbWFya2VyLWVuZD0idXJsKCNtZXJtYWlkLXN2Zy0zNV9mbG93Y2hhcnQtdjItcG9pbnRFbmQpIiBzdHlsZT0iIiBjbGFzcz0iZWRnZS10aGlja25lc3Mtbm9ybWFsIGVkZ2UtcGF0dGVybi1zb2xpZCBlZGdlLXRoaWNrbmVzcy1ub3JtYWwgZWRnZS1wYXR0ZXJuLXNvbGlkIGZsb3djaGFydC1saW5rIiBpZD0iTF9PX1FfMCIgZD0iTTYxNi45NDgsMTQxMC40TDYyMy41MzYsMTQxNi41NjdDNjMwLjEyNCwxNDIyLjczMyw2NDMuMjk5LDE0MzUuMDY3LDY0OS44ODcsMTQ1My45QzY1Ni40NzUsMTQ3Mi43MzMsNjU2LjQ3NSwxNDk4LjA2Nyw2NTYuNDc1LDE1MjEuNEM2NTYuNDc1LDE1NDQuNzMzLDY1Ni40NzUsMTU2Ni4wNjcsNjMyLjcxMSwxNTgyLjY2MUM2MDguOTQ4LDE1OTkuMjU1LDU2MS40MjEsMTYxMS4xMDksNTM3LjY1NywxNjE3LjAzN0w1MTMuODk0LDE2MjIuOTY0Ii8+PHBhdGggbWFya2VyLWVuZD0idXJsKCNtZXJtYWlkLXN2Zy0zNV9mbG93Y2hhcnQtdjItcG9pbnRFbmQpIiBzdHlsZT0iIiBjbGFzcz0iZWRnZS10aGlja25lc3Mtbm9ybWFsIGVkZ2UtcGF0dGVybi1zb2xpZCBlZGdlLXRoaWNrbmVzcy1ub3JtYWwgZWRnZS1wYXR0ZXJuLXNvbGlkIGZsb3djaGFydC1saW5rIiBpZD0iTF9OX1FfMCIgZD0iTTIzOS41MjUsMTU2Mi40TDIzOS41MjUsMTU2Ni41NjdDMjM5LjUyNSwxNTcwLjczMywyMzkuNTI1LDE1NzkuMDY3LDI2My4yODksMTU4OS4xNjFDMjg3LjA1MiwxNTk5LjI1NSwzMzQuNTc5LDE2MTEuMTA5LDM1OC4zNDMsMTYxNy4wMzdMMzgyLjEwNiwxNjIyLjk2NCIvPjxwYXRoIG1hcmtlci1lbmQ9InVybCgjbWVybWFpZC1zdmctMzVfZmxvd2NoYXJ0LXYyLXBvaW50RW5kKSIgc3R5bGU9IiIgY2xhc3M9ImVkZ2UtdGhpY2tuZXNzLW5vcm1hbCBlZGdlLXBhdHRlcm4tc29saWQgZWRnZS10aGlja25lc3Mtbm9ybWFsIGVkZ2UtcGF0dGVybi1zb2xpZCBmbG93Y2hhcnQtbGluayIgaWQ9IkxfUF9RXzAiIGQ9Ik00OTQuMDk0LDE1NjIuNEw0OTQuMDk0LDE1NjYuNTY3QzQ5NC4wOTQsMTU3MC43MzMsNDk0LjA5NCwxNTc5LjA2Nyw0OTAuODQzLDE1ODYuOTAxQzQ4Ny41OTEsMTU5NC43MzYsNDgxLjA4OSwxNjAyLjA3MSw0NzcuODM4LDE2MDUuNzM5TDQ3NC41ODcsMTYwOS40MDciLz48cGF0aCBtYXJrZXItZW5kPSJ1cmwoI21lcm1haWQtc3ZnLTM1X2Zsb3djaGFydC12Mi1wb2ludEVuZCkiIHN0eWxlPSIiIGNsYXNzPSJlZGdlLXRoaWNrbmVzcy1ub3JtYWwgZWRnZS1wYXR0ZXJuLXNvbGlkIGVkZ2UtdGhpY2tuZXNzLW5vcm1hbCBlZGdlLXBhdHRlcm4tc29saWQgZmxvd2NoYXJ0LWxpbmsiIGlkPSJMX1FfUl8wIiBkPSJNNDQ4LDE2NjYuNEw0NDgsMTY3MC41NjdDNDQ4LDE2NzQuNzMzLDQ0OCwxNjgzLjA2Nyw0NDguMDcsMTY5MC44MTdDNDQ4LjE0MSwxNjk4LjU2Nyw0NDguMjgxLDE3MDUuNzM0LDQ0OC4zNTEsMTcwOS4zMTdMNDQ4LjQyMiwxNzEyLjkwMSIvPjxwYXRoIG1hcmtlci1lbmQ9InVybCgjbWVybWFpZC1zdmctMzVfZmxvd2NoYXJ0LXYyLXBvaW50RW5kKSIgc3R5bGU9IiIgY2xhc3M9ImVkZ2UtdGhpY2tuZXNzLW5vcm1hbCBlZGdlLXBhdHRlcm4tc29saWQgZWRnZS10aGlja25lc3Mtbm9ybWFsIGVkZ2UtcGF0dGVybi1zb2xpZCBmbG93Y2hhcnQtbGluayIgaWQ9IkxfUl9TXzAiIGQ9Ik00MDUuMTI5LDE4MjQuOTc5TDM4Ny4wOSwxODM4LjI5MUMzNjkuMDUxLDE4NTEuNjAzLDMzMi45NzIsMTg3OC4yMjYsMzE0LjkzMywxODk5LjAzOEMyOTYuODk0LDE5MTkuODUsMjk2Ljg5NCwxOTM0Ljg1LDI5Ni44OTQsMTk0Mi4zNUwyOTYuODk0LDE5NDkuODUiLz48cGF0aCBtYXJrZXItZW5kPSJ1cmwoI21lcm1haWQtc3ZnLTM1X2Zsb3djaGFydC12Mi1wb2ludEVuZCkiIHN0eWxlPSIiIGNsYXNzPSJlZGdlLXRoaWNrbmVzcy1ub3JtYWwgZWRnZS1wYXR0ZXJuLXNvbGlkIGVkZ2UtdGhpY2tuZXNzLW5vcm1hbCBlZGdlLXBhdHRlcm4tc29saWQgZmxvd2NoYXJ0LWxpbmsiIGlkPSJMX1JfVF8wIiBkPSJNNDkxLjg3MSwxODI0Ljk3OUw1MDkuNzQzLDE4MzguMjkxQzUyNy42MTYsMTg1MS42MDMsNTYzLjM2MSwxODc4LjIyNiw1ODEuMjM0LDE4OTcuMDM4QzU5OS4xMDYsMTkxNS44NSw1OTkuMTA2LDE5MjYuODUsNTk5LjEwNiwxOTMyLjM1TDU5OS4xMDYsMTkzNy44NSIvPjxwYXRoIG1hcmtlci1lbmQ9InVybCgjbWVybWFpZC1zdmctMzVfZmxvd2NoYXJ0LXYyLXBvaW50RW5kKSIgc3R5bGU9IiIgY2xhc3M9ImVkZ2UtdGhpY2tuZXNzLW5vcm1hbCBlZGdlLXBhdHRlcm4tc29saWQgZWRnZS10aGlja25lc3Mtbm9ybWFsIGVkZ2UtcGF0dGVybi1zb2xpZCBmbG93Y2hhcnQtbGluayIgaWQ9IkxfU19VXzAiIGQ9Ik0yOTYuODk0LDIwMzEuODVMMjk2Ljg5NCwyMDM4LjAxN0MyOTYuODk0LDIwNDQuMTgzLDI5Ni44OTQsMjA1Ni41MTcsMzE0LjI2MSwyMDY4LjY2QzMzMS42MjksMjA4MC44MDMsMzY2LjM2NCwyMDkyLjc1NywzODMuNzMxLDIwOTguNzMzTDQwMS4wOTksMjEwNC43MSIvPjxwYXRoIG1hcmtlci1lbmQ9InVybCgjbWVybWFpZC1zdmctMzVfZmxvd2NoYXJ0LXYyLXBvaW50RW5kKSIgc3R5bGU9IiIgY2xhc3M9ImVkZ2UtdGhpY2tuZXNzLW5vcm1hbCBlZGdlLXBhdHRlcm4tc29saWQgZWRnZS10aGlja25lc3Mtbm9ybWFsIGVkZ2UtcGF0dGVybi1zb2xpZCBmbG93Y2hhcnQtbGluayIgaWQ9IkxfVF9VXzAiIGQ9Ik01OTkuMTA2LDIwNDMuODVMNTk5LjEwNiwyMDQ4LjAxN0M1OTkuMTA2LDIwNTIuMTgzLDU5OS4xMDYsMjA2MC41MTcsNTgxLjczOSwyMDcwLjY2QzU2NC4zNzEsMjA4MC44MDMsNTI5LjYzNiwyMDkyLjc1Nyw1MTIuMjY5LDIwOTguNzMzTDQ5NC45MDEsMjEwNC43MSIvPjwvZz48ZyBjbGFzcz0iZWRnZUxhYmVscyI+PGcgY2xhc3M9ImVkZ2VMYWJlbCI+PGcgdHJhbnNmb3JtPSJ0cmFuc2xhdGUoMCwgMCkiIGNsYXNzPSJsYWJlbCI+PGZvcmVpZ25PYmplY3QgaGVpZ2h0PSIwIiB3aWR0aD0iMCI+PGRpdiB4bWxucz0iaHR0cDovL3d3dy53My5vcmcvMTk5OS94aHRtbCIgc3R5bGU9ImRpc3BsYXk6IHRhYmxlLWNlbGw7IHdoaXRlLXNwYWNlOiBub3dyYXA7IGxpbmUtaGVpZ2h0OiAxLjU7IG1heC13aWR0aDogMjAwcHg7IHRleHQtYWxpZ246IGNlbnRlcjsiIGNsYXNzPSJsYWJlbEJrZyI+PHNwYW4gY2xhc3M9ImVkZ2VMYWJlbCI+PC9zcGFuPjwvZGl2PjwvZm9yZWlnbk9iamVjdD48L2c+PC9nPjxnIHRyYW5zZm9ybT0idHJhbnNsYXRlKDEzOCwgMzk5LjQwMDAwOTE1NTI3MzQ0KSIgY2xhc3M9ImVkZ2VMYWJlbCI+PGcgdHJhbnNmb3JtPSJ0cmFuc2xhdGUoLTExLjMyNDk5OTgwOTI2NTEzNywgLTEyKSIgY2xhc3M9ImxhYmVsIj48Zm9yZWlnbk9iamVjdCBoZWlnaHQ9IjI0IiB3aWR0aD0iMjIuNjQ5OTk5NjE4NTMwMjczIj48ZGl2IHhtbG5zPSJodHRwOi8vd3d3LnczLm9yZy8xOTk5L3hodG1sIiBzdHlsZT0iZGlzcGxheTogdGFibGUtY2VsbDsgd2hpdGUtc3BhY2U6IG5vd3JhcDsgbGluZS1oZWlnaHQ6IDEuNTsgbWF4LXdpZHRoOiAyMDBweDsgdGV4dC1hbGlnbjogY2VudGVyOyIgY2xhc3M9ImxhYmVsQmtnIj48c3BhbiBjbGFzcz0iZWRnZUxhYmVsIj48cD5ZZXM8L3A+PC9zcGFuPjwvZGl2PjwvZm9yZWlnbk9iamVjdD48L2c+PC9nPjxnIGNsYXNzPSJlZGdlTGFiZWwiPjxnIHRyYW5zZm9ybT0idHJhbnNsYXRlKDAsIDApIiBjbGFzcz0ibGFiZWwiPjxmb3JlaWduT2JqZWN0IGhlaWdodD0iMCIgd2lkdGg9IjAiPjxkaXYgeG1sbnM9Imh0dHA6Ly93d3cudzMub3JnLzE5OTkveGh0bWwiIHN0eWxlPSJkaXNwbGF5OiB0YWJsZS1jZWxsOyB3aGl0ZS1zcGFjZTogbm93cmFwOyBsaW5lLWhlaWdodDogMS41OyBtYXgtd2lkdGg6IDIwMHB4OyB0ZXh0LWFsaWduOiBjZW50ZXI7IiBjbGFzcz0ibGFiZWxCa2ciPjxzcGFuIGNsYXNzPSJlZGdlTGFiZWwiPjwvc3Bhbj48L2Rpdj48L2ZvcmVpZ25PYmplY3Q+PC9nPjwvZz48ZyBjbGFzcz0iZWRnZUxhYmVsIj48ZyB0cmFuc2Zvcm09InRyYW5zbGF0ZSgwLCAwKSIgY2xhc3M9ImxhYmVsIj48Zm9yZWlnbk9iamVjdCBoZWlnaHQ9IjAiIHdpZHRoPSIwIj48ZGl2IHhtbG5zPSJodHRwOi8vd3d3LnczLm9yZy8xOTk5L3hodG1sIiBzdHlsZT0iZGlzcGxheTogdGFibGUtY2VsbDsgd2hpdGUtc3BhY2U6IG5vd3JhcDsgbGluZS1oZWlnaHQ6IDEuNTsgbWF4LXdpZHRoOiAyMDBweDsgdGV4dC1hbGlnbjogY2VudGVyOyIgY2xhc3M9ImxhYmVsQmtnIj48c3BhbiBjbGFzcz0iZWRnZUxhYmVsIj48L3NwYW4+PC9kaXY+PC9mb3JlaWduT2JqZWN0PjwvZz48L2c+PGcgdHJhbnNmb3JtPSJ0cmFuc2xhdGUoNDQ4LCAzOTkuNDAwMDA5MTU1MjczNDQpIiBjbGFzcz0iZWRnZUxhYmVsIj48ZyB0cmFuc2Zvcm09InRyYW5zbGF0ZSgtOS40MDAwMDA1NzIyMDQ1OSwgLTEyKSIgY2xhc3M9ImxhYmVsIj48Zm9yZWlnbk9iamVjdCBoZWlnaHQ9IjI0IiB3aWR0aD0iMTguODAwMDAxMTQ0NDA5MTgiPjxkaXYgeG1sbnM9Imh0dHA6Ly93d3cudzMub3JnLzE5OTkveGh0bWwiIHN0eWxlPSJkaXNwbGF5OiB0YWJsZS1jZWxsOyB3aGl0ZS1zcGFjZTogbm93cmFwOyBsaW5lLWhlaWdodDogMS41OyBtYXgtd2lkdGg6IDIwMHB4OyB0ZXh0LWFsaWduOiBjZW50ZXI7IiBjbGFzcz0ibGFiZWxCa2ciPjxzcGFuIGNsYXNzPSJlZGdlTGFiZWwiPjxwPk5vPC9wPjwvc3Bhbj48L2Rpdj48L2ZvcmVpZ25PYmplY3Q+PC9nPjwvZz48ZyBjbGFzcz0iZWRnZUxhYmVsIj48ZyB0cmFuc2Zvcm09InRyYW5zbGF0ZSgwLCAwKSIgY2xhc3M9ImxhYmVsIj48Zm9yZWlnbk9iamVjdCBoZWlnaHQ9IjAiIHdpZHRoPSIwIj48ZGl2IHhtbG5zPSJodHRwOi8vd3d3LnczLm9yZy8xOTk5L3hodG1sIiBzdHlsZT0iZGlzcGxheTogdGFibGUtY2VsbDsgd2hpdGUtc3BhY2U6IG5vd3JhcDsgbGluZS1oZWlnaHQ6IDEuNTsgbWF4LXdpZHRoOiAyMDBweDsgdGV4dC1hbGlnbjogY2VudGVyOyIgY2xhc3M9ImxhYmVsQmtnIj48c3BhbiBjbGFzcz0iZWRnZUxhYmVsIj48L3NwYW4+PC9kaXY+PC9mb3JlaWduT2JqZWN0PjwvZz48L2c+PGcgY2xhc3M9ImVkZ2VMYWJlbCI+PGcgdHJhbnNmb3JtPSJ0cmFuc2xhdGUoMCwgMCkiIGNsYXNzPSJsYWJlbCI+PGZvcmVpZ25PYmplY3QgaGVpZ2h0PSIwIiB3aWR0aD0iMCI+PGRpdiB4bWxucz0iaHR0cDovL3d3dy53My5vcmcvMTk5OS94aHRtbCIgc3R5bGU9ImRpc3BsYXk6IHRhYmxlLWNlbGw7IHdoaXRlLXNwYWNlOiBub3dyYXA7IGxpbmUtaGVpZ2h0OiAxLjU7IG1heC13aWR0aDogMjAwcHg7IHRleHQtYWxpZ246IGNlbnRlcjsiIGNsYXNzPSJsYWJlbEJrZyI+PHNwYW4gY2xhc3M9ImVkZ2VMYWJlbCI+PC9zcGFuPjwvZGl2PjwvZm9yZWlnbk9iamVjdD48L2c+PC9nPjxnIHRyYW5zZm9ybT0idHJhbnNsYXRlKDIzNC43NDM3NDk2MTg1MzAyNywgODU5LjQwMDAwOTE1NTI3MzQpIiBjbGFzcz0iZWRnZUxhYmVsIj48ZyB0cmFuc2Zvcm09InRyYW5zbGF0ZSgtMzMuNTQzNzUwNzYyOTM5NDUsIC0xMikiIGNsYXNzPSJsYWJlbCI+PGZvcmVpZ25PYmplY3QgaGVpZ2h0PSIyNCIgd2lkdGg9IjY3LjA4NzUwMTUyNTg3ODkiPjxkaXYgeG1sbnM9Imh0dHA6Ly93d3cudzMub3JnLzE5OTkveGh0bWwiIHN0eWxlPSJkaXNwbGF5OiB0YWJsZS1jZWxsOyB3aGl0ZS1zcGFjZTogbm93cmFwOyBsaW5lLWhlaWdodDogMS41OyBtYXgtd2lkdGg6IDIwMHB4OyB0ZXh0LWFsaWduOiBjZW50ZXI7IiBjbGFzcz0ibGFiZWxCa2ciPjxzcGFuIGNsYXNzPSJlZGdlTGFiZWwiPjxwPk1pc21hdGNoPC9wPjwvc3Bhbj48L2Rpdj48L2ZvcmVpZ25PYmplY3Q+PC9nPjwvZz48ZyB0cmFuc2Zvcm09InRyYW5zbGF0ZSg1NzguNTM0Mzc0MjM3MDYwNSwgNzgzLjQwMDAwOTE1NTI3MzQpIiBjbGFzcz0iZWRnZUxhYmVsIj48ZyB0cmFuc2Zvcm09InRyYW5zbGF0ZSgtMjEuMzg3NTAwNzYyOTM5NDUzLCAtMTIpIiBjbGFzcz0ibGFiZWwiPjxmb3JlaWduT2JqZWN0IGhlaWdodD0iMjQiIHdpZHRoPSI0Mi43NzUwMDE1MjU4Nzg5MDYiPjxkaXYgeG1sbnM9Imh0dHA6Ly93d3cudzMub3JnLzE5OTkveGh0bWwiIHN0eWxlPSJkaXNwbGF5OiB0YWJsZS1jZWxsOyB3aGl0ZS1zcGFjZTogbm93cmFwOyBsaW5lLWhlaWdodDogMS41OyBtYXgtd2lkdGg6IDIwMHB4OyB0ZXh0LWFsaWduOiBjZW50ZXI7IiBjbGFzcz0ibGFiZWxCa2ciPjxzcGFuIGNsYXNzPSJlZGdlTGFiZWwiPjxwPk1hdGNoPC9wPjwvc3Bhbj48L2Rpdj48L2ZvcmVpZ25PYmplY3Q+PC9nPjwvZz48ZyB0cmFuc2Zvcm09InRyYW5zbGF0ZSg0OTUuODEyNDk4MDkyNjUxMzcsIDkzNS40MDAwMDkxNTUyNzM0KSIgY2xhc3M9ImVkZ2VMYWJlbCI+PGcgdHJhbnNmb3JtPSJ0cmFuc2xhdGUoLTQ4Ljk5Mzc1MTUyNTg3ODkwNiwgLTEyKSIgY2xhc3M9ImxhYmVsIj48Zm9yZWlnbk9iamVjdCBoZWlnaHQ9IjI0IiB3aWR0aD0iOTcuOTg3NTAzMDUxNzU3ODEiPjxkaXYgeG1sbnM9Imh0dHA6Ly93d3cudzMub3JnLzE5OTkveGh0bWwiIHN0eWxlPSJkaXNwbGF5OiB0YWJsZS1jZWxsOyB3aGl0ZS1zcGFjZTogbm93cmFwOyBsaW5lLWhlaWdodDogMS41OyBtYXgtd2lkdGg6IDIwMHB4OyB0ZXh0LWFsaWduOiBjZW50ZXI7IiBjbGFzcz0ibGFiZWxCa2ciPjxzcGFuIGNsYXNzPSJlZGdlTGFiZWwiPjxwPkFueSBNaXNtYXRjaDwvcD48L3NwYW4+PC9kaXY+PC9mb3JlaWduT2JqZWN0PjwvZz48L2c+PGcgdHJhbnNmb3JtPSJ0cmFuc2xhdGUoNjYxLjI1NjI1MDM4MTQ2OTcsIDEwMTEuNDAwMDA5MTU1MjczNCkiIGNsYXNzPSJlZGdlTGFiZWwiPjxnIHRyYW5zZm9ybT0idHJhbnNsYXRlKC0zMy4yMzEyNTA3NjI5Mzk0NSwgLTEyKSIgY2xhc3M9ImxhYmVsIj48Zm9yZWlnbk9iamVjdCBoZWlnaHQ9IjI0IiB3aWR0aD0iNjYuNDYyNTAxNTI1ODc4OSI+PGRpdiB4bWxucz0iaHR0cDovL3d3dy53My5vcmcvMTk5OS94aHRtbCIgc3R5bGU9ImRpc3BsYXk6IHRhYmxlLWNlbGw7IHdoaXRlLXNwYWNlOiBub3dyYXA7IGxpbmUtaGVpZ2h0OiAxLjU7IG1heC13aWR0aDogMjAwcHg7IHRleHQtYWxpZ246IGNlbnRlcjsiIGNsYXNzPSJsYWJlbEJrZyI+PHNwYW4gY2xhc3M9ImVkZ2VMYWJlbCI+PHA+QWxsIE1hdGNoPC9wPjwvc3Bhbj48L2Rpdj48L2ZvcmVpZ25PYmplY3Q+PC9nPjwvZz48ZyBjbGFzcz0iZWRnZUxhYmVsIj48ZyB0cmFuc2Zvcm09InRyYW5zbGF0ZSgwLCAwKSIgY2xhc3M9ImxhYmVsIj48Zm9yZWlnbk9iamVjdCBoZWlnaHQ9IjAiIHdpZHRoPSIwIj48ZGl2IHhtbG5zPSJodHRwOi8vd3d3LnczLm9yZy8xOTk5L3hodG1sIiBzdHlsZT0iZGlzcGxheTogdGFibGUtY2VsbDsgd2hpdGUtc3BhY2U6IG5vd3JhcDsgbGluZS1oZWlnaHQ6IDEuNTsgbWF4LXdpZHRoOiAyMDBweDsgdGV4dC1hbGlnbjogY2VudGVyOyIgY2xhc3M9ImxhYmVsQmtnIj48c3BhbiBjbGFzcz0iZWRnZUxhYmVsIj48L3NwYW4+PC9kaXY+PC9mb3JlaWduT2JqZWN0PjwvZz48L2c+PGcgY2xhc3M9ImVkZ2VMYWJlbCI+PGcgdHJhbnNmb3JtPSJ0cmFuc2xhdGUoMCwgMCkiIGNsYXNzPSJsYWJlbCI+PGZvcmVpZ25PYmplY3QgaGVpZ2h0PSIwIiB3aWR0aD0iMCI+PGRpdiB4bWxucz0iaHR0cDovL3d3dy53My5vcmcvMTk5OS94aHRtbCIgc3R5bGU9ImRpc3BsYXk6IHRhYmxlLWNlbGw7IHdoaXRlLXNwYWNlOiBub3dyYXA7IGxpbmUtaGVpZ2h0OiAxLjU7IG1heC13aWR0aDogMjAwcHg7IHRleHQtYWxpZ246IGNlbnRlcjsiIGNsYXNzPSJsYWJlbEJrZyI+PHNwYW4gY2xhc3M9ImVkZ2VMYWJlbCI+PC9zcGFuPjwvZGl2PjwvZm9yZWlnbk9iamVjdD48L2c+PC9nPjxnIGNsYXNzPSJlZGdlTGFiZWwiPjxnIHRyYW5zZm9ybT0idHJhbnNsYXRlKDAsIDApIiBjbGFzcz0ibGFiZWwiPjxmb3JlaWduT2JqZWN0IGhlaWdodD0iMCIgd2lkdGg9IjAiPjxkaXYgeG1sbnM9Imh0dHA6Ly93d3cudzMub3JnLzE5OTkveGh0bWwiIHN0eWxlPSJkaXNwbGF5OiB0YWJsZS1jZWxsOyB3aGl0ZS1zcGFjZTogbm93cmFwOyBsaW5lLWhlaWdodDogMS41OyBtYXgtd2lkdGg6IDIwMHB4OyB0ZXh0LWFsaWduOiBjZW50ZXI7IiBjbGFzcz0ibGFiZWxCa2ciPjxzcGFuIGNsYXNzPSJlZGdlTGFiZWwiPjwvc3Bhbj48L2Rpdj48L2ZvcmVpZ25PYmplY3Q+PC9nPjwvZz48ZyB0cmFuc2Zvcm09InRyYW5zbGF0ZSgyMzkuNTI0OTk5NjE4NTMwMjcsIDEzNzEuNDAwMDA5MTU1MjczNCkiIGNsYXNzPSJlZGdlTGFiZWwiPjxnIHRyYW5zZm9ybT0idHJhbnNsYXRlKC0zMy41NDM3NTA3NjI5Mzk0NSwgLTEyKSIgY2xhc3M9ImxhYmVsIj48Zm9yZWlnbk9iamVjdCBoZWlnaHQ9IjI0IiB3aWR0aD0iNjcuMDg3NTAxNTI1ODc4OSI+PGRpdiB4bWxucz0iaHR0cDovL3d3dy53My5vcmcvMTk5OS94aHRtbCIgc3R5bGU9ImRpc3BsYXk6IHRhYmxlLWNlbGw7IHdoaXRlLXNwYWNlOiBub3dyYXA7IGxpbmUtaGVpZ2h0OiAxLjU7IG1heC13aWR0aDogMjAwcHg7IHRleHQtYWxpZ246IGNlbnRlcjsiIGNsYXNzPSJsYWJlbEJrZyI+PHNwYW4gY2xhc3M9ImVkZ2VMYWJlbCI+PHA+TWlzbWF0Y2g8L3A+PC9zcGFuPjwvZGl2PjwvZm9yZWlnbk9iamVjdD48L2c+PC9nPjxnIHRyYW5zZm9ybT0idHJhbnNsYXRlKDU3NS4yODQzNzQyMzcwNjA1LCAxMjk1LjQwMDAwOTE1NTI3MzQpIiBjbGFzcz0iZWRnZUxhYmVsIj48ZyB0cmFuc2Zvcm09InRyYW5zbGF0ZSgtMjEuMzg3NTAwNzYyOTM5NDUzLCAtMTIpIiBjbGFzcz0ibGFiZWwiPjxmb3JlaWduT2JqZWN0IGhlaWdodD0iMjQiIHdpZHRoPSI0Mi43NzUwMDE1MjU4Nzg5MDYiPjxkaXYgeG1sbnM9Imh0dHA6Ly93d3cudzMub3JnLzE5OTkveGh0bWwiIHN0eWxlPSJkaXNwbGF5OiB0YWJsZS1jZWxsOyB3aGl0ZS1zcGFjZTogbm93cmFwOyBsaW5lLWhlaWdodDogMS41OyBtYXgtd2lkdGg6IDIwMHB4OyB0ZXh0LWFsaWduOiBjZW50ZXI7IiBjbGFzcz0ibGFiZWxCa2ciPjxzcGFuIGNsYXNzPSJlZGdlTGFiZWwiPjxwPk1hdGNoPC9wPjwvc3Bhbj48L2Rpdj48L2ZvcmVpZ25PYmplY3Q+PC9nPjwvZz48ZyB0cmFuc2Zvcm09InRyYW5zbGF0ZSg0OTQuMDkzNzQ4MDkyNjUxMzcsIDE0NDcuNDAwMDA5MTU1MjczNCkiIGNsYXNzPSJlZGdlTGFiZWwiPjxnIHRyYW5zZm9ybT0idHJhbnNsYXRlKC00OC45OTM3NTE1MjU4Nzg5MDYsIC0xMikiIGNsYXNzPSJsYWJlbCI+PGZvcmVpZ25PYmplY3QgaGVpZ2h0PSIyNCIgd2lkdGg9Ijk3Ljk4NzUwMzA1MTc1NzgxIj48ZGl2IHhtbG5zPSJodHRwOi8vd3d3LnczLm9yZy8xOTk5L3hodG1sIiBzdHlsZT0iZGlzcGxheTogdGFibGUtY2VsbDsgd2hpdGUtc3BhY2U6IG5vd3JhcDsgbGluZS1oZWlnaHQ6IDEuNTsgbWF4LXdpZHRoOiAyMDBweDsgdGV4dC1hbGlnbjogY2VudGVyOyIgY2xhc3M9ImxhYmVsQmtnIj48c3BhbiBjbGFzcz0iZWRnZUxhYmVsIj48cD5BbnkgTWlzbWF0Y2g8L3A+PC9zcGFuPjwvZGl2PjwvZm9yZWlnbk9iamVjdD48L2c+PC9nPjxnIHRyYW5zZm9ybT0idHJhbnNsYXRlKDY1Ni40NzUwMDAzODE0Njk3LCAxNTIzLjQwMDAwOTE1NTI3MzQpIiBjbGFzcz0iZWRnZUxhYmVsIj48ZyB0cmFuc2Zvcm09InRyYW5zbGF0ZSgtMzMuMjMxMjUwNzYyOTM5NDUsIC0xMikiIGNsYXNzPSJsYWJlbCI+PGZvcmVpZ25PYmplY3QgaGVpZ2h0PSIyNCIgd2lkdGg9IjY2LjQ2MjUwMTUyNTg3ODkiPjxkaXYgeG1sbnM9Imh0dHA6Ly93d3cudzMub3JnLzE5OTkveGh0bWwiIHN0eWxlPSJkaXNwbGF5OiB0YWJsZS1jZWxsOyB3aGl0ZS1zcGFjZTogbm93cmFwOyBsaW5lLWhlaWdodDogMS41OyBtYXgtd2lkdGg6IDIwMHB4OyB0ZXh0LWFsaWduOiBjZW50ZXI7IiBjbGFzcz0ibGFiZWxCa2ciPjxzcGFuIGNsYXNzPSJlZGdlTGFiZWwiPjxwPkFsbCBNYXRjaDwvcD48L3NwYW4+PC9kaXY+PC9mb3JlaWduT2JqZWN0PjwvZz48L2c+PGcgY2xhc3M9ImVkZ2VMYWJlbCI+PGcgdHJhbnNmb3JtPSJ0cmFuc2xhdGUoMCwgMCkiIGNsYXNzPSJsYWJlbCI+PGZvcmVpZ25PYmplY3QgaGVpZ2h0PSIwIiB3aWR0aD0iMCI+PGRpdiB4bWxucz0iaHR0cDovL3d3dy53My5vcmcvMTk5OS94aHRtbCIgc3R5bGU9ImRpc3BsYXk6IHRhYmxlLWNlbGw7IHdoaXRlLXNwYWNlOiBub3dyYXA7IGxpbmUtaGVpZ2h0OiAxLjU7IG1heC13aWR0aDogMjAwcHg7IHRleHQtYWxpZ246IGNlbnRlcjsiIGNsYXNzPSJsYWJlbEJrZyI+PHNwYW4gY2xhc3M9ImVkZ2VMYWJlbCI+PC9zcGFuPjwvZGl2PjwvZm9yZWlnbk9iamVjdD48L2c+PC9nPjxnIGNsYXNzPSJlZGdlTGFiZWwiPjxnIHRyYW5zZm9ybT0idHJhbnNsYXRlKDAsIDApIiBjbGFzcz0ibGFiZWwiPjxmb3JlaWduT2JqZWN0IGhlaWdodD0iMCIgd2lkdGg9IjAiPjxkaXYgeG1sbnM9Imh0dHA6Ly93d3cudzMub3JnLzE5OTkveGh0bWwiIHN0eWxlPSJkaXNwbGF5OiB0YWJsZS1jZWxsOyB3aGl0ZS1zcGFjZTogbm93cmFwOyBsaW5lLWhlaWdodDogMS41OyBtYXgtd2lkdGg6IDIwMHB4OyB0ZXh0LWFsaWduOiBjZW50ZXI7IiBjbGFzcz0ibGFiZWxCa2ciPjxzcGFuIGNsYXNzPSJlZGdlTGFiZWwiPjwvc3Bhbj48L2Rpdj48L2ZvcmVpZ25PYmplY3Q+PC9nPjwvZz48ZyBjbGFzcz0iZWRnZUxhYmVsIj48ZyB0cmFuc2Zvcm09InRyYW5zbGF0ZSgwLCAwKSIgY2xhc3M9ImxhYmVsIj48Zm9yZWlnbk9iamVjdCBoZWlnaHQ9IjAiIHdpZHRoPSIwIj48ZGl2IHhtbG5zPSJodHRwOi8vd3d3LnczLm9yZy8xOTk5L3hodG1sIiBzdHlsZT0iZGlzcGxheTogdGFibGUtY2VsbDsgd2hpdGUtc3BhY2U6IG5vd3JhcDsgbGluZS1oZWlnaHQ6IDEuNTsgbWF4LXdpZHRoOiAyMDBweDsgdGV4dC1hbGlnbjogY2VudGVyOyIgY2xhc3M9ImxhYmVsQmtnIj48c3BhbiBjbGFzcz0iZWRnZUxhYmVsIj48L3NwYW4+PC9kaXY+PC9mb3JlaWduT2JqZWN0PjwvZz48L2c+PGcgdHJhbnNmb3JtPSJ0cmFuc2xhdGUoMjk2Ljg5Mzc0OTIzNzA2MDU1LCAxOTA0Ljg1MDAyMTM2MjMwNDcpIiBjbGFzcz0iZWRnZUxhYmVsIj48ZyB0cmFuc2Zvcm09InRyYW5zbGF0ZSgtMTEuMzI0OTk5ODA5MjY1MTM3LCAtMTIpIiBjbGFzcz0ibGFiZWwiPjxmb3JlaWduT2JqZWN0IGhlaWdodD0iMjQiIHdpZHRoPSIyMi42NDk5OTk2MTg1MzAyNzMiPjxkaXYgeG1sbnM9Imh0dHA6Ly93d3cudzMub3JnLzE5OTkveGh0bWwiIHN0eWxlPSJkaXNwbGF5OiB0YWJsZS1jZWxsOyB3aGl0ZS1zcGFjZTogbm93cmFwOyBsaW5lLWhlaWdodDogMS41OyBtYXgtd2lkdGg6IDIwMHB4OyB0ZXh0LWFsaWduOiBjZW50ZXI7IiBjbGFzcz0ibGFiZWxCa2ciPjxzcGFuIGNsYXNzPSJlZGdlTGFiZWwiPjxwPlllczwvcD48L3NwYW4+PC9kaXY+PC9mb3JlaWduT2JqZWN0PjwvZz48L2c+PGcgdHJhbnNmb3JtPSJ0cmFuc2xhdGUoNTk5LjEwNjI1MDc2MjkzOTUsIDE5MDQuODUwMDIxMzYyMzA0NykiIGNsYXNzPSJlZGdlTGFiZWwiPjxnIHRyYW5zZm9ybT0idHJhbnNsYXRlKC05LjQwMDAwMDU3MjIwNDU5LCAtMTIpIiBjbGFzcz0ibGFiZWwiPjxmb3JlaWduT2JqZWN0IGhlaWdodD0iMjQiIHdpZHRoPSIxOC44MDAwMDExNDQ0MDkxOCI+PGRpdiB4bWxucz0iaHR0cDovL3d3dy53My5vcmcvMTk5OS94aHRtbCIgc3R5bGU9ImRpc3BsYXk6IHRhYmxlLWNlbGw7IHdoaXRlLXNwYWNlOiBub3dyYXA7IGxpbmUtaGVpZ2h0OiAxLjU7IG1heC13aWR0aDogMjAwcHg7IHRleHQtYWxpZ246IGNlbnRlcjsiIGNsYXNzPSJsYWJlbEJrZyI+PHNwYW4gY2xhc3M9ImVkZ2VMYWJlbCI+PHA+Tm88L3A+PC9zcGFuPjwvZGl2PjwvZm9yZWlnbk9iamVjdD48L2c+PC9nPjxnIGNsYXNzPSJlZGdlTGFiZWwiPjxnIHRyYW5zZm9ybT0idHJhbnNsYXRlKDAsIDApIiBjbGFzcz0ibGFiZWwiPjxmb3JlaWduT2JqZWN0IGhlaWdodD0iMCIgd2lkdGg9IjAiPjxkaXYgeG1sbnM9Imh0dHA6Ly93d3cudzMub3JnLzE5OTkveGh0bWwiIHN0eWxlPSJkaXNwbGF5OiB0YWJsZS1jZWxsOyB3aGl0ZS1zcGFjZTogbm93cmFwOyBsaW5lLWhlaWdodDogMS41OyBtYXgtd2lkdGg6IDIwMHB4OyB0ZXh0LWFsaWduOiBjZW50ZXI7IiBjbGFzcz0ibGFiZWxCa2ciPjxzcGFuIGNsYXNzPSJlZGdlTGFiZWwiPjwvc3Bhbj48L2Rpdj48L2ZvcmVpZ25PYmplY3Q+PC9nPjwvZz48ZyBjbGFzcz0iZWRnZUxhYmVsIj48ZyB0cmFuc2Zvcm09InRyYW5zbGF0ZSgwLCAwKSIgY2xhc3M9ImxhYmVsIj48Zm9yZWlnbk9iamVjdCBoZWlnaHQ9IjAiIHdpZHRoPSIwIj48ZGl2IHhtbG5zPSJodHRwOi8vd3d3LnczLm9yZy8xOTk5L3hodG1sIiBzdHlsZT0iZGlzcGxheTogdGFibGUtY2VsbDsgd2hpdGUtc3BhY2U6IG5vd3JhcDsgbGluZS1oZWlnaHQ6IDEuNTsgbWF4LXdpZHRoOiAyMDBweDsgdGV4dC1hbGlnbjogY2VudGVyOyIgY2xhc3M9ImxhYmVsQmtnIj48c3BhbiBjbGFzcz0iZWRnZUxhYmVsIj48L3NwYW4+PC9kaXY+PC9mb3JlaWduT2JqZWN0PjwvZz48L2c+PC9nPjxnIGNsYXNzPSJub2RlcyI+PGcgdHJhbnNmb3JtPSJ0cmFuc2xhdGUoMjkzLCA0NykiIGlkPSJmbG93Y2hhcnQtQS0wIiBjbGFzcz0ibm9kZSBkZWZhdWx0Ij48cmVjdCBoZWlnaHQ9Ijc4IiB3aWR0aD0iMjYwIiB5PSItMzkiIHg9Ii0xMzAiIHN0eWxlPSIiIGNsYXNzPSJiYXNpYyBsYWJlbC1jb250YWluZXIiLz48ZyB0cmFuc2Zvcm09InRyYW5zbGF0ZSgtMTAwLCAtMjQpIiBzdHlsZT0iIiBjbGFzcz0ibGFiZWwiPjxyZWN0Lz48Zm9yZWlnbk9iamVjdCBoZWlnaHQ9IjQ4IiB3aWR0aD0iMjAwIj48ZGl2IHhtbG5zPSJodHRwOi8vd3d3LnczLm9yZy8xOTk5L3hodG1sIiBzdHlsZT0iZGlzcGxheTogdGFibGU7IHdoaXRlLXNwYWNlOiBicmVhay1zcGFjZXM7IGxpbmUtaGVpZ2h0OiAxLjU7IG1heC13aWR0aDogMjAwcHg7IHRleHQtYWxpZ246IGNlbnRlcjsgd2lkdGg6IDIwMHB4OyI+PHNwYW4gY2xhc3M9Im5vZGVMYWJlbCI+PHA+U3RhcnQ6IEFjdHVhbCBYR01JSSBQYWNrZXQgUmVjZWl2ZWQ8L3A+PC9zcGFuPjwvZGl2PjwvZm9yZWlnbk9iamVjdD48L2c+PC9nPjxnIHRyYW5zZm9ybT0idHJhbnNsYXRlKDI5MywgMjQ5LjIwMDAwNDU3NzYzNjcyKSIgaWQ9ImZsb3djaGFydC1CLTEiIGNsYXNzPSJub2RlIGRlZmF1bHQiPjxwb2x5Z29uIHRyYW5zZm9ybT0idHJhbnNsYXRlKC0xMTIuNzAwMDA0NTc3NjM2NzIsIDExMy4yMDAwMDQ1Nzc2MzY3MikiIGNsYXNzPSJsYWJlbC1jb250YWluZXIiIHBvaW50cz0iMTEzLjIwMDAwNDU3NzYzNjcyLDAgMjI2LjQwMDAwOTE1NTI3MzQ0LC0xMTMuMjAwMDA0NTc3NjM2NzIgMTEzLjIwMDAwNDU3NzYzNjcyLC0yMjYuNDAwMDA5MTU1MjczNDQgMCwtMTEzLjIwMDAwNDU3NzYzNjcyIi8+PGcgdHJhbnNmb3JtPSJ0cmFuc2xhdGUoLTg2LjIwMDAwNDU3NzYzNjcyLCAtMTIpIiBzdHlsZT0iIiBjbGFzcz0ibGFiZWwiPjxyZWN0Lz48Zm9yZWlnbk9iamVjdCBoZWlnaHQ9IjI0IiB3aWR0aD0iMTcyLjQwMDAwOTE1NTI3MzQ0Ij48ZGl2IHhtbG5zPSJodHRwOi8vd3d3LnczLm9yZy8xOTk5L3hodG1sIiBzdHlsZT0iZGlzcGxheTogdGFibGUtY2VsbDsgd2hpdGUtc3BhY2U6IG5vd3JhcDsgbGluZS1oZWlnaHQ6IDEuNTsgbWF4LXdpZHRoOiAyMDBweDsgdGV4dC1hbGlnbjogY2VudGVyOyI+PHNwYW4gY2xhc3M9Im5vZGVMYWJlbCI+PHA+RXhwZWN0ZWQgUXVldWUgRW1wdHk/PC9wPjwvc3Bhbj48L2Rpdj48L2ZvcmVpZ25PYmplY3Q+PC9nPjwvZz48ZyB0cmFuc2Zvcm09InRyYW5zbGF0ZSgxMzgsIDQ3NS40MDAwMDkxNTUyNzM0NCkiIGlkPSJmbG93Y2hhcnQtQy0zIiBjbGFzcz0ibm9kZSBkZWZhdWx0Ij48cmVjdCBoZWlnaHQ9Ijc4IiB3aWR0aD0iMjYwIiB5PSItMzkiIHg9Ii0xMzAiIHN0eWxlPSIiIGNsYXNzPSJiYXNpYyBsYWJlbC1jb250YWluZXIiLz48ZyB0cmFuc2Zvcm09InRyYW5zbGF0ZSgtMTAwLCAtMjQpIiBzdHlsZT0iIiBjbGFzcz0ibGFiZWwiPjxyZWN0Lz48Zm9yZWlnbk9iamVjdCBoZWlnaHQ9IjQ4IiB3aWR0aD0iMjAwIj48ZGl2IHhtbG5zPSJodHRwOi8vd3d3LnczLm9yZy8xOTk5L3hodG1sIiBzdHlsZT0iZGlzcGxheTogdGFibGU7IHdoaXRlLXNwYWNlOiBicmVhay1zcGFjZXM7IGxpbmUtaGVpZ2h0OiAxLjU7IG1heC13aWR0aDogMjAwcHg7IHRleHQtYWxpZ246IGNlbnRlcjsgd2lkdGg6IDIwMHB4OyI+PHNwYW4gY2xhc3M9Im5vZGVMYWJlbCI+PHA+TG9nIEVycm9yOiBObyBFeHBlY3RlZCBUcmFuc2FjdGlvbjwvcD48L3NwYW4+PC9kaXY+PC9mb3JlaWduT2JqZWN0PjwvZz48L2c+PGcgdHJhbnNmb3JtPSJ0cmFuc2xhdGUoMTM4LCA2MDMuNDAwMDA5MTU1MjczNCkiIGlkPSJmbG93Y2hhcnQtRC01IiBjbGFzcz0ibm9kZSBkZWZhdWx0Ij48cmVjdCBoZWlnaHQ9Ijc4IiB3aWR0aD0iMjYwIiB5PSItMzkiIHg9Ii0xMzAiIHN0eWxlPSIiIGNsYXNzPSJiYXNpYyBsYWJlbC1jb250YWluZXIiLz48ZyB0cmFuc2Zvcm09InRyYW5zbGF0ZSgtMTAwLCAtMjQpIiBzdHlsZT0iIiBjbGFzcz0ibGFiZWwiPjxyZWN0Lz48Zm9yZWlnbk9iamVjdCBoZWlnaHQ9IjQ4IiB3aWR0aD0iMjAwIj48ZGl2IHhtbG5zPSJodHRwOi8vd3d3LnczLm9yZy8xOTk5L3hodG1sIiBzdHlsZT0iZGlzcGxheTogdGFibGU7IHdoaXRlLXNwYWNlOiBicmVhay1zcGFjZXM7IGxpbmUtaGVpZ2h0OiAxLjU7IG1heC13aWR0aDogMjAwcHg7IHRleHQtYWxpZ246IGNlbnRlcjsgd2lkdGg6IDIwMHB4OyI+PHNwYW4gY2xhc3M9Im5vZGVMYWJlbCI+PHA+SW5jcmVtZW50IG1pc19tYXRjaCBDb3VudGVyPC9wPjwvc3Bhbj48L2Rpdj48L2ZvcmVpZ25PYmplY3Q+PC9nPjwvZz48ZyB0cmFuc2Zvcm09InRyYW5zbGF0ZSgxMzgsIDcxOS40MDAwMDkxNTUyNzM0KSIgaWQ9ImZsb3djaGFydC1FLTciIGNsYXNzPSJub2RlIGRlZmF1bHQiPjxyZWN0IGhlaWdodD0iNTQiIHdpZHRoPSI4Ni4yMzc1MDExNDQ0MDkxOCIgeT0iLTI3IiB4PSItNDMuMTE4NzUwNTcyMjA0NTkiIHN0eWxlPSIiIGNsYXNzPSJiYXNpYyBsYWJlbC1jb250YWluZXIiLz48ZyB0cmFuc2Zvcm09InRyYW5zbGF0ZSgtMTMuMTE4NzUwNTcyMjA0NTksIC0xMikiIHN0eWxlPSIiIGNsYXNzPSJsYWJlbCI+PHJlY3QvPjxmb3JlaWduT2JqZWN0IGhlaWdodD0iMjQiIHdpZHRoPSIyNi4yMzc1MDExNDQ0MDkxOCI+PGRpdiB4bWxucz0iaHR0cDovL3d3dy53My5vcmcvMTk5OS94aHRtbCIgc3R5bGU9ImRpc3BsYXk6IHRhYmxlLWNlbGw7IHdoaXRlLXNwYWNlOiBub3dyYXA7IGxpbmUtaGVpZ2h0OiAxLjU7IG1heC13aWR0aDogMjAwcHg7IHRleHQtYWxpZ246IGNlbnRlcjsiPjxzcGFuIGNsYXNzPSJub2RlTGFiZWwiPjxwPkVuZDwvcD48L3NwYW4+PC9kaXY+PC9mb3JlaWduT2JqZWN0PjwvZz48L2c+PGcgdHJhbnNmb3JtPSJ0cmFuc2xhdGUoNDQ4LCA0NzUuNDAwMDA5MTU1MjczNDQpIiBpZD0iZmxvd2NoYXJ0LUYtOSIgY2xhc3M9Im5vZGUgZGVmYXVsdCI+PHJlY3QgaGVpZ2h0PSI1NCIgd2lkdGg9IjIwOC42NjI1MDYxMDM1MTU2MiIgeT0iLTI3IiB4PSItMTA0LjMzMTI1MzA1MTc1NzgxIiBzdHlsZT0iIiBjbGFzcz0iYmFzaWMgbGFiZWwtY29udGFpbmVyIi8+PGcgdHJhbnNmb3JtPSJ0cmFuc2xhdGUoLTc0LjMzMTI1MzA1MTc1NzgxLCAtMTIpIiBzdHlsZT0iIiBjbGFzcz0ibGFiZWwiPjxyZWN0Lz48Zm9yZWlnbk9iamVjdCBoZWlnaHQ9IjI0IiB3aWR0aD0iMTQ4LjY2MjUwNjEwMzUxNTYyIj48ZGl2IHhtbG5zPSJodHRwOi8vd3d3LnczLm9yZy8xOTk5L3hodG1sIiBzdHlsZT0iZGlzcGxheTogdGFibGUtY2VsbDsgd2hpdGUtc3BhY2U6IG5vd3JhcDsgbGluZS1oZWlnaHQ6IDEuNTsgbWF4LXdpZHRoOiAyMDBweDsgdGV4dC1hbGlnbjogY2VudGVyOyI+PHNwYW4gY2xhc3M9Im5vZGVMYWJlbCI+PHA+QXNzaWduIHhnbWlpX2FjdCA9IHRyPC9wPjwvc3Bhbj48L2Rpdj48L2ZvcmVpZ25PYmplY3Q+PC9nPjwvZz48ZyB0cmFuc2Zvcm09InRyYW5zbGF0ZSg0NDgsIDYwMy40MDAwMDkxNTUyNzM0KSIgaWQ9ImZsb3djaGFydC1HLTExIiBjbGFzcz0ibm9kZSBkZWZhdWx0Ij48cmVjdCBoZWlnaHQ9Ijc4IiB3aWR0aD0iMjYwIiB5PSItMzkiIHg9Ii0xMzAiIHN0eWxlPSIiIGNsYXNzPSJiYXNpYyBsYWJlbC1jb250YWluZXIiLz48ZyB0cmFuc2Zvcm09InRyYW5zbGF0ZSgtMTAwLCAtMjQpIiBzdHlsZT0iIiBjbGFzcz0ibGFiZWwiPjxyZWN0Lz48Zm9yZWlnbk9iamVjdCBoZWlnaHQ9IjQ4IiB3aWR0aD0iMjAwIj48ZGl2IHhtbG5zPSJodHRwOi8vd3d3LnczLm9yZy8xOTk5L3hodG1sIiBzdHlsZT0iZGlzcGxheTogdGFibGU7IHdoaXRlLXNwYWNlOiBicmVhay1zcGFjZXM7IGxpbmUtaGVpZ2h0OiAxLjU7IG1heC13aWR0aDogMjAwcHg7IHRleHQtYWxpZ246IGNlbnRlcjsgd2lkdGg6IDIwMHB4OyI+PHNwYW4gY2xhc3M9Im5vZGVMYWJlbCI+PHA+UG9wIGV4cF90ciBmcm9tIHhnbWlpX2V4cCBRdWV1ZTwvcD48L3NwYW4+PC9kaXY+PC9mb3JlaWduT2JqZWN0PjwvZz48L2c+PGcgdHJhbnNmb3JtPSJ0cmFuc2xhdGUoNDQ4LCA3MTkuNDAwMDA5MTU1MjczNCkiIGlkPSJmbG93Y2hhcnQtSC0xMyIgY2xhc3M9Im5vZGUgZGVmYXVsdCI+PHJlY3QgaGVpZ2h0PSI1NCIgd2lkdGg9IjIzMi41Mzc1MDYxMDM1MTU2MiIgeT0iLTI3IiB4PSItMTE2LjI2ODc1MzA1MTc1NzgxIiBzdHlsZT0iIiBjbGFzcz0iYmFzaWMgbGFiZWwtY29udGFpbmVyIi8+PGcgdHJhbnNmb3JtPSJ0cmFuc2xhdGUoLTg2LjI2ODc1MzA1MTc1NzgxLCAtMTIpIiBzdHlsZT0iIiBjbGFzcz0ibGFiZWwiPjxyZWN0Lz48Zm9yZWlnbk9iamVjdCBoZWlnaHQ9IjI0IiB3aWR0aD0iMTcyLjUzNzUwNjEwMzUxNTYyIj48ZGl2IHhtbG5zPSJodHRwOi8vd3d3LnczLm9yZy8xOTk5L3hodG1sIiBzdHlsZT0iZGlzcGxheTogdGFibGUtY2VsbDsgd2hpdGUtc3BhY2U6IG5vd3JhcDsgbGluZS1oZWlnaHQ6IDEuNTsgbWF4LXdpZHRoOiAyMDBweDsgdGV4dC1hbGlnbjogY2VudGVyOyI+PHNwYW4gY2xhc3M9Im5vZGVMYWJlbCI+PHA+Q29tcGFyZSBkYXRhX291dCBTaXplczwvcD48L3NwYW4+PC9kaXY+PC9mb3JlaWduT2JqZWN0PjwvZz48L2c+PGcgdHJhbnNmb3JtPSJ0cmFuc2xhdGUoMjM0Ljc0Mzc0OTYxODUzMDI3LCAxMDExLjQwMDAwOTE1NTI3MzQpIiBpZD0iZmxvd2NoYXJ0LUktMTUiIGNsYXNzPSJub2RlIGRlZmF1bHQiPjxyZWN0IGhlaWdodD0iNzgiIHdpZHRoPSIyMjcuNzEyNTA5MTU1MjczNDQiIHk9Ii0zOSIgeD0iLTExMy44NTYyNTQ1Nzc2MzY3MiIgc3R5bGU9IiIgY2xhc3M9ImJhc2ljIGxhYmVsLWNvbnRhaW5lciIvPjxnIHRyYW5zZm9ybT0idHJhbnNsYXRlKC04My44NTYyNTQ1Nzc2MzY3MiwgLTI0KSIgc3R5bGU9IiIgY2xhc3M9ImxhYmVsIj48cmVjdC8+PGZvcmVpZ25PYmplY3QgaGVpZ2h0PSI0OCIgd2lkdGg9IjE2Ny43MTI1MDkxNTUyNzM0NCI+PGRpdiB4bWxucz0iaHR0cDovL3d3dy53My5vcmcvMTk5OS94aHRtbCIgc3R5bGU9ImRpc3BsYXk6IHRhYmxlLWNlbGw7IHdoaXRlLXNwYWNlOiBub3dyYXA7IGxpbmUtaGVpZ2h0OiAxLjU7IG1heC13aWR0aDogMjAwcHg7IHRleHQtYWxpZ246IGNlbnRlcjsiPjxzcGFuIGNsYXNzPSJub2RlTGFiZWwiPjxwPkxvZyBkYXRhX291dCBTaXplIEVycm9yPGJyIC8+Y29ycmVjdD0wPC9wPjwvc3Bhbj48L2Rpdj48L2ZvcmVpZ25PYmplY3Q+PC9nPjwvZz48ZyB0cmFuc2Zvcm09InRyYW5zbGF0ZSg1NzguNTM0Mzc0MjM3MDYwNSwgODU5LjQwMDAwOTE1NTI3MzQpIiBpZD0iZmxvd2NoYXJ0LUotMTciIGNsYXNzPSJub2RlIGRlZmF1bHQiPjxyZWN0IGhlaWdodD0iNzgiIHdpZHRoPSIyNjAiIHk9Ii0zOSIgeD0iLTEzMCIgc3R5bGU9IiIgY2xhc3M9ImJhc2ljIGxhYmVsLWNvbnRhaW5lciIvPjxnIHRyYW5zZm9ybT0idHJhbnNsYXRlKC0xMDAsIC0yNCkiIHN0eWxlPSIiIGNsYXNzPSJsYWJlbCI+PHJlY3QvPjxmb3JlaWduT2JqZWN0IGhlaWdodD0iNDgiIHdpZHRoPSIyMDAiPjxkaXYgeG1sbnM9Imh0dHA6Ly93d3cudzMub3JnLzE5OTkveGh0bWwiIHN0eWxlPSJkaXNwbGF5OiB0YWJsZTsgd2hpdGUtc3BhY2U6IGJyZWFrLXNwYWNlczsgbGluZS1oZWlnaHQ6IDEuNTsgbWF4LXdpZHRoOiAyMDBweDsgdGV4dC1hbGlnbjogY2VudGVyOyB3aWR0aDogMjAwcHg7Ij48c3BhbiBjbGFzcz0ibm9kZUxhYmVsIj48cD5Db21wYXJlIEVhY2ggZGF0YV9vdXQgRWxlbWVudDwvcD48L3NwYW4+PC9kaXY+PC9mb3JlaWduT2JqZWN0PjwvZz48L2c+PGcgdHJhbnNmb3JtPSJ0cmFuc2xhdGUoNDk1LjgxMjQ5ODA5MjY1MTM3LCAxMDExLjQwMDAwOTE1NTI3MzQpIiBpZD0iZmxvd2NoYXJ0LUstMTkiIGNsYXNzPSJub2RlIGRlZmF1bHQiPjxyZWN0IGhlaWdodD0iNzgiIHdpZHRoPSIxOTQuNDI1MDAzMDUxNzU3OCIgeT0iLTM5IiB4PSItOTcuMjEyNTAxNTI1ODc4OSIgc3R5bGU9IiIgY2xhc3M9ImJhc2ljIGxhYmVsLWNvbnRhaW5lciIvPjxnIHRyYW5zZm9ybT0idHJhbnNsYXRlKC02Ny4yMTI1MDE1MjU4Nzg5LCAtMjQpIiBzdHlsZT0iIiBjbGFzcz0ibGFiZWwiPjxyZWN0Lz48Zm9yZWlnbk9iamVjdCBoZWlnaHQ9IjQ4IiB3aWR0aD0iMTM0LjQyNTAwMzA1MTc1NzgiPjxkaXYgeG1sbnM9Imh0dHA6Ly93d3cudzMub3JnLzE5OTkveGh0bWwiIHN0eWxlPSJkaXNwbGF5OiB0YWJsZS1jZWxsOyB3aGl0ZS1zcGFjZTogbm93cmFwOyBsaW5lLWhlaWdodDogMS41OyBtYXgtd2lkdGg6IDIwMHB4OyB0ZXh0LWFsaWduOiBjZW50ZXI7Ij48c3BhbiBjbGFzcz0ibm9kZUxhYmVsIj48cD5Mb2cgRGF0YSBNaXNtYXRjaDxiciAvPmNvcnJlY3Q9MDwvcD48L3NwYW4+PC9kaXY+PC9mb3JlaWduT2JqZWN0PjwvZz48L2c+PGcgdHJhbnNmb3JtPSJ0cmFuc2xhdGUoNDQ4LCAxMTI3LjQwMDAwOTE1NTI3MzQpIiBpZD0iZmxvd2NoYXJ0LUwtMjEiIGNsYXNzPSJub2RlIGRlZmF1bHQiPjxyZWN0IGhlaWdodD0iNTQiIHdpZHRoPSIxMjQuMDI1MDAxNTI1ODc4OSIgeT0iLTI3IiB4PSItNjIuMDEyNTAwNzYyOTM5NDUiIHN0eWxlPSIiIGNsYXNzPSJiYXNpYyBsYWJlbC1jb250YWluZXIiLz48ZyB0cmFuc2Zvcm09InRyYW5zbGF0ZSgtMzIuMDEyNTAwNzYyOTM5NDUsIC0xMikiIHN0eWxlPSIiIGNsYXNzPSJsYWJlbCI+PHJlY3QvPjxmb3JlaWduT2JqZWN0IGhlaWdodD0iMjQiIHdpZHRoPSI2NC4wMjUwMDE1MjU4Nzg5Ij48ZGl2IHhtbG5zPSJodHRwOi8vd3d3LnczLm9yZy8xOTk5L3hodG1sIiBzdHlsZT0iZGlzcGxheTogdGFibGUtY2VsbDsgd2hpdGUtc3BhY2U6IG5vd3JhcDsgbGluZS1oZWlnaHQ6IDEuNTsgbWF4LXdpZHRoOiAyMDBweDsgdGV4dC1hbGlnbjogY2VudGVyOyI+PHNwYW4gY2xhc3M9Im5vZGVMYWJlbCI+PHA+Q29udGludWU8L3A+PC9zcGFuPjwvZGl2PjwvZm9yZWlnbk9iamVjdD48L2c+PC9nPjxnIHRyYW5zZm9ybT0idHJhbnNsYXRlKDQ0OCwgMTIzMS40MDAwMDkxNTUyNzM0KSIgaWQ9ImZsb3djaGFydC1NLTI3IiBjbGFzcz0ibm9kZSBkZWZhdWx0Ij48cmVjdCBoZWlnaHQ9IjU0IiB3aWR0aD0iMjI1LjY3NTAwMzA1MTc1NzgiIHk9Ii0yNyIgeD0iLTExMi44Mzc1MDE1MjU4Nzg5IiBzdHlsZT0iIiBjbGFzcz0iYmFzaWMgbGFiZWwtY29udGFpbmVyIi8+PGcgdHJhbnNmb3JtPSJ0cmFuc2xhdGUoLTgyLjgzNzUwMTUyNTg3ODksIC0xMikiIHN0eWxlPSIiIGNsYXNzPSJsYWJlbCI+PHJlY3QvPjxmb3JlaWduT2JqZWN0IGhlaWdodD0iMjQiIHdpZHRoPSIxNjUuNjc1MDAzMDUxNzU3OCI+PGRpdiB4bWxucz0iaHR0cDovL3d3dy53My5vcmcvMTk5OS94aHRtbCIgc3R5bGU9ImRpc3BsYXk6IHRhYmxlLWNlbGw7IHdoaXRlLXNwYWNlOiBub3dyYXA7IGxpbmUtaGVpZ2h0OiAxLjU7IG1heC13aWR0aDogMjAwcHg7IHRleHQtYWxpZ246IGNlbnRlcjsiPjxzcGFuIGNsYXNzPSJub2RlTGFiZWwiPjxwPkNvbXBhcmUgY3RybF9vdXQgU2l6ZXM8L3A+PC9zcGFuPjwvZGl2PjwvZm9yZWlnbk9iamVjdD48L2c+PC9nPjxnIHRyYW5zZm9ybT0idHJhbnNsYXRlKDIzOS41MjQ5OTk2MTg1MzAyNywgMTUyMy40MDAwMDkxNTUyNzM0KSIgaWQ9ImZsb3djaGFydC1OLTI5IiBjbGFzcz0ibm9kZSBkZWZhdWx0Ij48cmVjdCBoZWlnaHQ9Ijc4IiB3aWR0aD0iMjIwLjgzNzUwOTE1NTI3MzQ0IiB5PSItMzkiIHg9Ii0xMTAuNDE4NzU0NTc3NjM2NzIiIHN0eWxlPSIiIGNsYXNzPSJiYXNpYyBsYWJlbC1jb250YWluZXIiLz48ZyB0cmFuc2Zvcm09InRyYW5zbGF0ZSgtODAuNDE4NzU0NTc3NjM2NzIsIC0yNCkiIHN0eWxlPSIiIGNsYXNzPSJsYWJlbCI+PHJlY3QvPjxmb3JlaWduT2JqZWN0IGhlaWdodD0iNDgiIHdpZHRoPSIxNjAuODM3NTA5MTU1MjczNDQiPjxkaXYgeG1sbnM9Imh0dHA6Ly93d3cudzMub3JnLzE5OTkveGh0bWwiIHN0eWxlPSJkaXNwbGF5OiB0YWJsZS1jZWxsOyB3aGl0ZS1zcGFjZTogbm93cmFwOyBsaW5lLWhlaWdodDogMS41OyBtYXgtd2lkdGg6IDIwMHB4OyB0ZXh0LWFsaWduOiBjZW50ZXI7Ij48c3BhbiBjbGFzcz0ibm9kZUxhYmVsIj48cD5Mb2cgY3RybF9vdXQgU2l6ZSBFcnJvcjxiciAvPmNvcnJlY3Q9MDwvcD48L3NwYW4+PC9kaXY+PC9mb3JlaWduT2JqZWN0PjwvZz48L2c+PGcgdHJhbnNmb3JtPSJ0cmFuc2xhdGUoNTc1LjI4NDM3NDIzNzA2MDUsIDEzNzEuNDAwMDA5MTU1MjczNCkiIGlkPSJmbG93Y2hhcnQtTy0zMSIgY2xhc3M9Im5vZGUgZGVmYXVsdCI+PHJlY3QgaGVpZ2h0PSI3OCIgd2lkdGg9IjI2MCIgeT0iLTM5IiB4PSItMTMwIiBzdHlsZT0iIiBjbGFzcz0iYmFzaWMgbGFiZWwtY29udGFpbmVyIi8+PGcgdHJhbnNmb3JtPSJ0cmFuc2xhdGUoLTEwMCwgLTI0KSIgc3R5bGU9IiIgY2xhc3M9ImxhYmVsIj48cmVjdC8+PGZvcmVpZ25PYmplY3QgaGVpZ2h0PSI0OCIgd2lkdGg9IjIwMCI+PGRpdiB4bWxucz0iaHR0cDovL3d3dy53My5vcmcvMTk5OS94aHRtbCIgc3R5bGU9ImRpc3BsYXk6IHRhYmxlOyB3aGl0ZS1zcGFjZTogYnJlYWstc3BhY2VzOyBsaW5lLWhlaWdodDogMS41OyBtYXgtd2lkdGg6IDIwMHB4OyB0ZXh0LWFsaWduOiBjZW50ZXI7IHdpZHRoOiAyMDBweDsiPjxzcGFuIGNsYXNzPSJub2RlTGFiZWwiPjxwPkNvbXBhcmUgRWFjaCBjdHJsX291dCBFbGVtZW50PC9wPjwvc3Bhbj48L2Rpdj48L2ZvcmVpZ25PYmplY3Q+PC9nPjwvZz48ZyB0cmFuc2Zvcm09InRyYW5zbGF0ZSg0OTQuMDkzNzQ4MDkyNjUxMzcsIDE1MjMuNDAwMDA5MTU1MjczNCkiIGlkPSJmbG93Y2hhcnQtUC0zMyIgY2xhc3M9Im5vZGUgZGVmYXVsdCI+PHJlY3QgaGVpZ2h0PSI3OCIgd2lkdGg9IjE4OC4zMDAwMDMwNTE3NTc4IiB5PSItMzkiIHg9Ii05NC4xNTAwMDE1MjU4Nzg5IiBzdHlsZT0iIiBjbGFzcz0iYmFzaWMgbGFiZWwtY29udGFpbmVyIi8+PGcgdHJhbnNmb3JtPSJ0cmFuc2xhdGUoLTY0LjE1MDAwMTUyNTg3ODksIC0yNCkiIHN0eWxlPSIiIGNsYXNzPSJsYWJlbCI+PHJlY3QvPjxmb3JlaWduT2JqZWN0IGhlaWdodD0iNDgiIHdpZHRoPSIxMjguMzAwMDAzMDUxNzU3OCI+PGRpdiB4bWxucz0iaHR0cDovL3d3dy53My5vcmcvMTk5OS94aHRtbCIgc3R5bGU9ImRpc3BsYXk6IHRhYmxlLWNlbGw7IHdoaXRlLXNwYWNlOiBub3dyYXA7IGxpbmUtaGVpZ2h0OiAxLjU7IG1heC13aWR0aDogMjAwcHg7IHRleHQtYWxpZ246IGNlbnRlcjsiPjxzcGFuIGNsYXNzPSJub2RlTGFiZWwiPjxwPkxvZyBDdHJsIE1pc21hdGNoPGJyIC8+Y29ycmVjdD0wPC9wPjwvc3Bhbj48L2Rpdj48L2ZvcmVpZ25PYmplY3Q+PC9nPjwvZz48ZyB0cmFuc2Zvcm09InRyYW5zbGF0ZSg0NDgsIDE2MzkuNDAwMDA5MTU1MjczNCkiIGlkPSJmbG93Y2hhcnQtUS0zNSIgY2xhc3M9Im5vZGUgZGVmYXVsdCI+PHJlY3QgaGVpZ2h0PSI1NCIgd2lkdGg9IjEyNC4wMjUwMDE1MjU4Nzg5IiB5PSItMjciIHg9Ii02Mi4wMTI1MDA3NjI5Mzk0NSIgc3R5bGU9IiIgY2xhc3M9ImJhc2ljIGxhYmVsLWNvbnRhaW5lciIvPjxnIHRyYW5zZm9ybT0idHJhbnNsYXRlKC0zMi4wMTI1MDA3NjI5Mzk0NSwgLTEyKSIgc3R5bGU9IiIgY2xhc3M9ImxhYmVsIj48cmVjdC8+PGZvcmVpZ25PYmplY3QgaGVpZ2h0PSIyNCIgd2lkdGg9IjY0LjAyNTAwMTUyNTg3ODkiPjxkaXYgeG1sbnM9Imh0dHA6Ly93d3cudzMub3JnLzE5OTkveGh0bWwiIHN0eWxlPSJkaXNwbGF5OiB0YWJsZS1jZWxsOyB3aGl0ZS1zcGFjZTogbm93cmFwOyBsaW5lLWhlaWdodDogMS41OyBtYXgtd2lkdGg6IDIwMHB4OyB0ZXh0LWFsaWduOiBjZW50ZXI7Ij48c3BhbiBjbGFzcz0ibm9kZUxhYmVsIj48cD5Db250aW51ZTwvcD48L3NwYW4+PC9kaXY+PC9mb3JlaWduT2JqZWN0PjwvZz48L2c+PGcgdHJhbnNmb3JtPSJ0cmFuc2xhdGUoNDQ4LCAxNzkyLjEyNTAxNTI1ODc4OSkiIGlkPSJmbG93Y2hhcnQtUi00MSIgY2xhc3M9Im5vZGUgZGVmYXVsdCI+PHBvbHlnb24gdHJhbnNmb3JtPSJ0cmFuc2xhdGUoLTc1LjIyNTAwMjI4ODgxODM2LCA3NS43MjUwMDIyODg4MTgzNikiIGNsYXNzPSJsYWJlbC1jb250YWluZXIiIHBvaW50cz0iNzUuNzI1MDAyMjg4ODE4MzYsMCAxNTEuNDUwMDA0NTc3NjM2NzIsLTc1LjcyNTAwMjI4ODgxODM2IDc1LjcyNTAwMjI4ODgxODM2LC0xNTEuNDUwMDA0NTc3NjM2NzIgMCwtNzUuNzI1MDAyMjg4ODE4MzYiLz48ZyB0cmFuc2Zvcm09InRyYW5zbGF0ZSgtNDguNzI1MDAyMjg4ODE4MzYsIC0xMikiIHN0eWxlPSIiIGNsYXNzPSJsYWJlbCI+PHJlY3QvPjxmb3JlaWduT2JqZWN0IGhlaWdodD0iMjQiIHdpZHRoPSI5Ny40NTAwMDQ1Nzc2MzY3MiI+PGRpdiB4bWxucz0iaHR0cDovL3d3dy53My5vcmcvMTk5OS94aHRtbCIgc3R5bGU9ImRpc3BsYXk6IHRhYmxlLWNlbGw7IHdoaXRlLXNwYWNlOiBub3dyYXA7IGxpbmUtaGVpZ2h0OiAxLjU7IG1heC13aWR0aDogMjAwcHg7IHRleHQtYWxpZ246IGNlbnRlcjsiPjxzcGFuIGNsYXNzPSJub2RlTGFiZWwiPjxwPmNvcnJlY3QgPT0gMSA/PC9wPjwvc3Bhbj48L2Rpdj48L2ZvcmVpZ25PYmplY3Q+PC9nPjwvZz48ZyB0cmFuc2Zvcm09InRyYW5zbGF0ZSgyOTYuODkzNzQ5MjM3MDYwNTUsIDE5OTIuODUwMDIxMzYyMzA0NykiIGlkPSJmbG93Y2hhcnQtUy00MyIgY2xhc3M9Im5vZGUgZGVmYXVsdCI+PHJlY3QgaGVpZ2h0PSI3OCIgd2lkdGg9IjI0NC40MjUwMDMwNTE3NTc4IiB5PSItMzkiIHg9Ii0xMjIuMjEyNTAxNTI1ODc4OSIgc3R5bGU9IiIgY2xhc3M9ImJhc2ljIGxhYmVsLWNvbnRhaW5lciIvPjxnIHRyYW5zZm9ybT0idHJhbnNsYXRlKC05Mi4yMTI1MDE1MjU4Nzg5LCAtMjQpIiBzdHlsZT0iIiBjbGFzcz0ibGFiZWwiPjxyZWN0Lz48Zm9yZWlnbk9iamVjdCBoZWlnaHQ9IjQ4IiB3aWR0aD0iMTg0LjQyNTAwMzA1MTc1NzgiPjxkaXYgeG1sbnM9Imh0dHA6Ly93d3cudzMub3JnLzE5OTkveGh0bWwiIHN0eWxlPSJkaXNwbGF5OiB0YWJsZS1jZWxsOyB3aGl0ZS1zcGFjZTogbm93cmFwOyBsaW5lLWhlaWdodDogMS41OyBtYXgtd2lkdGg6IDIwMHB4OyB0ZXh0LWFsaWduOiBjZW50ZXI7Ij48c3BhbiBjbGFzcz0ibm9kZUxhYmVsIj48cD5Mb2cgTUFUQ0ggSW5mbzxiciAvPkluY3JlbWVudCBtYXRjaCBDb3VudGVyPC9wPjwvc3Bhbj48L2Rpdj48L2ZvcmVpZ25PYmplY3Q+PC9nPjwvZz48ZyB0cmFuc2Zvcm09InRyYW5zbGF0ZSg1OTkuMTA2MjUwNzYyOTM5NSwgMTk5Mi44NTAwMjEzNjIzMDQ3KSIgaWQ9ImZsb3djaGFydC1ULTQ1IiBjbGFzcz0ibm9kZSBkZWZhdWx0Ij48cmVjdCBoZWlnaHQ9IjEwMiIgd2lkdGg9IjI2MCIgeT0iLTUxIiB4PSItMTMwIiBzdHlsZT0iIiBjbGFzcz0iYmFzaWMgbGFiZWwtY29udGFpbmVyIi8+PGcgdHJhbnNmb3JtPSJ0cmFuc2xhdGUoLTEwMCwgLTM2KSIgc3R5bGU9IiIgY2xhc3M9ImxhYmVsIj48cmVjdC8+PGZvcmVpZ25PYmplY3QgaGVpZ2h0PSI3MiIgd2lkdGg9IjIwMCI+PGRpdiB4bWxucz0iaHR0cDovL3d3dy53My5vcmcvMTk5OS94aHRtbCIgc3R5bGU9ImRpc3BsYXk6IHRhYmxlOyB3aGl0ZS1zcGFjZTogYnJlYWstc3BhY2VzOyBsaW5lLWhlaWdodDogMS41OyBtYXgtd2lkdGg6IDIwMHB4OyB0ZXh0LWFsaWduOiBjZW50ZXI7IHdpZHRoOiAyMDBweDsiPjxzcGFuIGNsYXNzPSJub2RlTGFiZWwiPjxwPkxvZyBNSVNNQVRDSCBEZXRhaWxzPGJyIC8+SW5jcmVtZW50IG1pc19tYXRjaCBDb3VudGVyPC9wPjwvc3Bhbj48L2Rpdj48L2ZvcmVpZ25PYmplY3Q+PC9nPjwvZz48ZyB0cmFuc2Zvcm09InRyYW5zbGF0ZSg0NDgsIDIxMjAuODUwMDIxMzYyMzA0NykiIGlkPSJmbG93Y2hhcnQtVS00NyIgY2xhc3M9Im5vZGUgZGVmYXVsdCI+PHJlY3QgaGVpZ2h0PSI1NCIgd2lkdGg9Ijg2LjIzNzUwMTE0NDQwOTE4IiB5PSItMjciIHg9Ii00My4xMTg3NTA1NzIyMDQ1OSIgc3R5bGU9IiIgY2xhc3M9ImJhc2ljIGxhYmVsLWNvbnRhaW5lciIvPjxnIHRyYW5zZm9ybT0idHJhbnNsYXRlKC0xMy4xMTg3NTA1NzIyMDQ1OSwgLTEyKSIgc3R5bGU9IiIgY2xhc3M9ImxhYmVsIj48cmVjdC8+PGZvcmVpZ25PYmplY3QgaGVpZ2h0PSIyNCIgd2lkdGg9IjI2LjIzNzUwMTE0NDQwOTE4Ij48ZGl2IHhtbG5zPSJodHRwOi8vd3d3LnczLm9yZy8xOTk5L3hodG1sIiBzdHlsZT0iZGlzcGxheTogdGFibGUtY2VsbDsgd2hpdGUtc3BhY2U6IG5vd3JhcDsgbGluZS1oZWlnaHQ6IDEuNTsgbWF4LXdpZHRoOiAyMDBweDsgdGV4dC1hbGlnbjogY2VudGVyOyI+PHNwYW4gY2xhc3M9Im5vZGVMYWJlbCI+PHA+RW5kPC9wPjwvc3Bhbj48L2Rpdj48L2ZvcmVpZ25PYmplY3Q+PC9nPjwvZz48L2c+PC9nPjwvZz48L3N2Zz4=;" parent="1" vertex="1">
          <mxGeometry x="1197" y="16" width="403.33" height="1198" as="geometry" />
        </mxCell>
        <mxCell id="yRi5o2NJnJKDBN_EiBJa-45" value="&lt;h1 style=&quot;margin-top: 0px;&quot;&gt;Actual XGMII&lt;/h1&gt;" style="text;html=1;whiteSpace=wrap;overflow=hidden;rounded=0;fontFamily=Helvetica;fontSize=12;fontColor=default;labelBackgroundColor=default;" parent="1" vertex="1">
          <mxGeometry x="1363" y="-32" width="180" height="40" as="geometry" />
        </mxCell>
        <mxCell id="yRi5o2NJnJKDBN_EiBJa-46" value="" style="shape=image;verticalLabelPosition=bottom;labelBackgroundColor=default;verticalAlign=top;aspect=fixed;imageAspect=0;editableCssRules=.*;image=data:image/svg+xml,PHN2ZyB4bWxucz0iaHR0cDovL3d3dy53My5vcmcvMjAwMC9zdmciIHhtbG5zOnhsaW5rPSJodHRwOi8vd3d3LnczLm9yZy8xOTk5L3hsaW5rIiBoZWlnaHQ9IjI1MzcuNjYyNTk3NjU2MjUiIGFyaWEtcm9sZWRlc2NyaXB0aW9uPSJmbG93Y2hhcnQtdjIiIHJvbGU9ImdyYXBoaWNzLWRvY3VtZW50IGRvY3VtZW50IiB2aWV3Qm94PSI4IDggNjk2LjYwMDAzNjYyMTA5MzggMjUzNy42NjI1OTc2NTYyNSIgc3R5bGU9Im1heC13aWR0aDogMTAwJTsgY29sb3Itc2NoZW1lOiBsaWdodCBkYXJrOyIgY2xhc3M9ImZsb3djaGFydCIgd2lkdGg9IjY5Ni42MDAwMzY2MjEwOTM4IiBpZD0ibWVybWFpZC1zdmctMiI+PHN0eWxlPiNtZXJtYWlkLXN2Zy0yIHsgZm9udC1mYW1pbHk6ICJ0cmVidWNoZXQgbXMiLCB2ZXJkYW5hLCBhcmlhbCwgc2Fucy1zZXJpZjsgZm9udC1zaXplOiAxNnB4OyBmaWxsOiBsaWdodC1kYXJrKHJnYigxNzksIDI1NSwgMTAyKSwgcmdiKDIwNCwgMjA0LCAyMDQpKTsgfSBAa2V5ZnJhbWVzIGVkZ2UtYW5pbWF0aW9uLWZyYW1lIHsgJiN4YTsgIDAlIHsgc3Ryb2tlLWRhc2hvZmZzZXQ6IDA7IH0mI3hhO30gQGtleWZyYW1lcyBkYXNoIHsgJiN4YTsgIDEwMCUgeyBzdHJva2UtZGFzaG9mZnNldDogMDsgfSYjeGE7fSAjbWVybWFpZC1zdmctMiAuZWRnZS1hbmltYXRpb24tc2xvdyB7IHN0cm9rZS1kYXNob2Zmc2V0OiA5MDA7IGFuaW1hdGlvbjogNTBzIGxpbmVhciAwcyBpbmZpbml0ZSBub3JtYWwgbm9uZSBydW5uaW5nIGRhc2g7IHN0cm9rZS1saW5lY2FwOiByb3VuZDsgc3Ryb2tlLWRhc2hhcnJheTogOSwgNSAhaW1wb3J0YW50OyB9ICNtZXJtYWlkLXN2Zy0yIC5lZGdlLWFuaW1hdGlvbi1mYXN0IHsgc3Ryb2tlLWRhc2hvZmZzZXQ6IDkwMDsgYW5pbWF0aW9uOiAyMHMgbGluZWFyIDBzIGluZmluaXRlIG5vcm1hbCBub25lIHJ1bm5pbmcgZGFzaDsgc3Ryb2tlLWxpbmVjYXA6IHJvdW5kOyBzdHJva2UtZGFzaGFycmF5OiA5LCA1ICFpbXBvcnRhbnQ7IH0gI21lcm1haWQtc3ZnLTIgLmVycm9yLWljb24geyBmaWxsOiByZ2IoMTY0LCA2NSwgNjUpOyB9ICNtZXJtYWlkLXN2Zy0yIC5lcnJvci10ZXh0IHsgZmlsbDogcmdiKDIyMSwgMjIxLCAyMjEpOyBzdHJva2U6IHJnYigyMjEsIDIyMSwgMjIxKTsgfSAjbWVybWFpZC1zdmctMiAuZWRnZS10aGlja25lc3Mtbm9ybWFsIHsgc3Ryb2tlLXdpZHRoOiAxcHg7IH0gI21lcm1haWQtc3ZnLTIgLmVkZ2UtdGhpY2tuZXNzLXRoaWNrIHsgc3Ryb2tlLXdpZHRoOiAzLjVweDsgfSAjbWVybWFpZC1zdmctMiAuZWRnZS1wYXR0ZXJuLXNvbGlkIHsgc3Ryb2tlLWRhc2hhcnJheTogMDsgfSAjbWVybWFpZC1zdmctMiAuZWRnZS10aGlja25lc3MtaW52aXNpYmxlIHsgc3Ryb2tlLXdpZHRoOiAwOyBmaWxsOiBub25lOyB9ICNtZXJtYWlkLXN2Zy0yIC5lZGdlLXBhdHRlcm4tZGFzaGVkIHsgc3Ryb2tlLWRhc2hhcnJheTogMzsgfSAjbWVybWFpZC1zdmctMiAuZWRnZS1wYXR0ZXJuLWRvdHRlZCB7IHN0cm9rZS1kYXNoYXJyYXk6IDI7IH0gI21lcm1haWQtc3ZnLTIgLm1hcmtlciB7IGZpbGw6IGxpZ2h0Z3JleTsgc3Ryb2tlOiBsaWdodGdyZXk7IH0gI21lcm1haWQtc3ZnLTIgLm1hcmtlci5jcm9zcyB7IHN0cm9rZTogbGlnaHRncmV5OyB9ICNtZXJtYWlkLXN2Zy0yIHN2ZyB7IGZvbnQtZmFtaWx5OiAidHJlYnVjaGV0IG1zIiwgdmVyZGFuYSwgYXJpYWwsIHNhbnMtc2VyaWY7IGZvbnQtc2l6ZTogMTZweDsgfSAjbWVybWFpZC1zdmctMiBwIHsgbWFyZ2luOiAwcHg7IH0gI21lcm1haWQtc3ZnLTIgLmxhYmVsIHsgZm9udC1mYW1pbHk6ICJ0cmVidWNoZXQgbXMiLCB2ZXJkYW5hLCBhcmlhbCwgc2Fucy1zZXJpZjsgY29sb3I6IHJnYigyMDQsIDIwNCwgMjA0KTsgfSAjbWVybWFpZC1zdmctMiAuY2x1c3Rlci1sYWJlbCB0ZXh0IHsgZmlsbDogcmdiKDI0OSwgMjU1LCAyNTQpOyB9ICNtZXJtYWlkLXN2Zy0yIC5jbHVzdGVyLWxhYmVsIHNwYW4geyBjb2xvcjogcmdiKDI0OSwgMjU1LCAyNTQpOyB9ICNtZXJtYWlkLXN2Zy0yIC5jbHVzdGVyLWxhYmVsIHNwYW4gcCB7IGJhY2tncm91bmQtY29sb3I6IHRyYW5zcGFyZW50OyB9ICNtZXJtYWlkLXN2Zy0yIC5sYWJlbCB0ZXh0LCAjbWVybWFpZC1zdmctMiBzcGFuIHsgZmlsbDogcmdiKDIwNCwgMjA0LCAyMDQpOyBjb2xvcjogcmdiKDIwNCwgMjA0LCAyMDQpOyB9ICNtZXJtYWlkLXN2Zy0yIC5ub2RlIHJlY3QsICNtZXJtYWlkLXN2Zy0yIC5ub2RlIGNpcmNsZSwgI21lcm1haWQtc3ZnLTIgLm5vZGUgZWxsaXBzZSwgI21lcm1haWQtc3ZnLTIgLm5vZGUgcG9seWdvbiwgI21lcm1haWQtc3ZnLTIgLm5vZGUgcGF0aCB7IGZpbGw6IHJnYigzMSwgMzIsIDMyKTsgc3Ryb2tlOiByZ2IoMjA0LCAyMDQsIDIwNCk7IHN0cm9rZS13aWR0aDogMXB4OyB9ICNtZXJtYWlkLXN2Zy0yIC5yb3VnaC1ub2RlIC5sYWJlbCB0ZXh0LCAjbWVybWFpZC1zdmctMiAubm9kZSAubGFiZWwgdGV4dCwgI21lcm1haWQtc3ZnLTIgLmltYWdlLXNoYXBlIC5sYWJlbCwgI21lcm1haWQtc3ZnLTIgLmljb24tc2hhcGUgLmxhYmVsIHsgdGV4dC1hbmNob3I6IG1pZGRsZTsgfSAjbWVybWFpZC1zdmctMiAubm9kZSAua2F0ZXggcGF0aCB7IGZpbGw6IHJnYigwLCAwLCAwKTsgc3Ryb2tlOiByZ2IoMCwgMCwgMCk7IHN0cm9rZS13aWR0aDogMXB4OyB9ICNtZXJtYWlkLXN2Zy0yIC5yb3VnaC1ub2RlIC5sYWJlbCwgI21lcm1haWQtc3ZnLTIgLm5vZGUgLmxhYmVsLCAjbWVybWFpZC1zdmctMiAuaW1hZ2Utc2hhcGUgLmxhYmVsLCAjbWVybWFpZC1zdmctMiAuaWNvbi1zaGFwZSAubGFiZWwgeyB0ZXh0LWFsaWduOiBjZW50ZXI7IH0gI21lcm1haWQtc3ZnLTIgLm5vZGUuY2xpY2thYmxlIHsgY3Vyc29yOiBwb2ludGVyOyB9ICNtZXJtYWlkLXN2Zy0yIC5yb290IC5hbmNob3IgcGF0aCB7IHN0cm9rZS13aWR0aDogMDsgc3Ryb2tlOiBsaWdodGdyZXk7IGZpbGw6IGxpZ2h0Z3JleSAhaW1wb3J0YW50OyB9ICNtZXJtYWlkLXN2Zy0yIC5hcnJvd2hlYWRQYXRoIHsgZmlsbDogbGlnaHRncmV5OyB9ICNtZXJtYWlkLXN2Zy0yIC5lZGdlUGF0aCAucGF0aCB7IHN0cm9rZTogbGlnaHRncmV5OyBzdHJva2Utd2lkdGg6IDJweDsgfSAjbWVybWFpZC1zdmctMiAuZmxvd2NoYXJ0LWxpbmsgeyBzdHJva2U6IGxpZ2h0Z3JleTsgZmlsbDogbm9uZTsgfSAjbWVybWFpZC1zdmctMiAuZWRnZUxhYmVsIHsgYmFja2dyb3VuZC1jb2xvcjogcmdiKDg4LCA4OCwgODgpOyB0ZXh0LWFsaWduOiBjZW50ZXI7IH0gI21lcm1haWQtc3ZnLTIgLmVkZ2VMYWJlbCBwIHsgYmFja2dyb3VuZC1jb2xvcjogcmdiKDg4LCA4OCwgODgpOyB9ICNtZXJtYWlkLXN2Zy0yIC5lZGdlTGFiZWwgcmVjdCB7IG9wYWNpdHk6IDAuNTsgYmFja2dyb3VuZC1jb2xvcjogcmdiKDg4LCA4OCwgODgpOyBmaWxsOiByZ2IoODgsIDg4LCA4OCk7IH0gI21lcm1haWQtc3ZnLTIgLmxhYmVsQmtnIHsgYmFja2dyb3VuZC1jb2xvcjogcmdiYSg4OCwgODgsIDg4LCAwLjUpOyB9ICNtZXJtYWlkLXN2Zy0yIC5jbHVzdGVyIHJlY3QgeyBmaWxsOiByZ2IoNzEsIDczLCA3Myk7IHN0cm9rZTogcmdiYSgyNTUsIDI1NSwgMjU1LCAwLjI1KTsgc3Ryb2tlLXdpZHRoOiAxcHg7IH0gI21lcm1haWQtc3ZnLTIgLmNsdXN0ZXIgdGV4dCB7IGZpbGw6IHJnYigyNDksIDI1NSwgMjU0KTsgfSAjbWVybWFpZC1zdmctMiAuY2x1c3RlciBzcGFuIHsgY29sb3I6IHJnYigyNDksIDI1NSwgMjU0KTsgfSAjbWVybWFpZC1zdmctMiBkaXYubWVybWFpZFRvb2x0aXAgeyBwb3NpdGlvbjogYWJzb2x1dGU7IHRleHQtYWxpZ246IGNlbnRlcjsgbWF4LXdpZHRoOiAyMDBweDsgcGFkZGluZzogMnB4OyBmb250LWZhbWlseTogInRyZWJ1Y2hldCBtcyIsIHZlcmRhbmEsIGFyaWFsLCBzYW5zLXNlcmlmOyBmb250LXNpemU6IDEycHg7IGJhY2tncm91bmQ6IHJnYigzMiwgMzEsIDMxKTsgYm9yZGVyOiAxcHggc29saWQgcmdiYSgyNTUsIDI1NSwgMjU1LCAwLjI1KTsgYm9yZGVyLXJhZGl1czogMnB4OyBwb2ludGVyLWV2ZW50czogbm9uZTsgei1pbmRleDogMTAwOyB9ICNtZXJtYWlkLXN2Zy0yIC5mbG93Y2hhcnRUaXRsZVRleHQgeyB0ZXh0LWFuY2hvcjogbWlkZGxlOyBmb250LXNpemU6IDE4cHg7IGZpbGw6IHJnYigyMDQsIDIwNCwgMjA0KTsgfSAjbWVybWFpZC1zdmctMiByZWN0LnRleHQgeyBmaWxsOiBub25lOyBzdHJva2Utd2lkdGg6IDA7IH0gI21lcm1haWQtc3ZnLTIgLmljb24tc2hhcGUsICNtZXJtYWlkLXN2Zy0yIC5pbWFnZS1zaGFwZSB7IGJhY2tncm91bmQtY29sb3I6IHJnYig4OCwgODgsIDg4KTsgdGV4dC1hbGlnbjogY2VudGVyOyB9ICNtZXJtYWlkLXN2Zy0yIC5pY29uLXNoYXBlIHAsICNtZXJtYWlkLXN2Zy0yIC5pbWFnZS1zaGFwZSBwIHsgYmFja2dyb3VuZC1jb2xvcjogcmdiKDg4LCA4OCwgODgpOyBwYWRkaW5nOiAycHg7IH0gI21lcm1haWQtc3ZnLTIgLmljb24tc2hhcGUgcmVjdCwgI21lcm1haWQtc3ZnLTIgLmltYWdlLXNoYXBlIHJlY3QgeyBvcGFjaXR5OiAwLjU7IGJhY2tncm91bmQtY29sb3I6IHJnYig4OCwgODgsIDg4KTsgZmlsbDogcmdiKDg4LCA4OCwgODgpOyB9ICNtZXJtYWlkLXN2Zy0yIC5sYWJlbC1pY29uIHsgZGlzcGxheTogaW5saW5lLWJsb2NrOyBoZWlnaHQ6IDFlbTsgb3ZlcmZsb3c6IHZpc2libGU7IHZlcnRpY2FsLWFsaWduOiAtMC4xMjVlbTsgfSAjbWVybWFpZC1zdmctMiAubm9kZSAubGFiZWwtaWNvbiBwYXRoIHsgZmlsbDogY3VycmVudGNvbG9yOyBzdHJva2U6IHJldmVydDsgc3Ryb2tlLXdpZHRoOiByZXZlcnQ7IH0gI21lcm1haWQtc3ZnLTIgOnJvb3QgeyAtLW1lcm1haWQtZm9udC1mYW1pbHk6ICJ0cmVidWNoZXQgbXMiLHZlcmRhbmEsYXJpYWwsc2Fucy1zZXJpZjsgfSA8L3N0eWxlPjxnPjxtYXJrZXIgb3JpZW50PSJhdXRvIiBtYXJrZXJIZWlnaHQ9IjgiIG1hcmtlcldpZHRoPSI4IiBtYXJrZXJVbml0cz0idXNlclNwYWNlT25Vc2UiIHJlZlk9IjUiIHJlZlg9IjUiIHZpZXdCb3g9IjAgMCAxMCAxMCIgY2xhc3M9Im1hcmtlciBmbG93Y2hhcnQtdjIiIGlkPSJtZXJtYWlkLXN2Zy0yX2Zsb3djaGFydC12Mi1wb2ludEVuZCI+PHBhdGggc3R5bGU9InN0cm9rZS13aWR0aDogMTsgc3Ryb2tlLWRhc2hhcnJheTogMSwgMDsiIGNsYXNzPSJhcnJvd01hcmtlclBhdGgiIGQ9Ik0gMCAwIEwgMTAgNSBMIDAgMTAgeiIvPjwvbWFya2VyPjxtYXJrZXIgb3JpZW50PSJhdXRvIiBtYXJrZXJIZWlnaHQ9IjgiIG1hcmtlcldpZHRoPSI4IiBtYXJrZXJVbml0cz0idXNlclNwYWNlT25Vc2UiIHJlZlk9IjUiIHJlZlg9IjQuNSIgdmlld0JveD0iMCAwIDEwIDEwIiBjbGFzcz0ibWFya2VyIGZsb3djaGFydC12MiIgaWQ9Im1lcm1haWQtc3ZnLTJfZmxvd2NoYXJ0LXYyLXBvaW50U3RhcnQiPjxwYXRoIHN0eWxlPSJzdHJva2Utd2lkdGg6IDE7IHN0cm9rZS1kYXNoYXJyYXk6IDEsIDA7IiBjbGFzcz0iYXJyb3dNYXJrZXJQYXRoIiBkPSJNIDAgNSBMIDEwIDEwIEwgMTAgMCB6Ii8+PC9tYXJrZXI+PG1hcmtlciBvcmllbnQ9ImF1dG8iIG1hcmtlckhlaWdodD0iMTEiIG1hcmtlcldpZHRoPSIxMSIgbWFya2VyVW5pdHM9InVzZXJTcGFjZU9uVXNlIiByZWZZPSI1IiByZWZYPSIxMSIgdmlld0JveD0iMCAwIDEwIDEwIiBjbGFzcz0ibWFya2VyIGZsb3djaGFydC12MiIgaWQ9Im1lcm1haWQtc3ZnLTJfZmxvd2NoYXJ0LXYyLWNpcmNsZUVuZCI+PGNpcmNsZSBzdHlsZT0ic3Ryb2tlLXdpZHRoOiAxOyBzdHJva2UtZGFzaGFycmF5OiAxLCAwOyIgY2xhc3M9ImFycm93TWFya2VyUGF0aCIgcj0iNSIgY3k9IjUiIGN4PSI1Ii8+PC9tYXJrZXI+PG1hcmtlciBvcmllbnQ9ImF1dG8iIG1hcmtlckhlaWdodD0iMTEiIG1hcmtlcldpZHRoPSIxMSIgbWFya2VyVW5pdHM9InVzZXJTcGFjZU9uVXNlIiByZWZZPSI1IiByZWZYPSItMSIgdmlld0JveD0iMCAwIDEwIDEwIiBjbGFzcz0ibWFya2VyIGZsb3djaGFydC12MiIgaWQ9Im1lcm1haWQtc3ZnLTJfZmxvd2NoYXJ0LXYyLWNpcmNsZVN0YXJ0Ij48Y2lyY2xlIHN0eWxlPSJzdHJva2Utd2lkdGg6IDE7IHN0cm9rZS1kYXNoYXJyYXk6IDEsIDA7IiBjbGFzcz0iYXJyb3dNYXJrZXJQYXRoIiByPSI1IiBjeT0iNSIgY3g9IjUiLz48L21hcmtlcj48bWFya2VyIG9yaWVudD0iYXV0byIgbWFya2VySGVpZ2h0PSIxMSIgbWFya2VyV2lkdGg9IjExIiBtYXJrZXJVbml0cz0idXNlclNwYWNlT25Vc2UiIHJlZlk9IjUuMiIgcmVmWD0iMTIiIHZpZXdCb3g9IjAgMCAxMSAxMSIgY2xhc3M9Im1hcmtlciBjcm9zcyBmbG93Y2hhcnQtdjIiIGlkPSJtZXJtYWlkLXN2Zy0yX2Zsb3djaGFydC12Mi1jcm9zc0VuZCI+PHBhdGggc3R5bGU9InN0cm9rZS13aWR0aDogMjsgc3Ryb2tlLWRhc2hhcnJheTogMSwgMDsiIGNsYXNzPSJhcnJvd01hcmtlclBhdGgiIGQ9Ik0gMSwxIGwgOSw5IE0gMTAsMSBsIC05LDkiLz48L21hcmtlcj48bWFya2VyIG9yaWVudD0iYXV0byIgbWFya2VySGVpZ2h0PSIxMSIgbWFya2VyV2lkdGg9IjExIiBtYXJrZXJVbml0cz0idXNlclNwYWNlT25Vc2UiIHJlZlk9IjUuMiIgcmVmWD0iLTEiIHZpZXdCb3g9IjAgMCAxMSAxMSIgY2xhc3M9Im1hcmtlciBjcm9zcyBmbG93Y2hhcnQtdjIiIGlkPSJtZXJtYWlkLXN2Zy0yX2Zsb3djaGFydC12Mi1jcm9zc1N0YXJ0Ij48cGF0aCBzdHlsZT0ic3Ryb2tlLXdpZHRoOiAyOyBzdHJva2UtZGFzaGFycmF5OiAxLCAwOyIgY2xhc3M9ImFycm93TWFya2VyUGF0aCIgZD0iTSAxLDEgbCA5LDkgTSAxMCwxIGwgLTksOSIvPjwvbWFya2VyPjxnIGNsYXNzPSJyb290Ij48ZyBjbGFzcz0iY2x1c3RlcnMiLz48ZyBjbGFzcz0iZWRnZVBhdGhzIj48cGF0aCBtYXJrZXItZW5kPSJ1cmwoI21lcm1haWQtc3ZnLTJfZmxvd2NoYXJ0LXYyLXBvaW50RW5kKSIgc3R5bGU9IiIgY2xhc3M9ImVkZ2UtdGhpY2tuZXNzLW5vcm1hbCBlZGdlLXBhdHRlcm4tc29saWQgZWRnZS10aGlja25lc3Mtbm9ybWFsIGVkZ2UtcGF0dGVybi1zb2xpZCBmbG93Y2hhcnQtbGluayIgaWQ9IkxfQV9CXzAiIGQ9Ik0zOTAuMiw4NkwzOTAuMiw5MC4xNjdDMzkwLjIsOTQuMzMzLDM5MC4yLDEwMi42NjcsMzkwLjIsMTEwLjMzM0MzOTAuMiwxMTgsMzkwLjIsMTI1LDM5MC4yLDEyOC41TDM5MC4yLDEzMiIvPjxwYXRoIG1hcmtlci1lbmQ9InVybCgjbWVybWFpZC1zdmctMl9mbG93Y2hhcnQtdjItcG9pbnRFbmQpIiBzdHlsZT0iIiBjbGFzcz0iZWRnZS10aGlja25lc3Mtbm9ybWFsIGVkZ2UtcGF0dGVybi1zb2xpZCBlZGdlLXRoaWNrbmVzcy1ub3JtYWwgZWRnZS1wYXR0ZXJuLXNvbGlkIGZsb3djaGFydC1saW5rIiBpZD0iTF9CX0NfMCIgZD0iTTM5MC4yLDE5MEwzOTAuMiwxOTQuMTY3QzM5MC4yLDE5OC4zMzMsMzkwLjIsMjA2LjY2NywzOTAuMiwyMTQuMzMzQzM5MC4yLDIyMiwzOTAuMiwyMjksMzkwLjIsMjMyLjVMMzkwLjIsMjM2Ii8+PHBhdGggbWFya2VyLWVuZD0idXJsKCNtZXJtYWlkLXN2Zy0yX2Zsb3djaGFydC12Mi1wb2ludEVuZCkiIHN0eWxlPSIiIGNsYXNzPSJlZGdlLXRoaWNrbmVzcy1ub3JtYWwgZWRnZS1wYXR0ZXJuLXNvbGlkIGVkZ2UtdGhpY2tuZXNzLW5vcm1hbCBlZGdlLXBhdHRlcm4tc29saWQgZmxvd2NoYXJ0LWxpbmsiIGlkPSJMX0NfRF8wIiBkPSJNMzkwLjIsMzE4TDM5MC4yLDMyMi4xNjdDMzkwLjIsMzI2LjMzMywzOTAuMiwzMzQuNjY3LDM5MC4yLDM0Mi4zMzNDMzkwLjIsMzUwLDM5MC4yLDM1NywzOTAuMiwzNjAuNUwzOTAuMiwzNjQiLz48cGF0aCBtYXJrZXItZW5kPSJ1cmwoI21lcm1haWQtc3ZnLTJfZmxvd2NoYXJ0LXYyLXBvaW50RW5kKSIgc3R5bGU9IiIgY2xhc3M9ImVkZ2UtdGhpY2tuZXNzLW5vcm1hbCBlZGdlLXBhdHRlcm4tc29saWQgZWRnZS10aGlja25lc3Mtbm9ybWFsIGVkZ2UtcGF0dGVybi1zb2xpZCBmbG93Y2hhcnQtbGluayIgaWQ9IkxfRF9FXzAiIGQ9Ik0zOTAuMiw0NDZMMzkwLjIsNDUwLjE2N0MzOTAuMiw0NTQuMzMzLDM5MC4yLDQ2Mi42NjcsMzkwLjIsNDcwLjMzM0MzOTAuMiw0NzgsMzkwLjIsNDg1LDM5MC4yLDQ4OC41TDM5MC4yLDQ5MiIvPjxwYXRoIG1hcmtlci1lbmQ9InVybCgjbWVybWFpZC1zdmctMl9mbG93Y2hhcnQtdjItcG9pbnRFbmQpIiBzdHlsZT0iIiBjbGFzcz0iZWRnZS10aGlja25lc3Mtbm9ybWFsIGVkZ2UtcGF0dGVybi1zb2xpZCBlZGdlLXRoaWNrbmVzcy1ub3JtYWwgZWRnZS1wYXR0ZXJuLXNvbGlkIGZsb3djaGFydC1saW5rIiBpZD0iTF9FX0ZfMCIgZD0iTTM5MC4yLDU3NEwzOTAuMiw1NzguMTY3QzM5MC4yLDU4Mi4zMzMsMzkwLjIsNTkwLjY2NywzOTAuMjcsNTk4LjQxN0MzOTAuMzQxLDYwNi4xNjcsMzkwLjQ4MSw2MTMuMzM0LDM5MC41NTEsNjE2LjkxN0wzOTAuNjIyLDYyMC41MDEiLz48cGF0aCBtYXJrZXItZW5kPSJ1cmwoI21lcm1haWQtc3ZnLTJfZmxvd2NoYXJ0LXYyLXBvaW50RW5kKSIgc3R5bGU9IiIgY2xhc3M9ImVkZ2UtdGhpY2tuZXNzLW5vcm1hbCBlZGdlLXBhdHRlcm4tc29saWQgZWRnZS10aGlja25lc3Mtbm9ybWFsIGVkZ2UtcGF0dGVybi1zb2xpZCBmbG93Y2hhcnQtbGluayIgaWQ9IkxfRl9HXzAiIGQ9Ik0zMzIuNjgxLDgwNS45NDNMMzE3LjcwOCw4MjEuNjk2QzMwMi43MzYsODM3LjQ1LDI3Mi43OTEsODY4Ljk1NiwyNTcuODE5LDg5MC4yMDlDMjQyLjg0Nyw5MTEuNDYzLDI0Mi44NDcsOTIyLjQ2MywyNDIuODQ3LDkyNy45NjNMMjQyLjg0Nyw5MzMuNDYzIi8+PHBhdGggbWFya2VyLWVuZD0idXJsKCNtZXJtYWlkLXN2Zy0yX2Zsb3djaGFydC12Mi1wb2ludEVuZCkiIHN0eWxlPSIiIGNsYXNzPSJlZGdlLXRoaWNrbmVzcy1ub3JtYWwgZWRnZS1wYXR0ZXJuLXNvbGlkIGVkZ2UtdGhpY2tuZXNzLW5vcm1hbCBlZGdlLXBhdHRlcm4tc29saWQgZmxvd2NoYXJ0LWxpbmsiIGlkPSJMX0dfSF8wIiBkPSJNMjQyLjg0Nyw5OTEuNDYzTDI0Mi44NDcsOTk1LjYyOUMyNDIuODQ3LDk5OS43OTYsMjQyLjg0NywxMDA4LjEyOSwyNDIuOTE3LDEwMTUuODc5QzI0Mi45ODcsMTAyMy42MjksMjQzLjEyOCwxMDMwLjc5NiwyNDMuMTk4LDEwMzQuMzhMMjQzLjI2OCwxMDM3Ljk2MyIvPjxwYXRoIG1hcmtlci1lbmQ9InVybCgjbWVybWFpZC1zdmctMl9mbG93Y2hhcnQtdjItcG9pbnRFbmQpIiBzdHlsZT0iIiBjbGFzcz0iZWRnZS10aGlja25lc3Mtbm9ybWFsIGVkZ2UtcGF0dGVybi1zb2xpZCBlZGdlLXRoaWNrbmVzcy1ub3JtYWwgZWRnZS1wYXR0ZXJuLXNvbGlkIGZsb3djaGFydC1saW5rIiBpZD0iTF9IX0lfMCIgZD0iTTIyMC4yMTgsMTI2NC45NDZMMjE3LjgxNSwxMjc0Ljg4NEMyMTUuNDEyLDEyODQuODIyLDIxMC42MDYsMTMwNC42OTksMjA4LjIwMywxMzIwLjEzN0MyMDUuOCwxMzM1LjU3NSwyMDUuOCwxMzQ2LjU3NSwyMDUuOCwxMzUyLjA3NUwyMDUuOCwxMzU3LjU3NSIvPjxwYXRoIG1hcmtlci1lbmQ9InVybCgjbWVybWFpZC1zdmctMl9mbG93Y2hhcnQtdjItcG9pbnRFbmQpIiBzdHlsZT0iIiBjbGFzcz0iZWRnZS10aGlja25lc3Mtbm9ybWFsIGVkZ2UtcGF0dGVybi1zb2xpZCBlZGdlLXRoaWNrbmVzcy1ub3JtYWwgZWRnZS1wYXR0ZXJuLXNvbGlkIGZsb3djaGFydC1saW5rIiBpZD0iTF9JX0pfMCIgZD0iTTIwNS44LDE0MzkuNTc1TDIwNS44LDE0NDMuNzQyQzIwNS44LDE0NDcuOTA4LDIwNS44LDE0NTYuMjQyLDIwNS44LDE0NjMuOTA4QzIwNS44LDE0NzEuNTc1LDIwNS44LDE0NzguNTc1LDIwNS44LDE0ODIuMDc1TDIwNS44LDE0ODUuNTc1Ii8+PHBhdGggbWFya2VyLWVuZD0idXJsKCNtZXJtYWlkLXN2Zy0yX2Zsb3djaGFydC12Mi1wb2ludEVuZCkiIHN0eWxlPSIiIGNsYXNzPSJlZGdlLXRoaWNrbmVzcy1ub3JtYWwgZWRnZS1wYXR0ZXJuLXNvbGlkIGVkZ2UtdGhpY2tuZXNzLW5vcm1hbCBlZGdlLXBhdHRlcm4tc29saWQgZmxvd2NoYXJ0LWxpbmsiIGlkPSJMX0pfS18wIiBkPSJNMjA1LjgsMTU2Ny41NzVMMjA1LjgsMTU3MS43NDJDMjA1LjgsMTU3NS45MDgsMjA1LjgsMTU4NC4yNDIsMjA1Ljg3LDE1OTEuOTkyQzIwNS45NDEsMTU5OS43NDIsMjA2LjA4MSwxNjA2LjkwOSwyMDYuMTUxLDE2MTAuNDkyTDIwNi4yMjIsMTYxNC4wNzYiLz48cGF0aCBtYXJrZXItZW5kPSJ1cmwoI21lcm1haWQtc3ZnLTJfZmxvd2NoYXJ0LXYyLXBvaW50RW5kKSIgc3R5bGU9IiIgY2xhc3M9ImVkZ2UtdGhpY2tuZXNzLW5vcm1hbCBlZGdlLXBhdHRlcm4tc29saWQgZWRnZS10aGlja25lc3Mtbm9ybWFsIGVkZ2UtcGF0dGVybi1zb2xpZCBmbG93Y2hhcnQtbGluayIgaWQ9IkxfS19MXzAiIGQ9Ik0xNzAuMTAyLDE4MjEuOTY0TDE2NC43NTEsMTgzNC4wODFDMTU5LjQwMSwxODQ2LjE5NywxNDguNzAxLDE4NzAuNDMsMTQzLjM1LDE4ODguMDQ2QzEzOCwxOTA1LjY2MywxMzgsMTkxNi42NjMsMTM4LDE5MjIuMTYzTDEzOCwxOTI3LjY2MyIvPjxwYXRoIG1hcmtlci1lbmQ9InVybCgjbWVybWFpZC1zdmctMl9mbG93Y2hhcnQtdjItcG9pbnRFbmQpIiBzdHlsZT0iIiBjbGFzcz0iZWRnZS10aGlja25lc3Mtbm9ybWFsIGVkZ2UtcGF0dGVybi1zb2xpZCBlZGdlLXRoaWNrbmVzcy1ub3JtYWwgZWRnZS1wYXR0ZXJuLXNvbGlkIGZsb3djaGFydC1saW5rIiBpZD0iTF9MX01fMCIgZD0iTTEzOCwyMDMzLjY2M0wxMzgsMjAzOS44MjlDMTM4LDIwNDUuOTk2LDEzOCwyMDU4LjMyOSwxMzgsMjA2OS45OTZDMTM4LDIwODEuNjYzLDEzOCwyMDkyLjY2MywxMzgsMjA5OC4xNjNMMTM4LDIxMDMuNjYzIi8+PHBhdGggbWFya2VyLWVuZD0idXJsKCNtZXJtYWlkLXN2Zy0yX2Zsb3djaGFydC12Mi1wb2ludEVuZCkiIHN0eWxlPSIiIGNsYXNzPSJlZGdlLXRoaWNrbmVzcy1ub3JtYWwgZWRnZS1wYXR0ZXJuLXNvbGlkIGVkZ2UtdGhpY2tuZXNzLW5vcm1hbCBlZGdlLXBhdHRlcm4tc29saWQgZmxvd2NoYXJ0LWxpbmsiIGlkPSJMX01fTl8wIiBkPSJNMTM4LDIxODUuNjYzTDEzOCwyMTg5LjgyOUMxMzgsMjE5My45OTYsMTM4LDIyMDIuMzI5LDE0OC45MzEsMjIxMi4zNDhDMTU5Ljg2MiwyMjIyLjM2NywxODEuNzI0LDIyMzQuMDcxLDE5Mi42NTUsMjIzOS45MjNMMjAzLjU4NywyMjQ1Ljc3NSIvPjxwYXRoIG1hcmtlci1lbmQ9InVybCgjbWVybWFpZC1zdmctMl9mbG93Y2hhcnQtdjItcG9pbnRFbmQpIiBzdHlsZT0iIiBjbGFzcz0iZWRnZS10aGlja25lc3Mtbm9ybWFsIGVkZ2UtcGF0dGVybi1zb2xpZCBlZGdlLXRoaWNrbmVzcy1ub3JtYWwgZWRnZS1wYXR0ZXJuLXNvbGlkIGZsb3djaGFydC1saW5rIiBpZD0iTF9LX05fMCIgZD0iTTI1Mi4xOTQsMTgxMi4yNjlMMjYwLjY2MiwxODI2LjAwMUMyNjkuMTI5LDE4MzkuNzMzLDI4Ni4wNjUsMTg2Ny4xOTgsMjk0LjUzMiwxODk1LjU5N0MzMDMsMTkyMy45OTYsMzAzLDE5NTMuMzI5LDMwMywxOTgyLjY2M0MzMDMsMjAxMS45OTYsMzAzLDIwNDEuMzI5LDMwMywyMDY4LjY2M0MzMDMsMjA5NS45OTYsMzAzLDIxMjEuMzI5LDMwMywyMTQ0LjY2M0MzMDMsMjE2Ny45OTYsMzAzLDIxODkuMzI5LDI5OS4wMDYsMjIwNS42MTlDMjk1LjAxMywyMjIxLjkwOSwyODcuMDI2LDIyMzMuMTU1LDI4My4wMzIsMjIzOC43NzhMMjc5LjAzOSwyMjQ0LjQwMSIvPjxwYXRoIG1hcmtlci1lbmQ9InVybCgjbWVybWFpZC1zdmctMl9mbG93Y2hhcnQtdjItcG9pbnRFbmQpIiBzdHlsZT0iIiBjbGFzcz0iZWRnZS10aGlja25lc3Mtbm9ybWFsIGVkZ2UtcGF0dGVybi1zb2xpZCBlZGdlLXRoaWNrbmVzcy1ub3JtYWwgZWRnZS1wYXR0ZXJuLXNvbGlkIGZsb3djaGFydC1saW5rIiBpZD0iTF9IX05fMCIgZD0iTTMwNC4zNTEsMTIyNy4wNzFMMzIwLjMyNiwxMjQzLjMyMkMzMzYuMzAxLDEyNTkuNTcyLDM2OC4yNSwxMjkyLjA3NCwzODQuMjI1LDEzMjAuOTkxQzQwMC4yLDEzNDkuOTA4LDQwMC4yLDEzNzUuMjQyLDQwMC4yLDEzOTguNTc1QzQwMC4yLDE0MjEuOTA4LDQwMC4yLDE0NDMuMjQyLDQwMC4yLDE0NjQuNTc1QzQwMC4yLDE0ODUuOTA4LDQwMC4yLDE1MDcuMjQyLDQwMC4yLDE1MjguNTc1QzQwMC4yLDE1NDkuOTA4LDQwMC4yLDE1NzEuMjQyLDQwMC4yLDE2MDYuMDgyQzQwMC4yLDE2NDAuOTIzLDQwMC4yLDE2ODkuMjcxLDQwMC4yLDE3MzkuNjE5QzQwMC4yLDE3ODkuOTY3LDQwMC4yLDE4NDIuMzE1LDQwMC4yLDE4ODMuMTU1QzQwMC4yLDE5MjMuOTk2LDQwMC4yLDE5NTMuMzI5LDQwMC4yLDE5ODIuNjYzQzQwMC4yLDIwMTEuOTk2LDQwMC4yLDIwNDEuMzI5LDQwMC4yLDIwNjguNjYzQzQwMC4yLDIwOTUuOTk2LDQwMC4yLDIxMjEuMzI5LDQwMC4yLDIxNDQuNjYzQzQwMC4yLDIxNjcuOTk2LDQwMC4yLDIxODkuMzI5LDM4Ny4wNjMsMjIwNS44OUMzNzMuOTI2LDIyMjIuNDUsMzQ3LjY1MiwyMjM0LjIzOCwzMzQuNTE1LDIyNDAuMTMxTDMyMS4zNzgsMjI0Ni4wMjUiLz48cGF0aCBtYXJrZXItZW5kPSJ1cmwoI21lcm1haWQtc3ZnLTJfZmxvd2NoYXJ0LXYyLXBvaW50RW5kKSIgc3R5bGU9IiIgY2xhc3M9ImVkZ2UtdGhpY2tuZXNzLW5vcm1hbCBlZGdlLXBhdHRlcm4tc29saWQgZWRnZS10aGlja25lc3Mtbm9ybWFsIGVkZ2UtcGF0dGVybi1zb2xpZCBmbG93Y2hhcnQtbGluayIgaWQ9IkxfTl9PXzAiIGQ9Ik0yNTcuNTQ3LDIzMDEuNjYzTDI1Ny41NDcsMjMwNy44MjlDMjU3LjU0NywyMzEzLjk5NiwyNTcuNTQ3LDIzMjYuMzI5LDI1Ny41NDcsMjMzNy45OTZDMjU3LjU0NywyMzQ5LjY2MywyNTcuNTQ3LDIzNjAuNjYzLDI1Ny41NDcsMjM2Ni4xNjNMMjU3LjU0NywyMzcxLjY2MyIvPjxwYXRoIG1hcmtlci1lbmQ9InVybCgjbWVybWFpZC1zdmctMl9mbG93Y2hhcnQtdjItcG9pbnRFbmQpIiBzdHlsZT0iIiBjbGFzcz0iZWRnZS10aGlja25lc3Mtbm9ybWFsIGVkZ2UtcGF0dGVybi1zb2xpZCBlZGdlLXRoaWNrbmVzcy1ub3JtYWwgZWRnZS1wYXR0ZXJuLXNvbGlkIGZsb3djaGFydC1saW5rIiBpZD0iTF9PX1BfMCIgZD0iTTI1Ny41NDcsMjQyOS42NjNMMjU3LjU0NywyNDM1LjgyOUMyNTcuNTQ3LDI0NDEuOTk2LDI1Ny41NDcsMjQ1NC4zMjksMjg1LjU3MSwyNDY3LjI2OUMzMTMuNTk2LDI0ODAuMjA5LDM2OS42NDQsMjQ5My43NTUsMzk3LjY2OSwyNTAwLjUyOEw0MjUuNjkzLDI1MDcuMzAyIi8+PHBhdGggbWFya2VyLWVuZD0idXJsKCNtZXJtYWlkLXN2Zy0yX2Zsb3djaGFydC12Mi1wb2ludEVuZCkiIHN0eWxlPSIiIGNsYXNzPSJlZGdlLXRoaWNrbmVzcy1ub3JtYWwgZWRnZS1wYXR0ZXJuLXNvbGlkIGVkZ2UtdGhpY2tuZXNzLW5vcm1hbCBlZGdlLXBhdHRlcm4tc29saWQgZmxvd2NoYXJ0LWxpbmsiIGlkPSJMX0ZfUV8wIiBkPSJNNDU1LjQyMSw3OTkuMjQxTDQ3NS4yODQsODE2LjExMUM0OTUuMTQ4LDgzMi45ODIsNTM0Ljg3NCw4NjYuNzIyLDU1NC43MzcsODk0LjI1OUM1NzQuNiw5MjEuNzk2LDU3NC42LDk0My4xMjksNTc0LjYsOTYyLjQ2M0M1NzQuNiw5ODEuNzk2LDU3NC42LDk5OS4xMjksNTc0LjYsMTAzMi40NzJDNTc0LjYsMTA2NS44MTUsNTc0LjYsMTExNS4xNjcsNTc0LjYsMTE2Ni41MTlDNTc0LjYsMTIxNy44NzEsNTc0LjYsMTI3MS4yMjMsNTc0LjYsMTMxMC41NjZDNTc0LjYsMTM0OS45MDgsNTc0LjYsMTM3NS4yNDIsNTc0LjYsMTM5OC41NzVDNTc0LjYsMTQyMS45MDgsNTc0LjYsMTQ0My4yNDIsNTc0LjYsMTQ2NC41NzVDNTc0LjYsMTQ4NS45MDgsNTc0LjYsMTUwNy4yNDIsNTc0LjYsMTUyOC41NzVDNTc0LjYsMTU0OS45MDgsNTc0LjYsMTU3MS4yNDIsNTc0LjYsMTU5Ni45MTZDNTc0LjYsMTYyMi41OSw1NzQuNiwxNjUyLjYwNCw1NzQuNiwxNjY3LjYxMUw1NzQuNiwxNjgyLjYxOSIvPjxwYXRoIG1hcmtlci1lbmQ9InVybCgjbWVybWFpZC1zdmctMl9mbG93Y2hhcnQtdjItcG9pbnRFbmQpIiBzdHlsZT0iIiBjbGFzcz0iZWRnZS10aGlja25lc3Mtbm9ybWFsIGVkZ2UtcGF0dGVybi1zb2xpZCBlZGdlLXRoaWNrbmVzcy1ub3JtYWwgZWRnZS1wYXR0ZXJuLXNvbGlkIGZsb3djaGFydC1saW5rIiBpZD0iTF9RX1JfMCIgZD0iTTU3NC42LDE3ODguNjE5TDU3NC42LDE4MDYuMjkzQzU3NC42LDE4MjMuOTY3LDU3NC42LDE4NTkuMzE1LDU3NC42LDE4ODQuNDg5QzU3NC42LDE5MDkuNjYzLDU3NC42LDE5MjQuNjYzLDU3NC42LDE5MzIuMTYzTDU3NC42LDE5MzkuNjYzIi8+PHBhdGggbWFya2VyLWVuZD0idXJsKCNtZXJtYWlkLXN2Zy0yX2Zsb3djaGFydC12Mi1wb2ludEVuZCkiIHN0eWxlPSIiIGNsYXNzPSJlZGdlLXRoaWNrbmVzcy1ub3JtYWwgZWRnZS1wYXR0ZXJuLXNvbGlkIGVkZ2UtdGhpY2tuZXNzLW5vcm1hbCBlZGdlLXBhdHRlcm4tc29saWQgZmxvd2NoYXJ0LWxpbmsiIGlkPSJMX1JfU18wIiBkPSJNNTc0LjYsMjAyMS42NjNMNTc0LjYsMjAyOS44MjlDNTc0LjYsMjAzNy45OTYsNTc0LjYsMjA1NC4zMjksNTc0LjYsMjA2Ny45OTZDNTc0LjYsMjA4MS42NjMsNTc0LjYsMjA5Mi42NjMsNTc0LjYsMjA5OC4xNjNMNTc0LjYsMjEwMy42NjMiLz48cGF0aCBtYXJrZXItZW5kPSJ1cmwoI21lcm1haWQtc3ZnLTJfZmxvd2NoYXJ0LXYyLXBvaW50RW5kKSIgc3R5bGU9IiIgY2xhc3M9ImVkZ2UtdGhpY2tuZXNzLW5vcm1hbCBlZGdlLXBhdHRlcm4tc29saWQgZWRnZS10aGlja25lc3Mtbm9ybWFsIGVkZ2UtcGF0dGVybi1zb2xpZCBmbG93Y2hhcnQtbGluayIgaWQ9IkxfU19UXzAiIGQ9Ik01NzQuNiwyMTg1LjY2M0w1NzQuNiwyMTg5LjgyOUM1NzQuNiwyMTkzLjk5Niw1NzQuNiwyMjAyLjMyOSw1NzQuNiwyMjA5Ljk5NkM1NzQuNiwyMjE3LjY2Myw1NzQuNiwyMjI0LjY2Myw1NzQuNiwyMjI4LjE2M0w1NzQuNiwyMjMxLjY2MyIvPjxwYXRoIG1hcmtlci1lbmQ9InVybCgjbWVybWFpZC1zdmctMl9mbG93Y2hhcnQtdjItcG9pbnRFbmQpIiBzdHlsZT0iIiBjbGFzcz0iZWRnZS10aGlja25lc3Mtbm9ybWFsIGVkZ2UtcGF0dGVybi1zb2xpZCBlZGdlLXRoaWNrbmVzcy1ub3JtYWwgZWRnZS1wYXR0ZXJuLXNvbGlkIGZsb3djaGFydC1saW5rIiBpZD0iTF9UX1VfMCIgZD0iTTU3NC42LDIzMTMuNjYzTDU3NC42LDIzMTcuODI5QzU3NC42LDIzMjEuOTk2LDU3NC42LDIzMzAuMzI5LDU3NC42LDIzMzcuOTk2QzU3NC42LDIzNDUuNjYzLDU3NC42LDIzNTIuNjYzLDU3NC42LDIzNTYuMTYzTDU3NC42LDIzNTkuNjYzIi8+PHBhdGggbWFya2VyLWVuZD0idXJsKCNtZXJtYWlkLXN2Zy0yX2Zsb3djaGFydC12Mi1wb2ludEVuZCkiIHN0eWxlPSIiIGNsYXNzPSJlZGdlLXRoaWNrbmVzcy1ub3JtYWwgZWRnZS1wYXR0ZXJuLXNvbGlkIGVkZ2UtdGhpY2tuZXNzLW5vcm1hbCBlZGdlLXBhdHRlcm4tc29saWQgZmxvd2NoYXJ0LWxpbmsiIGlkPSJMX1VfUF8wIiBkPSJNNTc0LjYsMjQ0MS42NjNMNTc0LjYsMjQ0NS44MjlDNTc0LjYsMjQ0OS45OTYsNTc0LjYsMjQ1OC4zMjksNTY1LjM5NywyNDY3LjE5MkM1NTYuMTk0LDI0NzYuMDU1LDUzNy43ODgsMjQ4NS40NDgsNTI4LjU4NSwyNDkwLjE0NEw1MTkuMzgyLDI0OTQuODQxIi8+PC9nPjxnIGNsYXNzPSJlZGdlTGFiZWxzIj48ZyBjbGFzcz0iZWRnZUxhYmVsIj48ZyB0cmFuc2Zvcm09InRyYW5zbGF0ZSgwLCAwKSIgY2xhc3M9ImxhYmVsIj48Zm9yZWlnbk9iamVjdCBoZWlnaHQ9IjAiIHdpZHRoPSIwIj48ZGl2IHhtbG5zPSJodHRwOi8vd3d3LnczLm9yZy8xOTk5L3hodG1sIiBzdHlsZT0iZGlzcGxheTogdGFibGUtY2VsbDsgd2hpdGUtc3BhY2U6IG5vd3JhcDsgbGluZS1oZWlnaHQ6IDEuNTsgbWF4LXdpZHRoOiAyMDBweDsgdGV4dC1hbGlnbjogY2VudGVyOyIgY2xhc3M9ImxhYmVsQmtnIj48c3BhbiBjbGFzcz0iZWRnZUxhYmVsIj48L3NwYW4+PC9kaXY+PC9mb3JlaWduT2JqZWN0PjwvZz48L2c+PGcgY2xhc3M9ImVkZ2VMYWJlbCI+PGcgdHJhbnNmb3JtPSJ0cmFuc2xhdGUoMCwgMCkiIGNsYXNzPSJsYWJlbCI+PGZvcmVpZ25PYmplY3QgaGVpZ2h0PSIwIiB3aWR0aD0iMCI+PGRpdiB4bWxucz0iaHR0cDovL3d3dy53My5vcmcvMTk5OS94aHRtbCIgc3R5bGU9ImRpc3BsYXk6IHRhYmxlLWNlbGw7IHdoaXRlLXNwYWNlOiBub3dyYXA7IGxpbmUtaGVpZ2h0OiAxLjU7IG1heC13aWR0aDogMjAwcHg7IHRleHQtYWxpZ246IGNlbnRlcjsiIGNsYXNzPSJsYWJlbEJrZyI+PHNwYW4gY2xhc3M9ImVkZ2VMYWJlbCI+PC9zcGFuPjwvZGl2PjwvZm9yZWlnbk9iamVjdD48L2c+PC9nPjxnIGNsYXNzPSJlZGdlTGFiZWwiPjxnIHRyYW5zZm9ybT0idHJhbnNsYXRlKDAsIDApIiBjbGFzcz0ibGFiZWwiPjxmb3JlaWduT2JqZWN0IGhlaWdodD0iMCIgd2lkdGg9IjAiPjxkaXYgeG1sbnM9Imh0dHA6Ly93d3cudzMub3JnLzE5OTkveGh0bWwiIHN0eWxlPSJkaXNwbGF5OiB0YWJsZS1jZWxsOyB3aGl0ZS1zcGFjZTogbm93cmFwOyBsaW5lLWhlaWdodDogMS41OyBtYXgtd2lkdGg6IDIwMHB4OyB0ZXh0LWFsaWduOiBjZW50ZXI7IiBjbGFzcz0ibGFiZWxCa2ciPjxzcGFuIGNsYXNzPSJlZGdlTGFiZWwiPjwvc3Bhbj48L2Rpdj48L2ZvcmVpZ25PYmplY3Q+PC9nPjwvZz48ZyBjbGFzcz0iZWRnZUxhYmVsIj48ZyB0cmFuc2Zvcm09InRyYW5zbGF0ZSgwLCAwKSIgY2xhc3M9ImxhYmVsIj48Zm9yZWlnbk9iamVjdCBoZWlnaHQ9IjAiIHdpZHRoPSIwIj48ZGl2IHhtbG5zPSJodHRwOi8vd3d3LnczLm9yZy8xOTk5L3hodG1sIiBzdHlsZT0iZGlzcGxheTogdGFibGUtY2VsbDsgd2hpdGUtc3BhY2U6IG5vd3JhcDsgbGluZS1oZWlnaHQ6IDEuNTsgbWF4LXdpZHRoOiAyMDBweDsgdGV4dC1hbGlnbjogY2VudGVyOyIgY2xhc3M9ImxhYmVsQmtnIj48c3BhbiBjbGFzcz0iZWRnZUxhYmVsIj48L3NwYW4+PC9kaXY+PC9mb3JlaWduT2JqZWN0PjwvZz48L2c+PGcgY2xhc3M9ImVkZ2VMYWJlbCI+PGcgdHJhbnNmb3JtPSJ0cmFuc2xhdGUoMCwgMCkiIGNsYXNzPSJsYWJlbCI+PGZvcmVpZ25PYmplY3QgaGVpZ2h0PSIwIiB3aWR0aD0iMCI+PGRpdiB4bWxucz0iaHR0cDovL3d3dy53My5vcmcvMTk5OS94aHRtbCIgc3R5bGU9ImRpc3BsYXk6IHRhYmxlLWNlbGw7IHdoaXRlLXNwYWNlOiBub3dyYXA7IGxpbmUtaGVpZ2h0OiAxLjU7IG1heC13aWR0aDogMjAwcHg7IHRleHQtYWxpZ246IGNlbnRlcjsiIGNsYXNzPSJsYWJlbEJrZyI+PHNwYW4gY2xhc3M9ImVkZ2VMYWJlbCI+PC9zcGFuPjwvZGl2PjwvZm9yZWlnbk9iamVjdD48L2c+PC9nPjxnIHRyYW5zZm9ybT0idHJhbnNsYXRlKDI0Mi44NDY4NzM3NjAyMjM0LCA5MDAuNDYyNTA5MTU1MjczNCkiIGNsYXNzPSJlZGdlTGFiZWwiPjxnIHRyYW5zZm9ybT0idHJhbnNsYXRlKC0xMS4zMjQ5OTk4MDkyNjUxMzcsIC0xMikiIGNsYXNzPSJsYWJlbCI+PGZvcmVpZ25PYmplY3QgaGVpZ2h0PSIyNCIgd2lkdGg9IjIyLjY0OTk5OTYxODUzMDI3MyI+PGRpdiB4bWxucz0iaHR0cDovL3d3dy53My5vcmcvMTk5OS94aHRtbCIgc3R5bGU9ImRpc3BsYXk6IHRhYmxlLWNlbGw7IHdoaXRlLXNwYWNlOiBub3dyYXA7IGxpbmUtaGVpZ2h0OiAxLjU7IG1heC13aWR0aDogMjAwcHg7IHRleHQtYWxpZ246IGNlbnRlcjsiIGNsYXNzPSJsYWJlbEJrZyI+PHNwYW4gY2xhc3M9ImVkZ2VMYWJlbCI+PHA+WWVzPC9wPjwvc3Bhbj48L2Rpdj48L2ZvcmVpZ25PYmplY3Q+PC9nPjwvZz48ZyBjbGFzcz0iZWRnZUxhYmVsIj48ZyB0cmFuc2Zvcm09InRyYW5zbGF0ZSgwLCAwKSIgY2xhc3M9ImxhYmVsIj48Zm9yZWlnbk9iamVjdCBoZWlnaHQ9IjAiIHdpZHRoPSIwIj48ZGl2IHhtbG5zPSJodHRwOi8vd3d3LnczLm9yZy8xOTk5L3hodG1sIiBzdHlsZT0iZGlzcGxheTogdGFibGUtY2VsbDsgd2hpdGUtc3BhY2U6IG5vd3JhcDsgbGluZS1oZWlnaHQ6IDEuNTsgbWF4LXdpZHRoOiAyMDBweDsgdGV4dC1hbGlnbjogY2VudGVyOyIgY2xhc3M9ImxhYmVsQmtnIj48c3BhbiBjbGFzcz0iZWRnZUxhYmVsIj48L3NwYW4+PC9kaXY+PC9mb3JlaWduT2JqZWN0PjwvZz48L2c+PGcgdHJhbnNmb3JtPSJ0cmFuc2xhdGUoMjA1Ljc5OTk5OTcxMzg5NzcsIDEzMjQuNTc1MDEyMjA3MDMxMikiIGNsYXNzPSJlZGdlTGFiZWwiPjxnIHRyYW5zZm9ybT0idHJhbnNsYXRlKC0xMS4zMjQ5OTk4MDkyNjUxMzcsIC0xMikiIGNsYXNzPSJsYWJlbCI+PGZvcmVpZ25PYmplY3QgaGVpZ2h0PSIyNCIgd2lkdGg9IjIyLjY0OTk5OTYxODUzMDI3MyI+PGRpdiB4bWxucz0iaHR0cDovL3d3dy53My5vcmcvMTk5OS94aHRtbCIgc3R5bGU9ImRpc3BsYXk6IHRhYmxlLWNlbGw7IHdoaXRlLXNwYWNlOiBub3dyYXA7IGxpbmUtaGVpZ2h0OiAxLjU7IG1heC13aWR0aDogMjAwcHg7IHRleHQtYWxpZ246IGNlbnRlcjsiIGNsYXNzPSJsYWJlbEJrZyI+PHNwYW4gY2xhc3M9ImVkZ2VMYWJlbCI+PHA+WWVzPC9wPjwvc3Bhbj48L2Rpdj48L2ZvcmVpZ25PYmplY3Q+PC9nPjwvZz48ZyBjbGFzcz0iZWRnZUxhYmVsIj48ZyB0cmFuc2Zvcm09InRyYW5zbGF0ZSgwLCAwKSIgY2xhc3M9ImxhYmVsIj48Zm9yZWlnbk9iamVjdCBoZWlnaHQ9IjAiIHdpZHRoPSIwIj48ZGl2IHhtbG5zPSJodHRwOi8vd3d3LnczLm9yZy8xOTk5L3hodG1sIiBzdHlsZT0iZGlzcGxheTogdGFibGUtY2VsbDsgd2hpdGUtc3BhY2U6IG5vd3JhcDsgbGluZS1oZWlnaHQ6IDEuNTsgbWF4LXdpZHRoOiAyMDBweDsgdGV4dC1hbGlnbjogY2VudGVyOyIgY2xhc3M9ImxhYmVsQmtnIj48c3BhbiBjbGFzcz0iZWRnZUxhYmVsIj48L3NwYW4+PC9kaXY+PC9mb3JlaWduT2JqZWN0PjwvZz48L2c+PGcgY2xhc3M9ImVkZ2VMYWJlbCI+PGcgdHJhbnNmb3JtPSJ0cmFuc2xhdGUoMCwgMCkiIGNsYXNzPSJsYWJlbCI+PGZvcmVpZ25PYmplY3QgaGVpZ2h0PSIwIiB3aWR0aD0iMCI+PGRpdiB4bWxucz0iaHR0cDovL3d3dy53My5vcmcvMTk5OS94aHRtbCIgc3R5bGU9ImRpc3BsYXk6IHRhYmxlLWNlbGw7IHdoaXRlLXNwYWNlOiBub3dyYXA7IGxpbmUtaGVpZ2h0OiAxLjU7IG1heC13aWR0aDogMjAwcHg7IHRleHQtYWxpZ246IGNlbnRlcjsiIGNsYXNzPSJsYWJlbEJrZyI+PHNwYW4gY2xhc3M9ImVkZ2VMYWJlbCI+PC9zcGFuPjwvZGl2PjwvZm9yZWlnbk9iamVjdD48L2c+PC9nPjxnIHRyYW5zZm9ybT0idHJhbnNsYXRlKDEzOCwgMTg5NC42NjI1MjEzNjIzMDQ3KSIgY2xhc3M9ImVkZ2VMYWJlbCI+PGcgdHJhbnNmb3JtPSJ0cmFuc2xhdGUoLTExLjMyNDk5OTgwOTI2NTEzNywgLTEyKSIgY2xhc3M9ImxhYmVsIj48Zm9yZWlnbk9iamVjdCBoZWlnaHQ9IjI0IiB3aWR0aD0iMjIuNjQ5OTk5NjE4NTMwMjczIj48ZGl2IHhtbG5zPSJodHRwOi8vd3d3LnczLm9yZy8xOTk5L3hodG1sIiBzdHlsZT0iZGlzcGxheTogdGFibGUtY2VsbDsgd2hpdGUtc3BhY2U6IG5vd3JhcDsgbGluZS1oZWlnaHQ6IDEuNTsgbWF4LXdpZHRoOiAyMDBweDsgdGV4dC1hbGlnbjogY2VudGVyOyIgY2xhc3M9ImxhYmVsQmtnIj48c3BhbiBjbGFzcz0iZWRnZUxhYmVsIj48cD5ZZXM8L3A+PC9zcGFuPjwvZGl2PjwvZm9yZWlnbk9iamVjdD48L2c+PC9nPjxnIGNsYXNzPSJlZGdlTGFiZWwiPjxnIHRyYW5zZm9ybT0idHJhbnNsYXRlKDAsIDApIiBjbGFzcz0ibGFiZWwiPjxmb3JlaWduT2JqZWN0IGhlaWdodD0iMCIgd2lkdGg9IjAiPjxkaXYgeG1sbnM9Imh0dHA6Ly93d3cudzMub3JnLzE5OTkveGh0bWwiIHN0eWxlPSJkaXNwbGF5OiB0YWJsZS1jZWxsOyB3aGl0ZS1zcGFjZTogbm93cmFwOyBsaW5lLWhlaWdodDogMS41OyBtYXgtd2lkdGg6IDIwMHB4OyB0ZXh0LWFsaWduOiBjZW50ZXI7IiBjbGFzcz0ibGFiZWxCa2ciPjxzcGFuIGNsYXNzPSJlZGdlTGFiZWwiPjwvc3Bhbj48L2Rpdj48L2ZvcmVpZ25PYmplY3Q+PC9nPjwvZz48ZyBjbGFzcz0iZWRnZUxhYmVsIj48ZyB0cmFuc2Zvcm09InRyYW5zbGF0ZSgwLCAwKSIgY2xhc3M9ImxhYmVsIj48Zm9yZWlnbk9iamVjdCBoZWlnaHQ9IjAiIHdpZHRoPSIwIj48ZGl2IHhtbG5zPSJodHRwOi8vd3d3LnczLm9yZy8xOTk5L3hodG1sIiBzdHlsZT0iZGlzcGxheTogdGFibGUtY2VsbDsgd2hpdGUtc3BhY2U6IG5vd3JhcDsgbGluZS1oZWlnaHQ6IDEuNTsgbWF4LXdpZHRoOiAyMDBweDsgdGV4dC1hbGlnbjogY2VudGVyOyIgY2xhc3M9ImxhYmVsQmtnIj48c3BhbiBjbGFzcz0iZWRnZUxhYmVsIj48L3NwYW4+PC9kaXY+PC9mb3JlaWduT2JqZWN0PjwvZz48L2c+PGcgdHJhbnNmb3JtPSJ0cmFuc2xhdGUoMzAzLCAyMDcwLjY2MjUyMTM2MjMwNDcpIiBjbGFzcz0iZWRnZUxhYmVsIj48ZyB0cmFuc2Zvcm09InRyYW5zbGF0ZSgtOS40MDAwMDA1NzIyMDQ1OSwgLTEyKSIgY2xhc3M9ImxhYmVsIj48Zm9yZWlnbk9iamVjdCBoZWlnaHQ9IjI0IiB3aWR0aD0iMTguODAwMDAxMTQ0NDA5MTgiPjxkaXYgeG1sbnM9Imh0dHA6Ly93d3cudzMub3JnLzE5OTkveGh0bWwiIHN0eWxlPSJkaXNwbGF5OiB0YWJsZS1jZWxsOyB3aGl0ZS1zcGFjZTogbm93cmFwOyBsaW5lLWhlaWdodDogMS41OyBtYXgtd2lkdGg6IDIwMHB4OyB0ZXh0LWFsaWduOiBjZW50ZXI7IiBjbGFzcz0ibGFiZWxCa2ciPjxzcGFuIGNsYXNzPSJlZGdlTGFiZWwiPjxwPk5vPC9wPjwvc3Bhbj48L2Rpdj48L2ZvcmVpZ25PYmplY3Q+PC9nPjwvZz48ZyB0cmFuc2Zvcm09InRyYW5zbGF0ZSg0MDAuMjAwMDAwMjg2MTAyMywgMTczNy42MTg3NjY3ODQ2NjgpIiBjbGFzcz0iZWRnZUxhYmVsIj48ZyB0cmFuc2Zvcm09InRyYW5zbGF0ZSgtOS40MDAwMDA1NzIyMDQ1OSwgLTEyKSIgY2xhc3M9ImxhYmVsIj48Zm9yZWlnbk9iamVjdCBoZWlnaHQ9IjI0IiB3aWR0aD0iMTguODAwMDAxMTQ0NDA5MTgiPjxkaXYgeG1sbnM9Imh0dHA6Ly93d3cudzMub3JnLzE5OTkveGh0bWwiIHN0eWxlPSJkaXNwbGF5OiB0YWJsZS1jZWxsOyB3aGl0ZS1zcGFjZTogbm93cmFwOyBsaW5lLWhlaWdodDogMS41OyBtYXgtd2lkdGg6IDIwMHB4OyB0ZXh0LWFsaWduOiBjZW50ZXI7IiBjbGFzcz0ibGFiZWxCa2ciPjxzcGFuIGNsYXNzPSJlZGdlTGFiZWwiPjxwPk5vPC9wPjwvc3Bhbj48L2Rpdj48L2ZvcmVpZ25PYmplY3Q+PC9nPjwvZz48ZyBjbGFzcz0iZWRnZUxhYmVsIj48ZyB0cmFuc2Zvcm09InRyYW5zbGF0ZSgwLCAwKSIgY2xhc3M9ImxhYmVsIj48Zm9yZWlnbk9iamVjdCBoZWlnaHQ9IjAiIHdpZHRoPSIwIj48ZGl2IHhtbG5zPSJodHRwOi8vd3d3LnczLm9yZy8xOTk5L3hodG1sIiBzdHlsZT0iZGlzcGxheTogdGFibGUtY2VsbDsgd2hpdGUtc3BhY2U6IG5vd3JhcDsgbGluZS1oZWlnaHQ6IDEuNTsgbWF4LXdpZHRoOiAyMDBweDsgdGV4dC1hbGlnbjogY2VudGVyOyIgY2xhc3M9ImxhYmVsQmtnIj48c3BhbiBjbGFzcz0iZWRnZUxhYmVsIj48L3NwYW4+PC9kaXY+PC9mb3JlaWduT2JqZWN0PjwvZz48L2c+PGcgY2xhc3M9ImVkZ2VMYWJlbCI+PGcgdHJhbnNmb3JtPSJ0cmFuc2xhdGUoMCwgMCkiIGNsYXNzPSJsYWJlbCI+PGZvcmVpZ25PYmplY3QgaGVpZ2h0PSIwIiB3aWR0aD0iMCI+PGRpdiB4bWxucz0iaHR0cDovL3d3dy53My5vcmcvMTk5OS94aHRtbCIgc3R5bGU9ImRpc3BsYXk6IHRhYmxlLWNlbGw7IHdoaXRlLXNwYWNlOiBub3dyYXA7IGxpbmUtaGVpZ2h0OiAxLjU7IG1heC13aWR0aDogMjAwcHg7IHRleHQtYWxpZ246IGNlbnRlcjsiIGNsYXNzPSJsYWJlbEJrZyI+PHNwYW4gY2xhc3M9ImVkZ2VMYWJlbCI+PC9zcGFuPjwvZGl2PjwvZm9yZWlnbk9iamVjdD48L2c+PC9nPjxnIHRyYW5zZm9ybT0idHJhbnNsYXRlKDU3NC42MDAwMDA4NTgzMDY5LCAxMzI0LjU3NTAxMjIwNzAzMTIpIiBjbGFzcz0iZWRnZUxhYmVsIj48ZyB0cmFuc2Zvcm09InRyYW5zbGF0ZSgtODUuNzkzNzU0NTc3NjM2NzIsIC0xMikiIGNsYXNzPSJsYWJlbCI+PGZvcmVpZ25PYmplY3QgaGVpZ2h0PSIyNCIgd2lkdGg9IjE3MS41ODc1MDkxNTUyNzM0NCI+PGRpdiB4bWxucz0iaHR0cDovL3d3dy53My5vcmcvMTk5OS94aHRtbCIgc3R5bGU9ImRpc3BsYXk6IHRhYmxlLWNlbGw7IHdoaXRlLXNwYWNlOiBub3dyYXA7IGxpbmUtaGVpZ2h0OiAxLjU7IG1heC13aWR0aDogMjAwcHg7IHRleHQtYWxpZ246IGNlbnRlcjsiIGNsYXNzPSJsYWJlbEJrZyI+PHNwYW4gY2xhc3M9ImVkZ2VMYWJlbCI+PHA+Tm8gRXRoZXJUeXBlID09IDB4MDgwMDwvcD48L3NwYW4+PC9kaXY+PC9mb3JlaWduT2JqZWN0PjwvZz48L2c+PGcgY2xhc3M9ImVkZ2VMYWJlbCI+PGcgdHJhbnNmb3JtPSJ0cmFuc2xhdGUoMCwgMCkiIGNsYXNzPSJsYWJlbCI+PGZvcmVpZ25PYmplY3QgaGVpZ2h0PSIwIiB3aWR0aD0iMCI+PGRpdiB4bWxucz0iaHR0cDovL3d3dy53My5vcmcvMTk5OS94aHRtbCIgc3R5bGU9ImRpc3BsYXk6IHRhYmxlLWNlbGw7IHdoaXRlLXNwYWNlOiBub3dyYXA7IGxpbmUtaGVpZ2h0OiAxLjU7IG1heC13aWR0aDogMjAwcHg7IHRleHQtYWxpZ246IGNlbnRlcjsiIGNsYXNzPSJsYWJlbEJrZyI+PHNwYW4gY2xhc3M9ImVkZ2VMYWJlbCI+PC9zcGFuPjwvZGl2PjwvZm9yZWlnbk9iamVjdD48L2c+PC9nPjxnIGNsYXNzPSJlZGdlTGFiZWwiPjxnIHRyYW5zZm9ybT0idHJhbnNsYXRlKDAsIDApIiBjbGFzcz0ibGFiZWwiPjxmb3JlaWduT2JqZWN0IGhlaWdodD0iMCIgd2lkdGg9IjAiPjxkaXYgeG1sbnM9Imh0dHA6Ly93d3cudzMub3JnLzE5OTkveGh0bWwiIHN0eWxlPSJkaXNwbGF5OiB0YWJsZS1jZWxsOyB3aGl0ZS1zcGFjZTogbm93cmFwOyBsaW5lLWhlaWdodDogMS41OyBtYXgtd2lkdGg6IDIwMHB4OyB0ZXh0LWFsaWduOiBjZW50ZXI7IiBjbGFzcz0ibGFiZWxCa2ciPjxzcGFuIGNsYXNzPSJlZGdlTGFiZWwiPjwvc3Bhbj48L2Rpdj48L2ZvcmVpZ25PYmplY3Q+PC9nPjwvZz48ZyBjbGFzcz0iZWRnZUxhYmVsIj48ZyB0cmFuc2Zvcm09InRyYW5zbGF0ZSgwLCAwKSIgY2xhc3M9ImxhYmVsIj48Zm9yZWlnbk9iamVjdCBoZWlnaHQ9IjAiIHdpZHRoPSIwIj48ZGl2IHhtbG5zPSJodHRwOi8vd3d3LnczLm9yZy8xOTk5L3hodG1sIiBzdHlsZT0iZGlzcGxheTogdGFibGUtY2VsbDsgd2hpdGUtc3BhY2U6IG5vd3JhcDsgbGluZS1oZWlnaHQ6IDEuNTsgbWF4LXdpZHRoOiAyMDBweDsgdGV4dC1hbGlnbjogY2VudGVyOyIgY2xhc3M9ImxhYmVsQmtnIj48c3BhbiBjbGFzcz0iZWRnZUxhYmVsIj48L3NwYW4+PC9kaXY+PC9mb3JlaWduT2JqZWN0PjwvZz48L2c+PGcgY2xhc3M9ImVkZ2VMYWJlbCI+PGcgdHJhbnNmb3JtPSJ0cmFuc2xhdGUoMCwgMCkiIGNsYXNzPSJsYWJlbCI+PGZvcmVpZ25PYmplY3QgaGVpZ2h0PSIwIiB3aWR0aD0iMCI+PGRpdiB4bWxucz0iaHR0cDovL3d3dy53My5vcmcvMTk5OS94aHRtbCIgc3R5bGU9ImRpc3BsYXk6IHRhYmxlLWNlbGw7IHdoaXRlLXNwYWNlOiBub3dyYXA7IGxpbmUtaGVpZ2h0OiAxLjU7IG1heC13aWR0aDogMjAwcHg7IHRleHQtYWxpZ246IGNlbnRlcjsiIGNsYXNzPSJsYWJlbEJrZyI+PHNwYW4gY2xhc3M9ImVkZ2VMYWJlbCI+PC9zcGFuPjwvZGl2PjwvZm9yZWlnbk9iamVjdD48L2c+PC9nPjxnIGNsYXNzPSJlZGdlTGFiZWwiPjxnIHRyYW5zZm9ybT0idHJhbnNsYXRlKDAsIDApIiBjbGFzcz0ibGFiZWwiPjxmb3JlaWduT2JqZWN0IGhlaWdodD0iMCIgd2lkdGg9IjAiPjxkaXYgeG1sbnM9Imh0dHA6Ly93d3cudzMub3JnLzE5OTkveGh0bWwiIHN0eWxlPSJkaXNwbGF5OiB0YWJsZS1jZWxsOyB3aGl0ZS1zcGFjZTogbm93cmFwOyBsaW5lLWhlaWdodDogMS41OyBtYXgtd2lkdGg6IDIwMHB4OyB0ZXh0LWFsaWduOiBjZW50ZXI7IiBjbGFzcz0ibGFiZWxCa2ciPjxzcGFuIGNsYXNzPSJlZGdlTGFiZWwiPjwvc3Bhbj48L2Rpdj48L2ZvcmVpZ25PYmplY3Q+PC9nPjwvZz48L2c+PGcgY2xhc3M9Im5vZGVzIj48ZyB0cmFuc2Zvcm09InRyYW5zbGF0ZSgzOTAuMjAwMDAwMjg2MTAyMywgNDcpIiBpZD0iZmxvd2NoYXJ0LUEtMCIgY2xhc3M9Im5vZGUgZGVmYXVsdCI+PHJlY3QgaGVpZ2h0PSI3OCIgd2lkdGg9IjI2MCIgeT0iLTM5IiB4PSItMTMwIiBzdHlsZT0iIiBjbGFzcz0iYmFzaWMgbGFiZWwtY29udGFpbmVyIi8+PGcgdHJhbnNmb3JtPSJ0cmFuc2xhdGUoLTEwMCwgLTI0KSIgc3R5bGU9IiIgY2xhc3M9ImxhYmVsIj48cmVjdC8+PGZvcmVpZ25PYmplY3QgaGVpZ2h0PSI0OCIgd2lkdGg9IjIwMCI+PGRpdiB4bWxucz0iaHR0cDovL3d3dy53My5vcmcvMTk5OS94aHRtbCIgc3R5bGU9ImRpc3BsYXk6IHRhYmxlOyB3aGl0ZS1zcGFjZTogYnJlYWstc3BhY2VzOyBsaW5lLWhlaWdodDogMS41OyBtYXgtd2lkdGg6IDIwMHB4OyB0ZXh0LWFsaWduOiBjZW50ZXI7IHdpZHRoOiAyMDBweDsiPjxzcGFuIGNsYXNzPSJub2RlTGFiZWwiPjxwPlN0YXJ0OiBJbmNvbWluZyBYR01JSSBUcmFuc2FjdGlvbjwvcD48L3NwYW4+PC9kaXY+PC9mb3JlaWduT2JqZWN0PjwvZz48L2c+PGcgdHJhbnNmb3JtPSJ0cmFuc2xhdGUoMzkwLjIwMDAwMDI4NjEwMjMsIDE2MykiIGlkPSJmbG93Y2hhcnQtQi0xIiBjbGFzcz0ibm9kZSBkZWZhdWx0Ij48cmVjdCBoZWlnaHQ9IjU0IiB3aWR0aD0iMjQ3LjUiIHk9Ii0yNyIgeD0iLTEyMy43NSIgc3R5bGU9IiIgY2xhc3M9ImJhc2ljIGxhYmVsLWNvbnRhaW5lciIvPjxnIHRyYW5zZm9ybT0idHJhbnNsYXRlKC05My43NSwgLTEyKSIgc3R5bGU9IiIgY2xhc3M9ImxhYmVsIj48cmVjdC8+PGZvcmVpZ25PYmplY3QgaGVpZ2h0PSIyNCIgd2lkdGg9IjE4Ny41Ij48ZGl2IHhtbG5zPSJodHRwOi8vd3d3LnczLm9yZy8xOTk5L3hodG1sIiBzdHlsZT0iZGlzcGxheTogdGFibGUtY2VsbDsgd2hpdGUtc3BhY2U6IG5vd3JhcDsgbGluZS1oZWlnaHQ6IDEuNTsgbWF4LXdpZHRoOiAyMDBweDsgdGV4dC1hbGlnbjogY2VudGVyOyI+PHNwYW4gY2xhc3M9Im5vZGVMYWJlbCI+PHA+SW5pdGlhbGl6ZSBQYXJzaW5nIFZhcmlhYmxlczwvcD48L3NwYW4+PC9kaXY+PC9mb3JlaWduT2JqZWN0PjwvZz48L2c+PGcgdHJhbnNmb3JtPSJ0cmFuc2xhdGUoMzkwLjIwMDAwMDI4NjEwMjMsIDI3OSkiIGlkPSJmbG93Y2hhcnQtQy0zIiBjbGFzcz0ibm9kZSBkZWZhdWx0Ij48cmVjdCBoZWlnaHQ9Ijc4IiB3aWR0aD0iMjYwIiB5PSItMzkiIHg9Ii0xMzAiIHN0eWxlPSIiIGNsYXNzPSJiYXNpYyBsYWJlbC1jb250YWluZXIiLz48ZyB0cmFuc2Zvcm09InRyYW5zbGF0ZSgtMTAwLCAtMjQpIiBzdHlsZT0iIiBjbGFzcz0ibGFiZWwiPjxyZWN0Lz48Zm9yZWlnbk9iamVjdCBoZWlnaHQ9IjQ4IiB3aWR0aD0iMjAwIj48ZGl2IHhtbG5zPSJodHRwOi8vd3d3LnczLm9yZy8xOTk5L3hodG1sIiBzdHlsZT0iZGlzcGxheTogdGFibGU7IHdoaXRlLXNwYWNlOiBicmVhay1zcGFjZXM7IGxpbmUtaGVpZ2h0OiAxLjU7IG1heC13aWR0aDogMjAwcHg7IHRleHQtYWxpZ246IGNlbnRlcjsgd2lkdGg6IDIwMHB4OyI+PHNwYW4gY2xhc3M9Im5vZGVMYWJlbCI+PHA+Q3JlYXRlIFVEUCBhbmQgWEdNSUkgVGVtcCBPYmplY3RzPC9wPjwvc3Bhbj48L2Rpdj48L2ZvcmVpZ25PYmplY3Q+PC9nPjwvZz48ZyB0cmFuc2Zvcm09InRyYW5zbGF0ZSgzOTAuMjAwMDAwMjg2MTAyMywgNDA3KSIgaWQ9ImZsb3djaGFydC1ELTUiIGNsYXNzPSJub2RlIGRlZmF1bHQiPjxyZWN0IGhlaWdodD0iNzgiIHdpZHRoPSIyNjAiIHk9Ii0zOSIgeD0iLTEzMCIgc3R5bGU9IiIgY2xhc3M9ImJhc2ljIGxhYmVsLWNvbnRhaW5lciIvPjxnIHRyYW5zZm9ybT0idHJhbnNsYXRlKC0xMDAsIC0yNCkiIHN0eWxlPSIiIGNsYXNzPSJsYWJlbCI+PHJlY3QvPjxmb3JlaWduT2JqZWN0IGhlaWdodD0iNDgiIHdpZHRoPSIyMDAiPjxkaXYgeG1sbnM9Imh0dHA6Ly93d3cudzMub3JnLzE5OTkveGh0bWwiIHN0eWxlPSJkaXNwbGF5OiB0YWJsZTsgd2hpdGUtc3BhY2U6IGJyZWFrLXNwYWNlczsgbGluZS1oZWlnaHQ6IDEuNTsgbWF4LXdpZHRoOiAyMDBweDsgdGV4dC1hbGlnbjogY2VudGVyOyB3aWR0aDogMjAwcHg7Ij48c3BhbiBjbGFzcz0ibm9kZUxhYmVsIj48cD5DYWxsIHNjYl94Z21paV90b191ZHAgdG8gUGFyc2UgRmllbGRzPC9wPjwvc3Bhbj48L2Rpdj48L2ZvcmVpZ25PYmplY3Q+PC9nPjwvZz48ZyB0cmFuc2Zvcm09InRyYW5zbGF0ZSgzOTAuMjAwMDAwMjg2MTAyMywgNTM1KSIgaWQ9ImZsb3djaGFydC1FLTciIGNsYXNzPSJub2RlIGRlZmF1bHQiPjxyZWN0IGhlaWdodD0iNzgiIHdpZHRoPSIyNjAiIHk9Ii0zOSIgeD0iLTEzMCIgc3R5bGU9IiIgY2xhc3M9ImJhc2ljIGxhYmVsLWNvbnRhaW5lciIvPjxnIHRyYW5zZm9ybT0idHJhbnNsYXRlKC0xMDAsIC0yNCkiIHN0eWxlPSIiIGNsYXNzPSJsYWJlbCI+PHJlY3QvPjxmb3JlaWduT2JqZWN0IGhlaWdodD0iNDgiIHdpZHRoPSIyMDAiPjxkaXYgeG1sbnM9Imh0dHA6Ly93d3cudzMub3JnLzE5OTkveGh0bWwiIHN0eWxlPSJkaXNwbGF5OiB0YWJsZTsgd2hpdGUtc3BhY2U6IGJyZWFrLXNwYWNlczsgbGluZS1oZWlnaHQ6IDEuNTsgbWF4LXdpZHRoOiAyMDBweDsgdGV4dC1hbGlnbjogY2VudGVyOyB3aWR0aDogMjAwcHg7Ij48c3BhbiBjbGFzcz0ibm9kZUxhYmVsIj48cD5Qb3B1bGF0ZSBVRFAgVHJhbnNhY3Rpb24gRmllbGRzPC9wPjwvc3Bhbj48L2Rpdj48L2ZvcmVpZ25PYmplY3Q+PC9nPjwvZz48ZyB0cmFuc2Zvcm09InRyYW5zbGF0ZSgzOTAuMjAwMDAwMjg2MTAyMywgNzQzLjczMTI1NDU3NzYzNjcpIiBpZD0iZmxvd2NoYXJ0LUYtOSIgY2xhc3M9Im5vZGUgZGVmYXVsdCI+PHBvbHlnb24gdHJhbnNmb3JtPSJ0cmFuc2xhdGUoLTExOS4yMzEyNTQ1Nzc2MzY3MiwgMTE5LjczMTI1NDU3NzYzNjcyKSIgY2xhc3M9ImxhYmVsLWNvbnRhaW5lciIgcG9pbnRzPSIxMTkuNzMxMjU0NTc3NjM2NzIsMCAyMzkuNDYyNTA5MTU1MjczNDQsLTExOS43MzEyNTQ1Nzc2MzY3MiAxMTkuNzMxMjU0NTc3NjM2NzIsLTIzOS40NjI1MDkxNTUyNzM0NCAwLC0xMTkuNzMxMjU0NTc3NjM2NzIiLz48ZyB0cmFuc2Zvcm09InRyYW5zbGF0ZSgtOTIuNzMxMjU0NTc3NjM2NzIsIC0xMikiIHN0eWxlPSIiIGNsYXNzPSJsYWJlbCI+PHJlY3QvPjxmb3JlaWduT2JqZWN0IGhlaWdodD0iMjQiIHdpZHRoPSIxODUuNDYyNTA5MTU1MjczNDQiPjxkaXYgeG1sbnM9Imh0dHA6Ly93d3cudzMub3JnLzE5OTkveGh0bWwiIHN0eWxlPSJkaXNwbGF5OiB0YWJsZS1jZWxsOyB3aGl0ZS1zcGFjZTogbm93cmFwOyBsaW5lLWhlaWdodDogMS41OyBtYXgtd2lkdGg6IDIwMHB4OyB0ZXh0LWFsaWduOiBjZW50ZXI7Ij48c3BhbiBjbGFzcz0ibm9kZUxhYmVsIj48cD5FdGhlclR5cGUgPT0gMHgwODA2IEFSUD88L3A+PC9zcGFuPjwvZGl2PjwvZm9yZWlnbk9iamVjdD48L2c+PC9nPjxnIHRyYW5zZm9ybT0idHJhbnNsYXRlKDI0Mi44NDY4NzM3NjAyMjM0LCA5NjQuNDYyNTA5MTU1MjczNCkiIGlkPSJmbG93Y2hhcnQtRy0xMSIgY2xhc3M9Im5vZGUgZGVmYXVsdCI+PHJlY3QgaGVpZ2h0PSI1NCIgd2lkdGg9IjIyMS41MjUwMDkxNTUyNzM0NCIgeT0iLTI3IiB4PSItMTEwLjc2MjUwNDU3NzYzNjcyIiBzdHlsZT0iIiBjbGFzcz0iYmFzaWMgbGFiZWwtY29udGFpbmVyIi8+PGcgdHJhbnNmb3JtPSJ0cmFuc2xhdGUoLTgwLjc2MjUwNDU3NzYzNjcyLCAtMTIpIiBzdHlsZT0iIiBjbGFzcz0ibGFiZWwiPjxyZWN0Lz48Zm9yZWlnbk9iamVjdCBoZWlnaHQ9IjI0IiB3aWR0aD0iMTYxLjUyNTAwOTE1NTI3MzQ0Ij48ZGl2IHhtbG5zPSJodHRwOi8vd3d3LnczLm9yZy8xOTk5L3hodG1sIiBzdHlsZT0iZGlzcGxheTogdGFibGUtY2VsbDsgd2hpdGUtc3BhY2U6IG5vd3JhcDsgbGluZS1oZWlnaHQ6IDEuNTsgbWF4LXdpZHRoOiAyMDBweDsgdGV4dC1hbGlnbjogY2VudGVyOyI+PHNwYW4gY2xhc3M9Im5vZGVMYWJlbCI+PHA+SXRlcmF0ZSBPdmVyIEFSUCBUYWJsZTwvcD48L3NwYW4+PC9kaXY+PC9mb3JlaWduT2JqZWN0PjwvZz48L2c+PGcgdHJhbnNmb3JtPSJ0cmFuc2xhdGUoMjQyLjg0Njg3Mzc2MDIyMzQsIDExNjQuNTE4NzYwNjgxMTUyMykiIGlkPSJmbG93Y2hhcnQtSC0xMyIgY2xhc3M9Im5vZGUgZGVmYXVsdCI+PHBvbHlnb24gdHJhbnNmb3JtPSJ0cmFuc2xhdGUoLTEyMi41NTYyNTE1MjU4Nzg5LCAxMjMuMDU2MjUxNTI1ODc4OSkiIGNsYXNzPSJsYWJlbC1jb250YWluZXIiIHBvaW50cz0iMTIzLjA1NjI1MTUyNTg3ODksMCAyNDYuMTEyNTAzMDUxNzU3OCwtMTIzLjA1NjI1MTUyNTg3ODkgMTIzLjA1NjI1MTUyNTg3ODksLTI0Ni4xMTI1MDMwNTE3NTc4IDAsLTEyMy4wNTYyNTE1MjU4Nzg5Ii8+PGcgdHJhbnNmb3JtPSJ0cmFuc2xhdGUoLTk2LjA1NjI1MTUyNTg3ODksIC0xMikiIHN0eWxlPSIiIGNsYXNzPSJsYWJlbCI+PHJlY3QvPjxmb3JlaWduT2JqZWN0IGhlaWdodD0iMjQiIHdpZHRoPSIxOTIuMTEyNTAzMDUxNzU3OCI+PGRpdiB4bWxucz0iaHR0cDovL3d3dy53My5vcmcvMTk5OS94aHRtbCIgc3R5bGU9ImRpc3BsYXk6IHRhYmxlLWNlbGw7IHdoaXRlLXNwYWNlOiBub3dyYXA7IGxpbmUtaGVpZ2h0OiAxLjU7IG1heC13aWR0aDogMjAwcHg7IHRleHQtYWxpZ246IGNlbnRlcjsiPjxzcGFuIGNsYXNzPSJub2RlTGFiZWwiPjxwPk1hdGNoaW5nIFBlbmRpbmcgUmVxdWVzdD88L3A+PC9zcGFuPjwvZGl2PjwvZm9yZWlnbk9iamVjdD48L2c+PC9nPjxnIHRyYW5zZm9ybT0idHJhbnNsYXRlKDIwNS43OTk5OTk3MTM4OTc3LCAxNDAwLjU3NTAxMjIwNzAzMTIpIiBpZD0iZmxvd2NoYXJ0LUktMTUiIGNsYXNzPSJub2RlIGRlZmF1bHQiPjxyZWN0IGhlaWdodD0iNzgiIHdpZHRoPSIxODUuNTg3NTAxNTI1ODc4OSIgeT0iLTM5IiB4PSItOTIuNzkzNzUwNzYyOTM5NDUiIHN0eWxlPSIiIGNsYXNzPSJiYXNpYyBsYWJlbC1jb250YWluZXIiLz48ZyB0cmFuc2Zvcm09InRyYW5zbGF0ZSgtNjIuNzkzNzUwNzYyOTM5NDUsIC0yNCkiIHN0eWxlPSIiIGNsYXNzPSJsYWJlbCI+PHJlY3QvPjxmb3JlaWduT2JqZWN0IGhlaWdodD0iNDgiIHdpZHRoPSIxMjUuNTg3NTAxNTI1ODc4OSI+PGRpdiB4bWxucz0iaHR0cDovL3d3dy53My5vcmcvMTk5OS94aHRtbCIgc3R5bGU9ImRpc3BsYXk6IHRhYmxlLWNlbGw7IHdoaXRlLXNwYWNlOiBub3dyYXA7IGxpbmUtaGVpZ2h0OiAxLjU7IG1heC13aWR0aDogMjAwcHg7IHRleHQtYWxpZ246IGNlbnRlcjsiPjxzcGFuIGNsYXNzPSJub2RlTGFiZWwiPjxwPlVwZGF0ZSBBUlAgRW50cnk8YnIgLz52YWxpZD0xLCBzZXQgTUFDPC9wPjwvc3Bhbj48L2Rpdj48L2ZvcmVpZ25PYmplY3Q+PC9nPjwvZz48ZyB0cmFuc2Zvcm09InRyYW5zbGF0ZSgyMDUuNzk5OTk5NzEzODk3NywgMTUyOC41NzUwMTIyMDcwMzEyKSIgaWQ9ImZsb3djaGFydC1KLTE3IiBjbGFzcz0ibm9kZSBkZWZhdWx0Ij48cmVjdCBoZWlnaHQ9Ijc4IiB3aWR0aD0iMjYwIiB5PSItMzkiIHg9Ii0xMzAiIHN0eWxlPSIiIGNsYXNzPSJiYXNpYyBsYWJlbC1jb250YWluZXIiLz48ZyB0cmFuc2Zvcm09InRyYW5zbGF0ZSgtMTAwLCAtMjQpIiBzdHlsZT0iIiBjbGFzcz0ibGFiZWwiPjxyZWN0Lz48Zm9yZWlnbk9iamVjdCBoZWlnaHQ9IjQ4IiB3aWR0aD0iMjAwIj48ZGl2IHhtbG5zPSJodHRwOi8vd3d3LnczLm9yZy8xOTk5L3hodG1sIiBzdHlsZT0iZGlzcGxheTogdGFibGU7IHdoaXRlLXNwYWNlOiBicmVhay1zcGFjZXM7IGxpbmUtaGVpZ2h0OiAxLjU7IG1heC13aWR0aDogMjAwcHg7IHRleHQtYWxpZ246IGNlbnRlcjsgd2lkdGg6IDIwMHB4OyI+PHNwYW4gY2xhc3M9Im5vZGVMYWJlbCI+PHA+UG9wIE9sZCBUZW1wIFBhY2tldCBmcm9tIHhnbWlpX2V4cDwvcD48L3NwYW4+PC9kaXY+PC9mb3JlaWduT2JqZWN0PjwvZz48L2c+PGcgdHJhbnNmb3JtPSJ0cmFuc2xhdGUoMjA1Ljc5OTk5OTcxMzg5NzcsIDE3MzcuNjE4NzY2Nzg0NjY4KSIgaWQ9ImZsb3djaGFydC1LLTE5IiBjbGFzcz0ibm9kZSBkZWZhdWx0Ij48cG9seWdvbiB0cmFuc2Zvcm09InRyYW5zbGF0ZSgtMTE5LjU0Mzc1NDU3NzYzNjcyLCAxMjAuMDQzNzU0NTc3NjM2NzIpIiBjbGFzcz0ibGFiZWwtY29udGFpbmVyIiBwb2ludHM9IjEyMC4wNDM3NTQ1Nzc2MzY3MiwwIDI0MC4wODc1MDkxNTUyNzM0NCwtMTIwLjA0Mzc1NDU3NzYzNjcyIDEyMC4wNDM3NTQ1Nzc2MzY3MiwtMjQwLjA4NzUwOTE1NTI3MzQ0IDAsLTEyMC4wNDM3NTQ1Nzc2MzY3MiIvPjxnIHRyYW5zZm9ybT0idHJhbnNsYXRlKC05My4wNDM3NTQ1Nzc2MzY3MiwgLTEyKSIgc3R5bGU9IiIgY2xhc3M9ImxhYmVsIj48cmVjdC8+PGZvcmVpZ25PYmplY3QgaGVpZ2h0PSIyNCIgd2lkdGg9IjE4Ni4wODc1MDkxNTUyNzM0NCI+PGRpdiB4bWxucz0iaHR0cDovL3d3dy53My5vcmcvMTk5OS94aHRtbCIgc3R5bGU9ImRpc3BsYXk6IHRhYmxlLWNlbGw7IHdoaXRlLXNwYWNlOiBub3dyYXA7IGxpbmUtaGVpZ2h0OiAxLjU7IG1heC13aWR0aDogMjAwcHg7IHRleHQtYWxpZ246IGNlbnRlcjsiPjxzcGFuIGNsYXNzPSJub2RlTGFiZWwiPjxwPlRlbXAuZHN0X2lwID09IFNvdXJjZSBJUD88L3A+PC9zcGFuPjwvZGl2PjwvZm9yZWlnbk9iamVjdD48L2c+PC9nPjxnIHRyYW5zZm9ybT0idHJhbnNsYXRlKDEzOCwgMTk4Mi42NjI1MjEzNjIzMDQ3KSIgaWQ9ImZsb3djaGFydC1MLTIxIiBjbGFzcz0ibm9kZSBkZWZhdWx0Ij48cmVjdCBoZWlnaHQ9IjEwMiIgd2lkdGg9IjI2MCIgeT0iLTUxIiB4PSItMTMwIiBzdHlsZT0iIiBjbGFzcz0iYmFzaWMgbGFiZWwtY29udGFpbmVyIi8+PGcgdHJhbnNmb3JtPSJ0cmFuc2xhdGUoLTEwMCwgLTM2KSIgc3R5bGU9IiIgY2xhc3M9ImxhYmVsIj48cmVjdC8+PGZvcmVpZ25PYmplY3QgaGVpZ2h0PSI3MiIgd2lkdGg9IjIwMCI+PGRpdiB4bWxucz0iaHR0cDovL3d3dy53My5vcmcvMTk5OS94aHRtbCIgc3R5bGU9ImRpc3BsYXk6IHRhYmxlOyB3aGl0ZS1zcGFjZTogYnJlYWstc3BhY2VzOyBsaW5lLWhlaWdodDogMS41OyBtYXgtd2lkdGg6IDIwMHB4OyB0ZXh0LWFsaWduOiBjZW50ZXI7IHdpZHRoOiAyMDBweDsiPjxzcGFuIGNsYXNzPSJub2RlTGFiZWwiPjxwPlVwZGF0ZSBUZW1wLmRzdF9hZGRyID0gTUFDPGJyIC8+YW5kIFJlY3JlYXRlIEZyYW1lPC9wPjwvc3Bhbj48L2Rpdj48L2ZvcmVpZ25PYmplY3Q+PC9nPjwvZz48ZyB0cmFuc2Zvcm09InRyYW5zbGF0ZSgxMzgsIDIxNDYuNjYyNTIxMzYyMzA0NykiIGlkPSJmbG93Y2hhcnQtTS0yMyIgY2xhc3M9Im5vZGUgZGVmYXVsdCI+PHJlY3QgaGVpZ2h0PSI3OCIgd2lkdGg9IjI2MCIgeT0iLTM5IiB4PSItMTMwIiBzdHlsZT0iIiBjbGFzcz0iYmFzaWMgbGFiZWwtY29udGFpbmVyIi8+PGcgdHJhbnNmb3JtPSJ0cmFuc2xhdGUoLTEwMCwgLTI0KSIgc3R5bGU9IiIgY2xhc3M9ImxhYmVsIj48cmVjdC8+PGZvcmVpZ25PYmplY3QgaGVpZ2h0PSI0OCIgd2lkdGg9IjIwMCI+PGRpdiB4bWxucz0iaHR0cDovL3d3dy53My5vcmcvMTk5OS94aHRtbCIgc3R5bGU9ImRpc3BsYXk6IHRhYmxlOyB3aGl0ZS1zcGFjZTogYnJlYWstc3BhY2VzOyBsaW5lLWhlaWdodDogMS41OyBtYXgtd2lkdGg6IDIwMHB4OyB0ZXh0LWFsaWduOiBjZW50ZXI7IHdpZHRoOiAyMDBweDsiPjxzcGFuIGNsYXNzPSJub2RlTGFiZWwiPjxwPlB1c2ggVXBkYXRlZCBQYWNrZXQgdG8geGdtaWlfZXhwPC9wPjwvc3Bhbj48L2Rpdj48L2ZvcmVpZ25PYmplY3Q+PC9nPjwvZz48ZyB0cmFuc2Zvcm09InRyYW5zbGF0ZSgyNTcuNTQ2ODc0MDQ2MzI1NywgMjI3NC42NjI1MjEzNjIzMDQ3KSIgaWQ9ImZsb3djaGFydC1OLTI1IiBjbGFzcz0ibm9kZSBkZWZhdWx0Ij48cmVjdCBoZWlnaHQ9IjU0IiB3aWR0aD0iMjUzLjI1IiB5PSItMjciIHg9Ii0xMjYuNjI1IiBzdHlsZT0iIiBjbGFzcz0iYmFzaWMgbGFiZWwtY29udGFpbmVyIi8+PGcgdHJhbnNmb3JtPSJ0cmFuc2xhdGUoLTk2LjYyNSwgLTEyKSIgc3R5bGU9IiIgY2xhc3M9ImxhYmVsIj48cmVjdC8+PGZvcmVpZ25PYmplY3QgaGVpZ2h0PSIyNCIgd2lkdGg9IjE5My4yNSI+PGRpdiB4bWxucz0iaHR0cDovL3d3dy53My5vcmcvMTk5OS94aHRtbCIgc3R5bGU9ImRpc3BsYXk6IHRhYmxlLWNlbGw7IHdoaXRlLXNwYWNlOiBub3dyYXA7IGxpbmUtaGVpZ2h0OiAxLjU7IG1heC13aWR0aDogMjAwcHg7IHRleHQtYWxpZ246IGNlbnRlcjsiPjxzcGFuIGNsYXNzPSJub2RlTGFiZWwiPjxwPkxvZyBBUlAgQ2FjaGUgVXBkYXRlIEluZm88L3A+PC9zcGFuPjwvZGl2PjwvZm9yZWlnbk9iamVjdD48L2c+PC9nPjxnIHRyYW5zZm9ybT0idHJhbnNsYXRlKDI1Ny41NDY4NzQwNDYzMjU3LCAyNDAyLjY2MjUyMTM2MjMwNDcpIiBpZD0iZmxvd2NoYXJ0LU8tMzEiIGNsYXNzPSJub2RlIGRlZmF1bHQiPjxyZWN0IGhlaWdodD0iNTQiIHdpZHRoPSIyMjkuNDEyNTA2MTAzNTE1NjIiIHk9Ii0yNyIgeD0iLTExNC43MDYyNTMwNTE3NTc4MSIgc3R5bGU9IiIgY2xhc3M9ImJhc2ljIGxhYmVsLWNvbnRhaW5lciIvPjxnIHRyYW5zZm9ybT0idHJhbnNsYXRlKC04NC43MDYyNTMwNTE3NTc4MSwgLTEyKSIgc3R5bGU9IiIgY2xhc3M9ImxhYmVsIj48cmVjdC8+PGZvcmVpZ25PYmplY3QgaGVpZ2h0PSIyNCIgd2lkdGg9IjE2OS40MTI1MDYxMDM1MTU2MiI+PGRpdiB4bWxucz0iaHR0cDovL3d3dy53My5vcmcvMTk5OS94aHRtbCIgc3R5bGU9ImRpc3BsYXk6IHRhYmxlLWNlbGw7IHdoaXRlLXNwYWNlOiBub3dyYXA7IGxpbmUtaGVpZ2h0OiAxLjU7IG1heC13aWR0aDogMjAwcHg7IHRleHQtYWxpZ246IGNlbnRlcjsiPjxzcGFuIGNsYXNzPSJub2RlTGFiZWwiPjxwPlByaW50IEFSUCBJbmZvIGFycF9wcmludDwvcD48L3NwYW4+PC9kaXY+PC9mb3JlaWduT2JqZWN0PjwvZz48L2c+PGcgdHJhbnNmb3JtPSJ0cmFuc2xhdGUoNDcyLjcwMDAwMDI4NjEwMjMsIDI1MTguNjYyNTIxMzYyMzA0NykiIGlkPSJmbG93Y2hhcnQtUC0zMyIgY2xhc3M9Im5vZGUgZGVmYXVsdCI+PHJlY3QgaGVpZ2h0PSI1NCIgd2lkdGg9Ijg2LjIzNzUwMTE0NDQwOTE4IiB5PSItMjciIHg9Ii00My4xMTg3NTA1NzIyMDQ1OSIgc3R5bGU9IiIgY2xhc3M9ImJhc2ljIGxhYmVsLWNvbnRhaW5lciIvPjxnIHRyYW5zZm9ybT0idHJhbnNsYXRlKC0xMy4xMTg3NTA1NzIyMDQ1OSwgLTEyKSIgc3R5bGU9IiIgY2xhc3M9ImxhYmVsIj48cmVjdC8+PGZvcmVpZ25PYmplY3QgaGVpZ2h0PSIyNCIgd2lkdGg9IjI2LjIzNzUwMTE0NDQwOTE4Ij48ZGl2IHhtbG5zPSJodHRwOi8vd3d3LnczLm9yZy8xOTk5L3hodG1sIiBzdHlsZT0iZGlzcGxheTogdGFibGUtY2VsbDsgd2hpdGUtc3BhY2U6IG5vd3JhcDsgbGluZS1oZWlnaHQ6IDEuNTsgbWF4LXdpZHRoOiAyMDBweDsgdGV4dC1hbGlnbjogY2VudGVyOyI+PHNwYW4gY2xhc3M9Im5vZGVMYWJlbCI+PHA+RW5kPC9wPjwvc3Bhbj48L2Rpdj48L2ZvcmVpZ25PYmplY3Q+PC9nPjwvZz48ZyB0cmFuc2Zvcm09InRyYW5zbGF0ZSg1NzQuNjAwMDAwODU4MzA2OSwgMTczNy42MTg3NjY3ODQ2NjgpIiBpZD0iZmxvd2NoYXJ0LVEtMzUiIGNsYXNzPSJub2RlIGRlZmF1bHQiPjxyZWN0IGhlaWdodD0iMTAyIiB3aWR0aD0iMjYwIiB5PSItNTEiIHg9Ii0xMzAiIHN0eWxlPSIiIGNsYXNzPSJiYXNpYyBsYWJlbC1jb250YWluZXIiLz48ZyB0cmFuc2Zvcm09InRyYW5zbGF0ZSgtMTAwLCAtMzYpIiBzdHlsZT0iIiBjbGFzcz0ibGFiZWwiPjxyZWN0Lz48Zm9yZWlnbk9iamVjdCBoZWlnaHQ9IjcyIiB3aWR0aD0iMjAwIj48ZGl2IHhtbG5zPSJodHRwOi8vd3d3LnczLm9yZy8xOTk5L3hodG1sIiBzdHlsZT0iZGlzcGxheTogdGFibGU7IHdoaXRlLXNwYWNlOiBicmVhay1zcGFjZXM7IGxpbmUtaGVpZ2h0OiAxLjU7IG1heC13aWR0aDogMjAwcHg7IHRleHQtYWxpZ246IGNlbnRlcjsgd2lkdGg6IDIwMHB4OyI+PHNwYW4gY2xhc3M9Im5vZGVMYWJlbCI+PHA+Q2xlYXIgdWRwX3RyLm1fdWRwX3BheWxvYWRfZGF0YTwvcD48L3NwYW4+PC9kaXY+PC9mb3JlaWduT2JqZWN0PjwvZz48L2c+PGcgdHJhbnNmb3JtPSJ0cmFuc2xhdGUoNTc0LjYwMDAwMDg1ODMwNjksIDE5ODIuNjYyNTIxMzYyMzA0NykiIGlkPSJmbG93Y2hhcnQtUi0zNyIgY2xhc3M9Im5vZGUgZGVmYXVsdCI+PHJlY3QgaGVpZ2h0PSI3OCIgd2lkdGg9IjI0My40MjUwMDMwNTE3NTc4IiB5PSItMzkiIHg9Ii0xMjEuNzEyNTAxNTI1ODc4OSIgc3R5bGU9IiIgY2xhc3M9ImJhc2ljIGxhYmVsLWNvbnRhaW5lciIvPjxnIHRyYW5zZm9ybT0idHJhbnNsYXRlKC05MS43MTI1MDE1MjU4Nzg5LCAtMjQpIiBzdHlsZT0iIiBjbGFzcz0ibGFiZWwiPjxyZWN0Lz48Zm9yZWlnbk9iamVjdCBoZWlnaHQ9IjQ4IiB3aWR0aD0iMTgzLjQyNTAwMzA1MTc1NzgiPjxkaXYgeG1sbnM9Imh0dHA6Ly93d3cudzMub3JnLzE5OTkveGh0bWwiIHN0eWxlPSJkaXNwbGF5OiB0YWJsZS1jZWxsOyB3aGl0ZS1zcGFjZTogbm93cmFwOyBsaW5lLWhlaWdodDogMS41OyBtYXgtd2lkdGg6IDIwMHB4OyB0ZXh0LWFsaWduOiBjZW50ZXI7Ij48c3BhbiBjbGFzcz0ibm9kZUxhYmVsIj48cD5SZWNvbnN0cnVjdCBQYXlsb2FkIGZyb208YnIgLz5tX3VkcF9wYXlsb2FkIEFycmF5PC9wPjwvc3Bhbj48L2Rpdj48L2ZvcmVpZ25PYmplY3Q+PC9nPjwvZz48ZyB0cmFuc2Zvcm09InRyYW5zbGF0ZSg1NzQuNjAwMDAwODU4MzA2OSwgMjE0Ni42NjI1MjEzNjIzMDQ3KSIgaWQ9ImZsb3djaGFydC1TLTM5IiBjbGFzcz0ibm9kZSBkZWZhdWx0Ij48cmVjdCBoZWlnaHQ9Ijc4IiB3aWR0aD0iMjI3LjMzNzUwOTE1NTI3MzQ0IiB5PSItMzkiIHg9Ii0xMTMuNjY4NzU0NTc3NjM2NzIiIHN0eWxlPSIiIGNsYXNzPSJiYXNpYyBsYWJlbC1jb250YWluZXIiLz48ZyB0cmFuc2Zvcm09InRyYW5zbGF0ZSgtODMuNjY4NzU0NTc3NjM2NzIsIC0yNCkiIHN0eWxlPSIiIGNsYXNzPSJsYWJlbCI+PHJlY3QvPjxmb3JlaWduT2JqZWN0IGhlaWdodD0iNDgiIHdpZHRoPSIxNjcuMzM3NTA5MTU1MjczNDQiPjxkaXYgeG1sbnM9Imh0dHA6Ly93d3cudzMub3JnLzE5OTkveGh0bWwiIHN0eWxlPSJkaXNwbGF5OiB0YWJsZS1jZWxsOyB3aGl0ZS1zcGFjZTogbm93cmFwOyBsaW5lLWhlaWdodDogMS41OyBtYXgtd2lkdGg6IDIwMHB4OyB0ZXh0LWFsaWduOiBjZW50ZXI7Ij48c3BhbiBjbGFzcz0ibm9kZUxhYmVsIj48cD5QdXNoIEVhY2ggNjQtYml0IENodW5rPGJyIC8+aW50byBVRFAgUGF5bG9hZCBMaXN0PC9wPjwvc3Bhbj48L2Rpdj48L2ZvcmVpZ25PYmplY3Q+PC9nPjwvZz48ZyB0cmFuc2Zvcm09InRyYW5zbGF0ZSg1NzQuNjAwMDAwODU4MzA2OSwgMjI3NC42NjI1MjEzNjIzMDQ3KSIgaWQ9ImZsb3djaGFydC1ULTQxIiBjbGFzcz0ibm9kZSBkZWZhdWx0Ij48cmVjdCBoZWlnaHQ9Ijc4IiB3aWR0aD0iMjI0LjY4NzUiIHk9Ii0zOSIgeD0iLTExMi4zNDM3NSIgc3R5bGU9IiIgY2xhc3M9ImJhc2ljIGxhYmVsLWNvbnRhaW5lciIvPjxnIHRyYW5zZm9ybT0idHJhbnNsYXRlKC04Mi4zNDM3NSwgLTI0KSIgc3R5bGU9IiIgY2xhc3M9ImxhYmVsIj48cmVjdC8+PGZvcmVpZ25PYmplY3QgaGVpZ2h0PSI0OCIgd2lkdGg9IjE2NC42ODc1Ij48ZGl2IHhtbG5zPSJodHRwOi8vd3d3LnczLm9yZy8xOTk5L3hodG1sIiBzdHlsZT0iZGlzcGxheTogdGFibGUtY2VsbDsgd2hpdGUtc3BhY2U6IG5vd3JhcDsgbGluZS1oZWlnaHQ6IDEuNTsgbWF4LXdpZHRoOiAyMDBweDsgdGV4dC1hbGlnbjogY2VudGVyOyI+PHNwYW4gY2xhc3M9Im5vZGVMYWJlbCI+PHA+TG9nIFVEUCBQYWNrZXQgRGV0YWlsczxiciAvPmNvbnZlcnQyc3RyaW5nX21fdWRwPC9wPjwvc3Bhbj48L2Rpdj48L2ZvcmVpZ25PYmplY3Q+PC9nPjwvZz48ZyB0cmFuc2Zvcm09InRyYW5zbGF0ZSg1NzQuNjAwMDAwODU4MzA2OSwgMjQwMi42NjI1MjEzNjIzMDQ3KSIgaWQ9ImZsb3djaGFydC1VLTQzIiBjbGFzcz0ibm9kZSBkZWZhdWx0Ij48cmVjdCBoZWlnaHQ9Ijc4IiB3aWR0aD0iMjYwIiB5PSItMzkiIHg9Ii0xMzAiIHN0eWxlPSIiIGNsYXNzPSJiYXNpYyBsYWJlbC1jb250YWluZXIiLz48ZyB0cmFuc2Zvcm09InRyYW5zbGF0ZSgtMTAwLCAtMjQpIiBzdHlsZT0iIiBjbGFzcz0ibGFiZWwiPjxyZWN0Lz48Zm9yZWlnbk9iamVjdCBoZWlnaHQ9IjQ4IiB3aWR0aD0iMjAwIj48ZGl2IHhtbG5zPSJodHRwOi8vd3d3LnczLm9yZy8xOTk5L3hodG1sIiBzdHlsZT0iZGlzcGxheTogdGFibGU7IHdoaXRlLXNwYWNlOiBicmVhay1zcGFjZXM7IGxpbmUtaGVpZ2h0OiAxLjU7IG1heC13aWR0aDogMjAwcHg7IHRleHQtYWxpZ246IGNlbnRlcjsgd2lkdGg6IDIwMHB4OyI+PHNwYW4gY2xhc3M9Im5vZGVMYWJlbCI+PHA+UHVzaCB1ZHBfdHIgaW50byB1ZHBfZXhwIFF1ZXVlPC9wPjwvc3Bhbj48L2Rpdj48L2ZvcmVpZ25PYmplY3Q+PC9nPjwvZz48L2c+PC9nPjwvZz48L3N2Zz4=;imageBackground=#000000;fillStyle=solid;" parent="1" vertex="1">
          <mxGeometry x="1745.0033435058594" y="-34.99662597656243" width="329" height="1200" as="geometry" />
        </mxCell>
      </root>
    </mxGraphModel>
  </diagram>
</mxfile>
